<?xml version="1.0" encoding="UTF-8"?> <svg xmlns="http://www.w3.org/2000/svg" width="291" height="113" viewBox="0 0 291 113" fill="none"><g clip-path="url(#clip0_2990_26995)"><path d="M290.94 23.8799H0V90.4799H290.94V23.8799Z" fill="#79D97B"></path><path d="M53.8607 42.5996C53.7407 41.1596 53.5007 37.5596 47.6207 37.5596C43.4207 37.5596 41.9807 40.1996 41.9807 41.9996C41.9807 45.5996 46.9007 47.6396 52.1807 49.1996C63.4607 52.3196 75.4607 55.6796 75.4607 70.0796C75.4607 84.4796 63.1007 92.7596 48.3407 92.7596C38.2607 92.7596 23.0207 88.1996 21.2207 70.6796H41.0207C41.8607 76.7996 47.7407 76.7996 48.5807 76.7996C51.9407 76.7996 55.5407 74.8796 55.5407 71.6396C55.5407 66.4796 50.6207 65.8796 37.9007 60.9596C29.2607 58.1996 22.0607 52.5596 22.0607 43.5596C22.0607 30.3596 34.0607 21.5996 47.8607 21.5996C56.6207 21.5996 71.7407 25.0796 73.4207 42.5996H53.8607ZM53.7407 10.5996H73.0607L54.4607 30.5196H41.5007L23.3807 10.5996H42.7007L48.2207 17.5596L53.7407 10.5996Z" fill="black"></path><path d="M150.58 90.4796H130.66V83.2796H130.42C127.06 89.7596 118.78 92.7596 110.98 92.7596C89.86 92.7596 77.5 76.1996 77.5 57.1196C77.5 35.2796 93.22 21.5996 110.98 21.5996C121.9 21.5996 128.02 26.8796 130.42 30.9596H130.66V23.8796H150.58V90.4796ZM113.98 74.1596C126.46 74.1596 130.66 63.5996 130.66 57.1196C130.66 49.0796 125.14 40.1996 113.86 40.1996C102.58 40.1996 97.42 49.7996 97.42 57.3596C97.42 63.5996 101.98 74.1596 113.98 74.1596Z" fill="black"></path><path d="M180.94 39V90.48H161.02V39H153.58V23.88H161.02V20.4C161.02 1.68 176.74 0 186.46 0H189.34V15H187.06C185.38 15 180.94 15.6 180.94 21.24V23.88" fill="black"></path><path d="M254.742 23.8799L221.382 112.68H200.262L210.822 87.1199L186.102 23.8799H207.342L220.662 62.5199H220.902L233.622 23.8799H254.742Z" fill="black"></path></g><defs><clipPath id="clip0_2990_26995"><rect width="290.94" height="112.68" fill="white"></rect></clipPath></defs></svg> 