<svg xmlns="http://www.w3.org/2000/svg" id="Vrstva_2" data-name="Vrstva 2" viewBox="0 0 233.52 112.68"><defs><style>      .cls-1 {        fill: #fff;        stroke-width: 0px;      }    </style></defs><g id="Vrstva_1-2" data-name="Vrstva 1"><g><path class="cls-1" d="M32.64,42.6c-.12-1.44-.36-5.04-6.24-5.04-4.2,0-5.64,2.64-5.64,4.44,0,3.6,4.92,5.64,10.2,7.2,11.28,3.12,23.28,6.48,23.28,20.88s-12.36,22.68-27.12,22.68c-10.08,0-25.32-4.56-27.12-22.08h19.8c.84,6.12,6.72,6.12,7.56,6.12,3.36,0,6.96-1.92,6.96-5.16,0-5.16-4.92-5.76-17.64-10.68C8.04,58.2.84,52.56.84,43.56c0-13.2,12-21.96,25.8-21.96,8.76,0,23.88,3.48,25.56,21h-19.56ZM32.52,10.6h19.32l-18.6,19.92h-12.96L2.16,10.6h19.32l5.52,6.96,5.52-6.96Z"></path><path class="cls-1" d="M129.36,90.48h-19.92v-7.2h-.24c-3.36,6.48-11.64,9.48-19.44,9.48-21.12,0-33.48-16.56-33.48-35.64,0-21.84,15.72-35.52,33.48-35.52,10.92,0,17.04,5.28,19.44,9.36h.24v-7.08h19.92v66.6ZM92.76,74.16c12.48,0,16.68-10.56,16.68-17.04,0-8.04-5.52-16.92-16.8-16.92s-16.44,9.6-16.44,17.16c0,6.24,4.56,16.8,16.56,16.8Z"></path><path class="cls-1" d="M159.72,39v51.48h-19.92v-51.48h-7.44v-15.12h7.44v-3.48c0-18.72,15.72-20.4,25.44-20.4h2.88v15h-2.28c-1.68,0-6.12.6-6.12,6.24v2.64"></path><path class="cls-1" d="M233.52,23.88l-33.36,88.8h-21.12l10.56-25.56-24.72-63.24h21.24l13.32,38.64h.24l12.72-38.64h21.12Z"></path></g></g></svg>