<?xml version="1.0" encoding="UTF-8"?> <svg xmlns="http://www.w3.org/2000/svg" id="Vrstva_2" data-name="Vrstva 2" viewBox="0 0 26.91 27.75"><defs><style> .cls-1 { fill: #373736; stroke-width: 0px; } </style></defs><g id="Vrstva_1-2" data-name="Vrstva 1"><path class="cls-1" d="M26.91,5.02c-.18-.12-.36-.36-.53-.35-.59.05-1.25.05-1.75.32-1.67.88-3.28,1.87-4.92,2.82.03.05.06.1.09.14-.41.32-.83.63-1.22.97-.33.28-.92.58-.51,1.07.37.45.78-.02,1.12-.27,2.3-1.64,4.47-3.49,7.28-4.26.17-.05.29-.3.43-.45M17.19.95s-.01-.01-.02-.02c-.27-.27-.61-.24-.67.13-.11.67-.14,1.37-.11,2.05.01.3.27.53.57.3.42-.34.55-2.08.23-2.46M26,12.91s-.01-.02-.02-.02c-.24-.21-.55-.37-.86-.48-1.6-.57-3.27-.59-4.93-.58-.16,0-.34.03-.48.1-.13.07-.23.21-.34.32.13.11.24.25.39.34.1.06.24.06.37.07,1.81.11,3.62.23,5.34.87.16.06.36.03.7.04-.06-.28-.05-.54-.15-.67M17.09,5.18c-.09-.11-.25-.23-.35-.34-.16.16-.45.3-.48.49-.2,1.17-.36,2.34-.51,3.52-.02.14.12.36.26.45.1.07.3-.01.4-.02.1-.13.18-.19.2-.26.19-1.23.39-2.45.54-3.68,0-.04-.02-.09-.06-.14M24.09,16.55c-.57-.28-1.08-.55-1.61-.77-.12-.05-.39.07-.46.19-.06.11.02.39.13.47.42.32.87.63,1.34.87.15.08.48.01.58-.11.1-.12.01-.39,0-.64M10.5.95c-.09-.09-.24-.33-.46-.48-.28-.19-.6-.32-.9-.47.08.34.09.72.25,1.02.65,1.18,1.39,2.31,2,3.51.47.92.77,1.93,1.17,2.88.12.28.31.54.5.78.07.09.28.16.38.12.1-.04.2-.23.18-.35-.03-.31-.11-.61-.2-.91-.64-2.14-1.44-4.21-2.92-6.1M20.8,14.86c-.66-.26-1.33-.55-2.03-.76-.13-.04-.39.18-.5.34-.04.06.1.37.22.43.59.3,1.19.57,1.81.8.15.06.42-.02.53-.14.08-.08,0-.33-.03-.67M19.48,18.78c-.7-.72-1.23-1.31-1.82-1.83-.14-.12-.48-.02-.73-.01.03.24-.02.55.1.72.44.61.95,1.15,1.4,1.75.66.88,1.27,1.8,1.94,2.67.12.17.41.21.62.3.04-.23.09-.46.1-.7,0-.12-.06-.24-.12-.35-.53-.92-1.07-1.83-1.51-2.57M10.32,9.18c-.23-.26-.42-.56-.69-.75-.54-.38-1.11-.74-1.71-1.02-2.24-1.06-4.56-1.93-7.06-2.15-.27-.02-.55.05-.82.07-.01.09-.02.17-.04.26.29.13.57.31.87.4,2.93.87,5.86,1.74,8.55,3.26.23.13.54.1.82.15.03-.07.06-.14.09-.21M9.74,11.94c-.14-.16-.33-.4-.49-.4-1.51.06-3.02.16-4.53.26-.04,0-.09.02-.11.05-.11.16-.29.34-.28.5.02.14.23.32.4.38.18.07.41.04.62.02,1.18-.1,2.36-.2,3.54-.31.24-.02.48-.1.72-.15.06-.15.18-.31.14-.35M14.08,17.57c-.18.14-.42.25-.53.43-.13.22-.19.51-.22.77-.2,2.06-.19,4.12.27,6.15.2.89.48,1.76.75,2.69.21.05.44.19.56.12.16-.09.28-.32.35-.52.04-.12-.05-.28-.09-.42-.65-2.21-1.02-4.46-.92-6.77.03-.62.06-1.25.05-1.87,0-.2-.15-.39-.23-.59M12.16,16.99s-.06-.07-.1-.1c-.16-.11-.54.06-.82.13-.11.03-.21.14-.27.24-.61.99-1.25,1.95-1.79,2.98-.22.41-.38.94.09,1.56.28-.41.53-.73.74-1.07.63-1.02,1.25-2.05,1.88-3.07.13-.22.44-.44.27-.68ZM9.93,14.21c-.29-.08-.6-.29-.86-.23-.68.16-1.35.41-2.01.66-1.96.75-3.89,1.57-5.55,2.69-.15.12-.22.17-.28.22-.31.27-.65.59-.37,1,.29.42.67.11.99-.08.68-.4,1.32-.88,2.04-1.2,1.81-.82,3.67-1.55,5.48-2.36.24-.11.37-.46.56-.7M2.88,12.08c-.29-.34-.67-.15-.98.02-.12.06-.17.52-.14.53.33.13.67.22,1.21.37,0-.44.06-.7-.03-.85-.02-.03-.04-.05-.06-.08M8.91,22.79s-.01-.01-.02-.02c-.12-.1-.45-.11-.56-.02-.11.09-.15.42-.06.55.08.12.36.11.73.2-.04-.35,0-.62-.08-.72"></path></g></svg> 