<?xml version="1.0" encoding="UTF-8"?> <svg xmlns="http://www.w3.org/2000/svg" id="Vrstva_2" data-name="Vrstva 2" version="1.1" viewBox="0 0 2534.1 159.6"><defs><style> .cls-1 { fill: #000; } .cls-1, .cls-2 { stroke-width: 0px; } .cls-3 { isolation: isolate; } .cls-2 { fill: #fff; } </style></defs><g id="Vrstva_1-2" data-name="Vrstva 1-2"><g><path class="cls-1" d="M2532.8,32.8l1.3-7.2-.8-4.2.5-11.6s-1.6-9.2-1.6-9.9H11.1s1,5.2,1.3,5.9-3.6,13.4-3.6,13.4l.8,6.8-.3,7.4.5,7.7-.8,9.6-.3,7-2.3,3.9-1,5.3-3.1,3.1,1,4.2-2.3,3.3,1.8,9-1.8,2.4,1.6,7.9-1,5.9.5,8.3,1.6,8.5-2.6,3.3.3,3.9-1.4,7.3.8,4.2-.5,11.6s1.6,9.2,1.6,9.9h2521.1s-1-5.2-1.3-5.9,3.6-13.4,3.6-13.4l-.8-6.8.3-7.4-.5-7.7.8-9.6.3-7,2.3-3.9,1-5.2,3.1-3.1-1-4.2,2.3-3.3-1.8-9,1.8-2.4-1.6-7.9,1-5.9-.5-8.3-1.6-8.5,2.6-3.3-.3-3.9v-.2Z"></path><g class="cls-3"><g class="cls-3"><path class="cls-2" d="M375.8,82.2h-8.4v18.7h-10.5v-51h19c6,0,10.7,1.3,14,4s4.9,6.5,4.9,11.4-.8,6.4-2.3,8.7c-1.5,2.3-3.8,4.2-6.9,5.6l11,20.9v.5h-11.3l-9.6-18.7h0ZM367.4,73.7h8.5c2.6,0,4.7-.7,6.1-2s2.2-3.2,2.2-5.6-.7-4.3-2.1-5.7-3.5-2.1-6.3-2.1h-8.4v15.3h0Z"></path><path class="cls-2" d="M419.5,101.6c-5.6,0-10.1-1.7-13.6-5.1s-5.2-8-5.2-13.6v-1c0-3.8.7-7.2,2.2-10.2s3.6-5.3,6.3-6.9c2.7-1.6,5.8-2.4,9.2-2.4,5.2,0,9.3,1.6,12.3,4.9s4.5,7.9,4.5,13.9v4.1h-24.2c.3,2.5,1.3,4.5,3,6,1.6,1.5,3.7,2.2,6.3,2.2,3.9,0,7-1.4,9.1-4.2l5,5.6c-1.5,2.2-3.6,3.8-6.2,5s-5.5,1.8-8.6,1.8h0ZM418.4,70.5c-2,0-3.6.7-4.9,2-1.2,1.4-2.1,3.3-2.4,5.8h14.1v-.8c0-2.3-.7-4-1.8-5.2-1.2-1.2-2.8-1.8-5-1.8h0Z"></path></g><g class="cls-3"><path class="cls-2" d="M444.9,100.9v-30.5h-5.6v-7.4h5.6v-3.2c0-4.3,1.2-7.6,3.7-9.9,2.4-2.3,5.9-3.5,10.3-3.5s3.1.2,5.2.7v7.9c-.9-.2-2-.3-3.2-.3-3.8,0-5.7,1.8-5.7,5.4v3h7.5v7.4h-7.5v30.5h-10.3Z"></path></g><g class="cls-3"><path class="cls-2" d="M484.8,101.6c-5.6,0-10.1-1.7-13.6-5.1s-5.2-8-5.2-13.6v-1c0-3.8.7-7.2,2.2-10.2s3.6-5.3,6.3-6.9c2.7-1.6,5.8-2.4,9.2-2.4,5.2,0,9.3,1.6,12.3,4.9s4.5,7.9,4.5,13.9v4.1h-24.2c.3,2.5,1.3,4.5,3,6,1.6,1.5,3.7,2.2,6.3,2.2,3.9,0,7-1.4,9.1-4.2l5,5.6c-1.5,2.2-3.6,3.8-6.2,5s-5.5,1.8-8.6,1.8h0ZM483.6,70.5c-2,0-3.6.7-4.9,2-1.3,1.4-2.1,3.3-2.4,5.8h14.1v-.8c0-2.3-.7-4-1.8-5.2-1.2-1.2-2.8-1.8-5-1.8h0Z"></path></g><g class="cls-3"><path class="cls-2" d="M527.7,72.5c-1.4-.2-2.6-.3-3.6-.3-3.8,0-6.3,1.3-7.5,3.9v24.8h-10.1v-37.9h9.6l.3,4.5c2-3.5,4.8-5.2,8.4-5.2s2.2.2,3.2.5v9.7h-.3Z"></path></g><g class="cls-3"><path class="cls-2" d="M550.4,101.6c-5.6,0-10.1-1.7-13.6-5.1s-5.2-8-5.2-13.6v-1c0-3.8.7-7.2,2.2-10.2s3.6-5.3,6.3-6.9,5.8-2.4,9.2-2.4c5.2,0,9.3,1.6,12.3,4.9s4.5,7.9,4.5,13.9v4.1h-24.2c.3,2.5,1.3,4.5,3,6,1.6,1.5,3.7,2.2,6.3,2.2,3.9,0,7-1.4,9.1-4.2l5,5.6c-1.5,2.2-3.6,3.8-6.2,5-2.6,1.2-5.5,1.8-8.6,1.8h0ZM549.3,70.5c-2,0-3.6.7-4.9,2-1.3,1.4-2.1,3.3-2.4,5.8h14.1v-.8c0-2.3-.7-4-1.8-5.2-1.2-1.2-2.8-1.8-5-1.8h0Z"></path><path class="cls-2" d="M581.1,63l.3,4.4c2.7-3.4,6.3-5.1,10.9-5.1s7,1.2,9,3.5c2,2.4,3,5.9,3,10.6v24.5h-10.1v-24.3c0-2.1-.5-3.7-1.4-4.7s-2.5-1.5-4.7-1.5-5,1.2-6.4,3.6v26.7h-10.1v-37.9h9.5v.2Z"></path><path class="cls-2" d="M627.7,93.5c1.9,0,3.4-.5,4.6-1.5,1.2-1,1.8-2.4,1.8-4.1h9.5c0,2.6-.7,4.9-2.1,7.1-1.4,2.1-3.3,3.8-5.7,5s-5,1.8-7.9,1.8c-5.4,0-9.7-1.7-12.8-5.2-3.1-3.4-4.7-8.2-4.7-14.3v-.7c0-5.8,1.6-10.5,4.7-14,3.1-3.5,7.4-5.2,12.8-5.2s8.5,1.3,11.4,4c2.9,2.7,4.3,6.3,4.4,10.8h-9.5c0-2-.7-3.6-1.8-4.8-1.2-1.2-2.7-1.9-4.6-1.9s-4.1.9-5.3,2.6-1.8,4.5-1.8,8.4v1.1c0,3.9.6,6.7,1.8,8.4,1.2,1.7,3,2.6,5.4,2.6h-.2Z"></path><path class="cls-2" d="M666.9,101.6c-5.6,0-10.1-1.7-13.6-5.1s-5.2-8-5.2-13.6v-1c0-3.8.7-7.2,2.2-10.2s3.6-5.3,6.3-6.9,5.8-2.4,9.2-2.4c5.2,0,9.3,1.6,12.3,4.9s4.5,7.9,4.5,13.9v4.1h-24.2c.3,2.5,1.3,4.5,3,6,1.6,1.5,3.7,2.2,6.3,2.2,3.9,0,7-1.4,9.1-4.2l5,5.6c-1.5,2.2-3.6,3.8-6.2,5-2.6,1.2-5.5,1.8-8.6,1.8h0ZM665.7,70.5c-2,0-3.6.7-4.9,2-1.2,1.4-2.1,3.3-2.4,5.8h14.1v-.8c0-2.3-.7-4-1.8-5.2-1.2-1.2-2.8-1.8-5-1.8h0Z"></path><path class="cls-2" d="M708.8,90.4c0-1.2-.6-2.2-1.8-2.9-1.2-.7-3.2-1.3-5.9-1.9-9-1.9-13.5-5.7-13.5-11.5s1.4-6.2,4.2-8.4c2.8-2.3,6.4-3.4,11-3.4s8.7,1.1,11.6,3.4c2.9,2.3,4.3,5.2,4.3,8.8h-10.1c0-1.4-.5-2.6-1.4-3.6-.9-.9-2.4-1.4-4.4-1.4s-3,.4-4,1.2c-.9.8-1.4,1.8-1.4,2.9s.5,2,1.6,2.7,2.9,1.3,5.4,1.8,4.7,1.1,6.4,1.7c5.4,2,8,5.4,8,10.2s-1.5,6.3-4.5,8.4-6.8,3.2-11.5,3.2-6-.6-8.5-1.7-4.4-2.7-5.8-4.7-2.1-4.1-2.1-6.4h9.6c0,1.8.8,3.2,2,4.1s2.9,1.4,5,1.4,3.4-.4,4.4-1.1,1.5-1.7,1.5-2.9h0Z"></path></g></g><g><polygon class="cls-2" points="221.6 60.1 212.6 87.4 212.4 87.4 203 60.1 188 60.1 205.5 104.8 204.5 107.2 198 122.8 212.9 122.8 218.8 107.2 236.5 60.1 221.6 60.1"></polygon><path class="cls-2" d="M148.2,60.1v5h-.2c-1.4-2.2-3.5-3.9-5.9-5s-5.1-1.6-7.9-1.6-5.9.6-8.5,1.6c-9,3.6-15,12.7-15,23.5s5.8,20.1,14.9,23.6c2.6,1,5.5,1.6,8.7,1.6s5.6-.6,8-1.6c2.6-1.2,4.8-2.9,5.8-5.1h.2v5.1h14.1v-47h-14.2ZM136.4,95.6c-6.5,0-11.7-5.3-11.7-11.9s5.1-12.1,11.5-12.1,11.9,5.3,11.9,11.9-5.2,12-11.8,12h.1Z"></path><path class="cls-2" d="M95.3,78.3c-6.5-1.7-8.8-3-8.8-5.5s1.7-3.2,4.1-3.2,4.2.8,4.3,3.6h13.8c-.4-6.2-3.8-10.7-9-13.1l8.8-9.4h-13.6l-3.9,4.9-3.9-4.9h-13.6l8.5,9.4c-5.5,2.4-9.6,7.3-9.6,13.6s3.1,10.2,15,13.9c7,2.2,8.6,3.6,8.6,6.2s-2.5,3.7-4.9,3.7-4.9-1.4-5.3-4.3h-14c.7,6.7,4.6,11.7,10.5,14.1,2.5,1,5.4,1.6,8.6,1.6s6.1-.6,8.8-1.6c6.2-2.4,10.4-7.6,10.4-14.5s-3.6-11.4-14.8-14.4h0Z"></path><path class="cls-2" d="M189.3,44.4c-13.2,0-18.4,5-18.4,14.6v1.1h-5.2v10.7h5.2v36.4h14.1v-47.5c0-2.2.9-4.6,5-4.6h.9v-10.6h-1.6Z"></path></g><g><path class="cls-2" d="M47.5,56.4c-3.9-6.9-7.6-14-10.9-21.3-.9-2-1.8-4.1-2.7-6.2l-.8.7c4.7,3.2,8.8,6.9,12.7,11,.5.6,1.3,0,1.1-.7-1.9-5.3-3.2-10.9-3.8-16.5l-1.1.5c3.1,4.5,6.1,9.1,9.2,13.6.4.6,1.4,0,1.2-.6-1.1-5.9-2.3-11.8-3.4-17.7l-1.2.4c3.3,6.3,6.7,12.6,10,18.8.4.7,1.5.4,1.4-.5-1.5-6.9-3-13.8-4.5-20.7l-1,.6c2.2,1.7,3.5,4.4,4.6,6.9,1.1,2.7,1.9,5.5,3.3,8,.8,1.4,1.7,2.8,2.9,3.9.5.5,1.4,0,1.2-.6-1.1-7-2.2-13.9-3.3-20.9l-1.2.4c.8,1.3,1.5,2.7,2.3,4.1s1.5,2.7,2.3,4.1c1.5,2.7,3.1,5.4,4.6,8.1.4.7,1.4.3,1.3-.5-.3-3.5-.6-7.1-.9-10.6-.3-3.1-.6-6.1-.4-9.2,0-1.7.3-3.4.9-5h-1.3c4.4,7.9,8.9,15.7,13.3,23.5,1.2,2.2,2.5,4.4,3.8,6.6l.2-.9c-9.7,6.6-20,12.4-30.6,17.3-3,1.4-6.1,2.7-9.2,4-.9.4-.2,1.7.7,1.3,11-4.5,21.6-9.9,31.7-16.1,2.8-1.8,5.7-3.6,8.4-5.5.2-.2.3-.6.2-.9-4.4-7.8-8.9-15.6-13.3-23.4-1.2-2.2-2.5-4.4-3.8-6.6-.3-.5-1.1-.5-1.3,0-.9,3-1.1,6.1-.9,9.2.2,3.4.5,6.8.8,10.2.2,2,.3,4.1.5,6.1l1.3-.5c-1.6-2.7-3.2-5.4-4.7-8.1-.8-1.4-1.6-2.7-2.4-4s-1.6-2.7-2.3-4c-.3-.6-1.2-.3-1.2.4,1,7,2.1,13.9,3.1,20.9l1.2-.6c-4.3-4.1-4.9-10.4-7.9-15.3-.9-1.4-1.9-2.6-3.2-3.6-.4-.3-1.1.1-1,.6,1.5,6.9,2.9,13.8,4.3,20.8l1.4-.5c-3.4-6.3-6.8-12.5-10.2-18.8-.3-.6-1.3-.3-1.2.4,1.1,5.9,2.1,11.9,3.3,17.8l1.2-.6c-3.1-4.5-6.3-9-9.4-13.5-.4-.6-1.1,0-1.1.5.6,5.8,1.8,11.4,3.8,16.9l1.1-.7c-3.9-4.2-8.4-7.8-13.1-11-.5-.3-1,.2-.8.7,3,7.4,6.5,14.6,10.4,21.5,1.1,2,2.2,3.9,3.4,5.8.3.4,1,0,.7-.3h0l.3.3Z"></path><path class="cls-2" d="M31.5,30c3.4,8,7.3,15.8,11.7,23.3,1.2,2.2,2.5,4.3,3.9,6.4.2.3.7.2.6-.2-.3-1.6-.7-3.3-1-4.9l-.5.2c.6,1.4,2.1,2.2,3.6,2.4.7,0,1.5,0,2.2-.4.8-.4,1.3-1,1.8-1.7.5-.8,1-1.7,1.8-2.2.9-.7,2-.9,3.1-1,1.7-.2,3.5-.2,5.1-.9,1.3-.6,2.5-1.8,2.4-3.4l-.2.2c3.4-.5,6.8-1.4,9.9-2.9,1.2-.6,2.7-1.3,3.6-2.4.3-.4.7-1,.7-1.6s-.2-.7-.3-1c-.2-.5-.3-.9-.5-1.3l-.4.3c1.3,1.3,2.4,2.7,3.4,4.3,0,.2.5,0,.5-.2-.4-1.7-.7-3.3-1.1-5l-.4.2c.8.6,1.6,1.2,2.4,1.8.2,0,.4,0,.3-.2,0-.8,0-1.6.3-2.3h-.4c1.1,1.1,2.6,1.5,4,1.1.2,0,.2-.2.2-.3-2.3-4.4-4.5-8.8-6.7-13.2s-4.5-8.8-6.8-13.2c-1.3-2.5-2.6-5-3.9-7.5-.2-.3-.6-.2-.6.2,1.2,6.9,2,13.9,2.4,21,0,2,.2,4,.2,6h.8c-3.8-6.6-7.6-13-11.4-19.4-.2-.3-.7-.2-.7.2.9,6.6,1.7,13.1,2.6,19.7l.8-.3c-3-6.2-6.4-12.3-9.9-18.2-.2-.3-.7-.2-.7.1,0,4.1.3,8.2,1.2,12.1,0,.5.9.4.8-.1-.8-3.9-1.3-7.9-1.3-11.9h-.7c3.4,6.1,6.6,12.3,9.7,18.5.2.5.9.2.8-.3-.9-6.6-1.9-13.1-2.7-19.6l-.7.2c3.8,6.4,7.6,12.9,11.4,19.3.2.3.8.3.8-.1-.2-7.1-.8-14.1-1.9-21.1-.3-2-.6-4-1-6l-.6.2c4.5,8.8,9,17.6,13.6,26.4,1.3,2.5,2.6,5,3.9,7.5l.2-.3c-1.3.3-2.6,0-3.6-.9,0,0-.3,0-.3,0-.3.8-.4,1.7-.3,2.5l.3-.2c-.8-.6-1.6-1.2-2.4-1.8-.2,0-.4,0-.4.2.4,1.7.7,3.3,1.1,5l.5-.2c-1-1.6-2.1-3.1-3.5-4.4-.2-.2-.5,0-.4.3,0,.4.3.8.4,1.2,0,.3.3.8.3,1.1,0,.6-.5,1.1-.9,1.5-1,.9-2.4,1.6-3.7,2.2-2.9,1.4-5.9,2.3-9.1,2.6,0,0-.2,0-.2.2,0,1.4-1,2.4-2.2,3-1.5.7-3.1.7-4.7.9-1.7.2-3.4.5-4.6,1.9-1,1.2-1.7,2.9-3.4,3.3s-3.5-.4-4.2-2c0-.3-.6,0-.5.2.3,1.6.6,3.3.9,4.9l.6-.2c-4.6-7.4-8.9-14.9-12.7-22.7-1.1-2.2-2.1-4.5-3.1-6.8,0-.2-.3,0-.3.1h0v-.5Z"></path></g><g><path class="cls-2" d="M286.4,41.7c-3.4,4.2-6.5,8.7-9.5,13.3s-5.9,9.2-8.6,14c-1.5,2.7-3,5.4-4.5,8.1-.5.9.5,1.9,1.4,1.4,8.1-4.8,16.8-8.8,25.8-11.6l-.9-1.5c-9.6,11.2-16.8,24.2-21.1,38.3-1.2,4-2.2,8-2.9,12.1-.2,1.2,1.3,1.9,2,.8,9.6-15.2,19.2-30.4,28.7-45.6,2.7-4.2,5.3-8.5,8-12.7.4-.6-.1-1.6-.9-1.5-7.5.7-14.9,2.2-22.1,4.4l1.2,1.6c5.5-8.8,12.4-16.7,20.3-23.5.7-.6.1-1.9-.7-1.8-6.3.4-12.2,2.3-17.7,5.4-1,.6-.1,2.1.9,1.6,5.1-2.9,11-4.5,16.8-4.9-.2-.6-.5-1.2-.7-1.8-8,6.9-15,15-20.6,23.9-.5.8.3,1.8,1.2,1.6,7-2.2,14.2-3.7,21.5-4.4l-.9-1.5c-9.5,15.2-19.2,30.3-28.8,45.5-2.7,4.2-5.4,8.5-8,12.7l2,.8c2.4-14.3,7.7-28,15.8-40,2.3-3.4,4.7-6.6,7.4-9.7.6-.6,0-1.7-.9-1.5-9.3,2.6-18.2,6.4-26.4,11.5.5.5.9.9,1.4,1.4,4.9-9.7,10.5-19,16.5-28,1.7-2.6,3.5-5.1,5.2-7.6.4-.6-.5-1.3-1-.7h.1Z"></path><path class="cls-2" d="M302.5,38.6c-2.3,5.2-4.5,10.3-6.9,15.5l1.1.5c1.6-4.5,3.4-9,5.5-13.3.3-.6-.6-1.2-1-.6-3.6,5.9-7.2,11.9-10.9,17.7l1,.4c.7-4.3,2.6-8.1,5.6-11.3l-1.1-.8c-3.4,4.4-6.9,8.8-10.1,13.3-.4.6.5,1.4,1,.8,3.6-4.3,6.9-8.9,10.2-13.4.5-.6-.6-1.4-1.1-.8-3.1,3.3-5.2,7.6-5.7,12.1,0,.6.8.7,1,.3,3.5-6,7.2-11.8,10.9-17.7l-1-.6c-2.3,4.3-4.3,8.8-5.7,13.5-.2.8.9,1,1.2.3,2.1-5.2,4.4-10.3,6.5-15.5.2-.5-.6-1-.8-.5h.3Z"></path><path class="cls-2" d="M303.4,57.5c-.9,6.2-1.9,12.3-3,18.4l1.4.2v-11.9c0-4-1.2-1-1.4-.2-1,4.9-2,9.8-3,14.8h1.5c-1-3.3-1.3-6.9-.8-10.3.1-.9-1.3-1.4-1.5-.4-.6,3.7-1.3,7.3-2,11h1.6c-.9-2.2-1-4.6-.2-6.9l-1.7-.2c-.6,5.4-1.7,10.8-3.3,16.1l1.7.2c.2-2.4,0-4.9-1-7.2-.3-.8-1.4-.8-1.6,0-1.5,4.2-2.9,8.4-4.4,12.6l1.7.2c.1-2.6.3-5.2.4-7.8,0-.9-1.5-1.2-1.6-.2-.9,4.6-1.8,9.2-2.8,13.7h1.6c-.4-2.4-.8-4.8-1.1-7.2-.1-.9-1.4-.7-1.6,0-1.4,4.6-2.9,9.1-4.4,13.7l1.5-.2c-.7-1.4-1.4-2.8-2.1-4.3-.4-.8-1.4-.3-1.5.4-.2,4.3-.9,8.6-1.9,12.8h1.5c-.8-2.1-1.5-4.2-2.2-6.4-.2-.7-1.3-.8-1.5,0-.9,3.9-2.1,7.7-3.6,11.5l1.3-.3c-1-1.3-2.7-1.8-4.2-1.3l1,1c2.5-15,8.3-29.4,16.8-41.9,2.4-3.6,5.1-7,7.9-10.2.6-.8-.1-1.9-1.1-1.4-8.9,4.7-17.8,9.2-26.7,13.8.4.4.7.7,1.1,1.1,4.5-9.8,9.6-19.4,15.1-28.8,1.5-2.7,3.1-5.3,4.7-7.9.5-.8-.5-1.6-1.2-1.2-2.5,1.2-5.1,2.3-7.6,3.4-.8.3-.2,1.7.6,1.4,10.2-3.6,20.5-7.2,30.7-10.8.9-.3.5-1.7-.4-1.4-10.2,3.6-20.5,7.1-30.7,10.7l.6,1.4c2.5-1.1,5-2.1,7.5-3.1l-1-1.3c-5.8,9.1-10.9,18.8-15.6,28.5-1.4,2.8-2.7,5.5-4,8.3-.3.7.4,1.5,1.1,1.1,8.9-4.6,17.8-9.2,26.8-13.7-.4-.5-.7-.9-1.1-1.4-10.3,11.4-17.8,25.4-22.1,40.2-1.2,4.2-2.2,8.5-2.9,12.8,0,.6.3,1.2,1,1,1-.3,2,0,2.7.9.4.5,1.1,0,1.3-.3,1.5-3.7,2.7-7.6,3.6-11.4h-1.5c.8,2.1,1.5,4.2,2.2,6.4.2.7,1.3.8,1.5,0,1.1-4.3,1.7-8.7,2-13.2l-1.5.4c.7,1.4,1.4,2.8,2.1,4.3.3.7,1.3.4,1.5-.2,1.5-4.6,2.9-9.1,4.4-13.7h-1.6c.4,2.4.8,4.8,1.1,7.2.1.8,1.5.8,1.6,0,.9-4.6,1.8-9.2,2.8-13.7l-1.6-.2c-.1,2.6-.3,5.2-.4,7.8,0,1,1.4,1.1,1.7.2,1.5-4.2,2.9-8.4,4.4-12.6h-1.6c.8,2.2,1.1,4.4.8,6.7-.1,1,1.5,1.2,1.7.2,1.7-5.4,2.8-10.9,3.4-16.5.1-1-1.4-1.1-1.7-.2-.9,2.6-.7,5.4.4,8,.3.6,1.4.5,1.5-.2.6-3.7,1.2-7.4,1.8-11l-1.5-.4c-.5,3.7-.3,7.5.8,11.1.2.7,1.3.8,1.5,0,.9-4.9,1.9-9.9,2.8-14.8l-1.4-.2v11.9c0,.8,1.3,1,1.4.2,1.1-6.2,2-12.4,2.6-18.7,0-.5-.9-.7-1,0h0v-.3Z"></path></g><path class="cls-2" d="M754.9,77.9c1.9-6.6-3.7-12.2-10.4-16.2-10.6-6.4-24.1-10.2-37-13.4-30.1-7.3-62.1-10.8-93.6-13-30.7-2.1-61.7-2.8-92.5-2.1-16.8,0-33.5.4-50.2,1.3-16.5.9-33,2.2-49.3,4.2-16.1,1.9-32.2,4.4-47.6,8.5-6.7,1.7-14.9,4.4-22.3,7.8-.4,0-.8.2-1.2.4,2.8-1.4,5.6-2.7,8.7-3.8.6-.2,0-.9-.6-.7-4.7,1.7-9.1,3.8-13.1,6.2-7.9,2.9-15.2,6.6-20,11.9-4.9,5.5-5.5,12-1.4,17.9,2.3,3.3,5.8,6.1,9.7,8.5,10.1,13.8,34.9,19.5,54.8,22.5,16.4,2.5,33.2,3.9,50,4.9,16.9,1.1,33.9,1.8,50.9,2.1,35.2.7,70.5,0,105.5-2.1,32.9-2,66.3-4.7,98.2-10.9,12.5-2.4,25.2-5.4,36.5-10.3,6.3-2.7,13-6.5,16.2-11.4,2.6-2.1,4.5-4.3,5.4-6.7,1.5-1.7,2.7-3.6,3.3-5.6h0ZM611.8,36.7c30.8,2,61.8,5.5,91.3,12.2,13.2,3,26.7,6.7,37.9,12.7,7.3,3.9,14.4,9.8,11.6,16.9,0,.2-.2.3-.3.5-.3-2.6-1.8-5.3-4.7-8.2-2.6-2.6-5.8-4.8-9.4-6.8-.3-.3-.6-.6-1-.9-7.3-5.9-18.1-9.4-28.2-12.1-22.9-6-47.5-8.8-72-10.4-19.6-2.5-39.3-4.4-59.2-5.6,11.3.4,22.7.9,33.9,1.7h.1ZM707.7,104.2c10.3-2.7,20.3-6.1,29.2-10.5,2.6-1.3,5.2-2.7,7.7-4.3,0,0,0,.2-.2.3-8.5,6.6-24.6,11.4-36.8,14.6h0ZM437.1,118.7c-28.8-2.9-58.8-6.9-85.1-16.3-5.6-2-11.4-4.3-16.3-7.3-1.3-1.7-2.4-3.6-3.2-5.6-2.3-6-1.6-12.6,1.2-18.4-1,3.3-.7,6.8,1.6,10.6,4.2,7.2,13.6,12.1,22.7,15.8,2.2.9,4.4,1.7,6.7,2.5,2.3.9,4.6,1.8,6.8,2.5,28.8,9.6,61.5,12.9,92.8,15.4,35.3,2.8,70.9,4.2,106.4,3.5,19.6-.4,39.3-1.4,58.8-3.5-4.5.5-9.1,1-13.7,1.4-59,5.5-119.7,5.3-178.6-.7h-.1ZM512.1,34.9h4.7c18.7,0,37.5.5,56.1,1.6,11.8.7,23.5,1.6,35.2,2.7-30.9-1.3-61.9-1.5-92.9-.5-11.4.4-22.9.9-34.3,1.7-21.5.3-43,1.3-64.3,3.4l1.1-.2c30.8-5.4,62.7-7.7,94.3-8.6h0ZM665,46.2c15.1,2.4,30.1,5.1,44.6,9,8.8,2.4,18.4,5.3,26.3,9.4,2.5,2.1,4.3,4.6,5.1,7.3-1.7-1.4-3.6-2.8-5.5-3.9-10.3-6.3-23.2-10.3-36-13.3-30.2-7.1-62.3-9.7-93.8-11.5-30.4-1.8-60.9-2.8-91.4-3,33.5-1.1,67.2-.8,100.6.9,7.6.4,15.2.8,22.8,1.3,9.1,1.2,18.2,2.4,27.2,3.9h.1ZM670.6,45.5c11.1,1.5,22,3.3,32.6,5.8,8.1,1.9,16.5,4.2,23.7,7.7-4.1-1.5-8.3-2.8-12.3-4-14.2-4.1-29-7-43.9-9.5h0ZM746.2,85.1c0,.4,0,.8-.2,1.2-4.2,3.3-9.6,5.9-14.5,8.1-7.7,3.4-16,6.1-24.5,8.4,1.5-.5,3-1,4.5-1.6,11.2-4.2,23.2-9.8,29.2-18.1,1.5-2.1,2.4-4.2,2.7-6.4,2,2.6,3.2,5.4,2.8,8.4h0ZM408.5,45.8c14.1-1.5,28.3-2.6,42.5-3.2-11.2,1-22.4,2.3-33.5,3.7-1.4.2-.8,1.8.6,1.6,22.1-2.9,44.5-4.9,66.9-6.3,6.7,0,13.4,0,20.1,0,32.5,0,65,1.2,97.4,3,30.7,1.7,61.8,4.2,91.4,10.5,13.2,2.8,26.3,6.5,37.4,12.5,3.6,1.9,7.2,4.3,10,7.1,0,3.2-1.5,6.3-3.8,9-6.9,8.2-19.3,13.5-31,17.5-9.3,3.2-19.1,5.7-29,7.8-26.4,4.5-53.7,6.5-80.7,7.7-33.4,1.4-67.1,1.6-100.6.6-32.4-1-65.1-3.3-96.5-9.3-11.1-2.1-22.1-4.7-32.4-8.2-16.2-6.2-34.1-16.8-21-30,6.7-6.8,17.4-11.4,27.5-15.1,9.1-3.3,18.6-5.9,28.2-8,2.1-.2,4.2-.5,6.3-.7h0l.2-.2ZM637.8,115.5c-22.9,2.8-46.1,4.2-69.3,4.6-28.2.5-56.5-.3-84.6-2.1,3.8.2,7.5.3,11.3.4,34.9,1.2,70.1,1,104.9-.6,12.5-.6,25.1-1.3,37.6-2.4h.1ZM369.1,54.9c-9.6,3.8-19.7,8.6-25.5,15.5-7,8.3-2.8,15.5,5.1,21.3-4.7-2.7-8.8-5.8-11.3-9.6-5.1-7.7-1.1-15.6,6.9-21.3,2.6-1.8,5.4-3.5,8.5-4.9,3.2-1,6.4-1.8,9.5-2.5,8.9-2.1,18-3.8,27.2-5.1-7,1.9-13.8,4.1-20.4,6.7h0ZM671.2,111.8c2.4-.5,4.8-1,7.2-1.5,5.8-1,11.5-2.1,17.2-3.3-13.9,3.2-28.1,5.8-42.4,7.8,6-.9,12-1.9,18-3ZM748.2,84.3c0-3.7-1.8-7.2-4.7-10.2,0-2.1-.7-4.2-2-6.2,1.1.8,2.2,1.6,3.2,2.5,4.9,4.3,6.3,8.3,5.3,11.8-.6.7-1.2,1.4-1.9,2h.1ZM381.1,46.8c24.7-5.7,50.8-8.5,76.7-10.1-15.6,1.5-31,3.6-46.2,6.5-3.8.7-7.5,1.5-11.2,2.4-13.4,1.7-26.9,3.8-39.8,7.1,6.6-2.4,13.7-4.3,20.6-5.8h0ZM346.3,58c-.1,0-.2,0-.3.2,0,0,.2,0,.3-.2h0ZM326.5,87.5c-4.9-6.1-4.3-13.1,1.3-18.8,3.7-3.7,8.6-6.6,14.1-8.9-3.6,2.7-6.6,5.8-8.7,9.4-3.6,6.2-4.6,13.4-2.4,19.9.5,1.4,1.2,2.8,1.9,4.1-2.4-1.7-4.6-3.6-6.3-5.7h.1ZM394.4,117.4c-19.5-2.7-45-7.4-56.8-20.2,3.5,1.8,7.3,3.5,11,4.9,11.9,4.5,24.8,7.7,37.7,10.2,15.9,3.1,32.1,5.3,48.3,7.1,19.1,2,38.4,3.4,57.7,4.1-32.6-.6-65.8-1.8-97.9-6.2h0ZM725.8,101.6c-11.7,4.5-24.6,7.4-37.4,9.7-16,2.9-32.3,5-48.8,6.6,22-2.7,43.9-6.4,65-11.7,9.2-2.3,24.8-6.3,35.7-12.3-4,3.2-9.6,5.7-14.5,7.7Z"></path><g class="cls-3"><g class="cls-3"><path class="cls-2" d="M1142.9,82.2h-8.4v18.7h-10.5v-51h19c6,0,10.7,1.3,14,4s4.9,6.5,4.9,11.4-.8,6.4-2.3,8.7c-1.5,2.3-3.8,4.2-6.9,5.6l11,20.9v.5h-11.3l-9.6-18.7h.1ZM1134.5,73.7h8.5c2.6,0,4.7-.7,6.1-2s2.2-3.2,2.2-5.6-.7-4.3-2.1-5.7-3.5-2.1-6.3-2.1h-8.4v15.3h0Z"></path><path class="cls-2" d="M1186.6,101.6c-5.6,0-10.1-1.7-13.6-5.1s-5.2-8-5.2-13.6v-1c0-3.8.7-7.2,2.2-10.2s3.6-5.3,6.3-6.9c2.7-1.6,5.8-2.4,9.2-2.4,5.2,0,9.3,1.6,12.3,4.9s4.5,7.9,4.5,13.9v4.1h-24.2c.3,2.5,1.3,4.5,3,6,1.6,1.5,3.7,2.2,6.3,2.2,3.9,0,7-1.4,9.1-4.2l5,5.6c-1.5,2.2-3.6,3.8-6.2,5s-5.5,1.8-8.6,1.8h-.1ZM1185.5,70.5c-2,0-3.6.7-4.9,2-1.2,1.4-2.1,3.3-2.4,5.8h14.1v-.8c0-2.3-.7-4-1.8-5.2-1.2-1.2-2.8-1.8-5-1.8h0Z"></path></g><g class="cls-3"><path class="cls-2" d="M1212,100.9v-30.5h-5.6v-7.4h5.6v-3.2c0-4.3,1.2-7.6,3.7-9.9,2.4-2.3,5.9-3.5,10.3-3.5s3.1.2,5.2.7v7.9c-.9-.2-2-.3-3.2-.3-3.8,0-5.7,1.8-5.7,5.4v3h7.5v7.4h-7.5v30.5h-10.3Z"></path></g><g class="cls-3"><path class="cls-2" d="M1251.9,101.6c-5.6,0-10.1-1.7-13.6-5.1s-5.2-8-5.2-13.6v-1c0-3.8.7-7.2,2.2-10.2s3.6-5.3,6.3-6.9c2.7-1.6,5.8-2.4,9.2-2.4,5.2,0,9.3,1.6,12.3,4.9s4.5,7.9,4.5,13.9v4.1h-24.2c.3,2.5,1.3,4.5,3,6,1.6,1.5,3.7,2.2,6.3,2.2,3.9,0,7-1.4,9.1-4.2l5,5.6c-1.5,2.2-3.6,3.8-6.2,5s-5.5,1.8-8.6,1.8h-.1ZM1250.7,70.5c-2,0-3.6.7-4.9,2-1.3,1.4-2.1,3.3-2.4,5.8h14.1v-.8c0-2.3-.7-4-1.8-5.2-1.2-1.2-2.8-1.8-5-1.8h0Z"></path></g><g class="cls-3"><path class="cls-2" d="M1294.8,72.5c-1.4-.2-2.6-.3-3.6-.3-3.8,0-6.3,1.3-7.5,3.9v24.8h-10.1v-37.9h9.6l.3,4.5c2-3.5,4.8-5.2,8.4-5.2s2.2.2,3.2.5v9.7h-.3Z"></path></g><g class="cls-3"><path class="cls-2" d="M1317.5,101.6c-5.6,0-10.1-1.7-13.6-5.1s-5.2-8-5.2-13.6v-1c0-3.8.7-7.2,2.2-10.2s3.6-5.3,6.3-6.9c2.7-1.6,5.8-2.4,9.2-2.4,5.2,0,9.3,1.6,12.3,4.9s4.5,7.9,4.5,13.9v4.1h-24.2c.3,2.5,1.3,4.5,3,6,1.6,1.5,3.7,2.2,6.3,2.2,3.9,0,7-1.4,9.1-4.2l5,5.6c-1.5,2.2-3.6,3.8-6.2,5s-5.5,1.8-8.6,1.8h-.1ZM1316.4,70.5c-2,0-3.6.7-4.9,2-1.2,1.4-2.1,3.3-2.4,5.8h14.1v-.8c0-2.3-.7-4-1.8-5.2-1.2-1.2-2.8-1.8-5-1.8h0Z"></path><path class="cls-2" d="M1348.2,63l.3,4.4c2.7-3.4,6.3-5.1,10.9-5.1s7,1.2,9,3.5c2,2.4,3,5.9,3,10.6v24.5h-10.1v-24.3c0-2.1-.5-3.7-1.4-4.7s-2.5-1.5-4.7-1.5-5,1.2-6.4,3.6v26.7h-10.1v-37.9h9.5v.2Z"></path><path class="cls-2" d="M1394.8,93.5c1.9,0,3.4-.5,4.6-1.5s1.8-2.4,1.8-4.1h9.5c0,2.6-.7,4.9-2.1,7.1-1.4,2.1-3.3,3.8-5.7,5-2.4,1.2-5,1.8-7.9,1.8-5.4,0-9.7-1.7-12.8-5.2-3.1-3.4-4.7-8.2-4.7-14.3v-.7c0-5.8,1.6-10.5,4.7-14s7.4-5.2,12.8-5.2,8.5,1.3,11.4,4c2.9,2.7,4.3,6.3,4.4,10.8h-9.5c0-2-.7-3.6-1.8-4.8-1.2-1.2-2.7-1.9-4.6-1.9s-4.1.9-5.3,2.6c-1.2,1.7-1.8,4.5-1.8,8.4v1.1c0,3.9.6,6.7,1.8,8.4,1.2,1.7,3,2.6,5.4,2.6h-.2Z"></path><path class="cls-2" d="M1434,101.6c-5.6,0-10.1-1.7-13.6-5.1s-5.2-8-5.2-13.6v-1c0-3.8.7-7.2,2.2-10.2s3.6-5.3,6.3-6.9c2.7-1.6,5.8-2.4,9.2-2.4,5.2,0,9.3,1.6,12.3,4.9s4.5,7.9,4.5,13.9v4.1h-24.2c.3,2.5,1.3,4.5,3,6,1.6,1.5,3.7,2.2,6.3,2.2,3.9,0,7-1.4,9.1-4.2l5,5.6c-1.5,2.2-3.6,3.8-6.2,5s-5.5,1.8-8.6,1.8h-.1ZM1432.8,70.5c-2,0-3.6.7-4.9,2-1.2,1.4-2.1,3.3-2.4,5.8h14.1v-.8c0-2.3-.7-4-1.8-5.2-1.2-1.2-2.8-1.8-5-1.8h0Z"></path><path class="cls-2" d="M1475.9,90.4c0-1.2-.6-2.2-1.8-2.9-1.2-.7-3.2-1.3-5.9-1.9-9-1.9-13.5-5.7-13.5-11.5s1.4-6.2,4.2-8.4c2.8-2.3,6.4-3.4,11-3.4s8.7,1.1,11.6,3.4,4.3,5.2,4.3,8.8h-10.1c0-1.4-.5-2.6-1.4-3.6-.9-.9-2.4-1.4-4.4-1.4s-3,.4-4,1.2c-.9.8-1.4,1.8-1.4,2.9s.5,2,1.6,2.7,2.9,1.3,5.4,1.8,4.7,1.1,6.4,1.7c5.4,2,8,5.4,8,10.2s-1.5,6.3-4.5,8.4-6.8,3.2-11.5,3.2-6-.6-8.5-1.7-4.4-2.7-5.8-4.7-2.1-4.1-2.1-6.4h9.6c0,1.8.8,3.2,2,4.1s2.9,1.4,5,1.4,3.4-.4,4.4-1.1,1.5-1.7,1.5-2.9h0Z"></path></g></g><g><polygon class="cls-2" points="988.7 60.1 979.7 87.4 979.5 87.4 970.1 60.1 955.1 60.1 972.6 104.8 971.6 107.2 965.1 122.8 980 122.8 985.9 107.2 1003.6 60.1 988.7 60.1"></polygon><path class="cls-2" d="M915.3,60.1v5h-.2c-1.4-2.2-3.5-3.9-5.9-5-2.3-1.1-5.1-1.6-7.9-1.6s-5.9.6-8.5,1.6c-9,3.6-15,12.7-15,23.5s5.8,20.1,14.9,23.6c2.6,1,5.5,1.6,8.7,1.6s5.7-.6,8-1.6c2.7-1.2,4.8-2.9,5.8-5.1h.2v5.1h14.1v-47h-14.2ZM903.6,95.6c-6.5,0-11.7-5.3-11.7-11.9s5.1-12.1,11.5-12.1,11.9,5.3,11.9,11.9-5.2,12-11.8,12h0Z"></path><path class="cls-2" d="M862.4,78.3c-6.5-1.7-8.8-3-8.8-5.5s1.7-3.2,4.1-3.2,4.2.8,4.3,3.6h13.8c-.5-6.2-3.8-10.7-9-13.1l8.8-9.4h-13.6l-3.9,4.9-3.9-4.9h-13.6l8.5,9.4c-5.5,2.4-9.5,7.3-9.5,13.6s3.1,10.2,15,13.9c7,2.2,8.6,3.6,8.6,6.2s-2.5,3.7-4.9,3.7-4.9-1.4-5.3-4.3h-14c.7,6.7,4.6,11.7,10.5,14.1,2.5,1,5.5,1.6,8.6,1.6s6.1-.6,8.8-1.6c6.2-2.4,10.4-7.6,10.4-14.5s-3.6-11.4-14.8-14.4h0Z"></path><path class="cls-2" d="M956.4,44.4c-13.2,0-18.4,5-18.4,14.6v1.1h-5.2v10.7h5.2v36.4h14.1v-47.5c0-2.2.8-4.6,5-4.6h.9v-10.6h-1.6Z"></path></g><g><path class="cls-2" d="M814.6,56.4c-3.9-6.9-7.6-14-10.9-21.3-.9-2-1.8-4.1-2.7-6.2l-.8.7c4.7,3.2,8.8,6.9,12.7,11,.5.6,1.3,0,1.1-.7-1.9-5.3-3.2-10.9-3.8-16.5l-1.1.5c3.1,4.5,6.1,9.1,9.2,13.6.4.6,1.4,0,1.2-.6-1.1-5.9-2.3-11.8-3.4-17.7l-1.2.4c3.3,6.3,6.7,12.6,10,18.8.4.7,1.5.4,1.4-.5-1.5-6.9-3-13.8-4.5-20.7l-1,.6c2.2,1.7,3.5,4.4,4.6,6.9,1.1,2.7,1.9,5.5,3.3,8,.8,1.4,1.7,2.8,2.9,3.9.5.5,1.4,0,1.2-.6-1.1-7-2.2-13.9-3.3-20.9l-1.2.4c.8,1.3,1.5,2.7,2.3,4.1s1.5,2.7,2.3,4.1c1.5,2.7,3.1,5.4,4.6,8.1.4.7,1.4.3,1.3-.5-.3-3.5-.6-7.1-.9-10.6-.3-3.1-.6-6.1-.5-9.2,0-1.7.3-3.4.9-5h-1.3c4.4,7.9,8.9,15.7,13.3,23.5,1.2,2.2,2.5,4.4,3.8,6.6l.2-.9c-9.7,6.6-20,12.4-30.6,17.3-3,1.4-6.1,2.7-9.2,4-.9.4-.2,1.7.7,1.3,11-4.5,21.6-9.9,31.7-16.1,2.8-1.8,5.7-3.6,8.4-5.5.2-.2.3-.6.2-.9-4.4-7.8-8.9-15.6-13.3-23.4-1.2-2.2-2.5-4.4-3.8-6.6-.3-.5-1.1-.5-1.3,0-.9,3-1,6.1-.9,9.2.2,3.4.5,6.8.8,10.2.2,2,.3,4.1.5,6.1l1.3-.5c-1.6-2.7-3.2-5.4-4.7-8.1-.8-1.4-1.6-2.7-2.4-4s-1.6-2.7-2.3-4c-.3-.6-1.2-.3-1.2.4,1,7,2.1,13.9,3.1,20.9l1.2-.6c-4.3-4.1-4.9-10.4-7.9-15.3-.9-1.4-1.9-2.6-3.2-3.6-.4-.3-1.1.1-1,.6,1.5,6.9,2.9,13.8,4.3,20.8l1.4-.5c-3.4-6.3-6.8-12.5-10.2-18.8-.3-.6-1.3-.3-1.2.4,1.1,5.9,2.1,11.9,3.3,17.8l1.2-.6c-3.1-4.5-6.3-9-9.4-13.5-.4-.6-1.1,0-1.1.5.6,5.8,1.8,11.4,3.8,16.9l1.1-.7c-3.9-4.2-8.4-7.8-13.1-11-.5-.3-1,.2-.8.7,3,7.4,6.5,14.6,10.4,21.5,1.1,2,2.2,3.9,3.4,5.8.3.4,1,0,.7-.3h0l.4.3Z"></path><path class="cls-2" d="M798.6,30c3.4,8,7.3,15.8,11.7,23.3,1.2,2.2,2.5,4.3,3.9,6.4.2.3.7.2.6-.2-.3-1.6-.7-3.3-1-4.9l-.5.2c.6,1.4,2.1,2.2,3.6,2.4.7,0,1.5,0,2.2-.4.8-.4,1.3-1,1.8-1.7.5-.8,1-1.7,1.8-2.2.9-.7,2-.9,3.1-1,1.7-.2,3.5-.2,5.1-.9,1.3-.6,2.5-1.8,2.4-3.4l-.2.2c3.4-.5,6.8-1.4,10-2.9,1.2-.6,2.7-1.3,3.6-2.4.3-.4.7-1,.7-1.6s-.2-.7-.3-1c-.2-.5-.3-.9-.5-1.3l-.4.3c1.3,1.3,2.5,2.7,3.4,4.3,0,.2.5,0,.5-.2-.4-1.7-.7-3.3-1.1-5l-.4.2c.8.6,1.6,1.2,2.4,1.8.2,0,.4,0,.3-.2,0-.8,0-1.6.3-2.3h-.4c1.1,1.1,2.6,1.5,4,1.1.2,0,.2-.2.2-.3-2.3-4.4-4.5-8.8-6.7-13.2s-4.5-8.8-6.8-13.2c-1.3-2.5-2.6-5-3.9-7.5-.2-.3-.6-.2-.6.2,1.2,6.9,2,13.9,2.4,21,0,2,.2,4,.2,6h.8c-3.8-6.6-7.6-13-11.4-19.4-.2-.3-.7-.2-.7.2.9,6.6,1.7,13.1,2.6,19.7l.8-.3c-3-6.2-6.4-12.3-9.9-18.2-.2-.3-.7-.2-.7.1,0,4.1.3,8.2,1.2,12.1,0,.5.9.4.8-.1-.8-3.9-1.3-7.9-1.3-11.9h-.7c3.4,6.1,6.6,12.3,9.7,18.5.2.5.9.2.8-.3-.9-6.6-1.9-13.1-2.7-19.6l-.7.2c3.8,6.4,7.6,12.9,11.4,19.3.2.3.8.3.8-.1-.2-7.1-.8-14.1-1.9-21.1-.3-2-.6-4-1-6l-.6.2c4.5,8.8,9,17.6,13.6,26.4,1.3,2.5,2.6,5,3.9,7.5l.2-.3c-1.3.3-2.6,0-3.6-.9,0,0-.3,0-.3,0-.3.8-.5,1.7-.3,2.5l.3-.2c-.8-.6-1.6-1.2-2.4-1.8-.2,0-.4,0-.4.2.4,1.7.7,3.3,1.1,5l.5-.2c-1-1.6-2.1-3.1-3.5-4.4-.2-.2-.5,0-.4.3,0,.4.3.8.4,1.2,0,.3.3.8.3,1.1,0,.6-.5,1.1-1,1.5-1,.9-2.4,1.6-3.7,2.2-2.9,1.4-5.9,2.3-9.1,2.6,0,0-.2,0-.2.2,0,1.4-1,2.4-2.2,3-1.5.7-3.1.7-4.7.9-1.7.2-3.4.5-4.6,1.9-1,1.2-1.7,2.9-3.4,3.3s-3.5-.4-4.2-2c0-.3-.6,0-.5.2.3,1.6.6,3.3.9,4.9l.6-.2c-4.6-7.4-8.9-14.9-12.7-22.7-1.1-2.2-2.1-4.5-3.1-6.8,0-.2-.3,0-.3.1h0v-.5Z"></path></g><g><path class="cls-2" d="M1053.5,41.7c-3.4,4.2-6.5,8.7-9.5,13.3s-5.9,9.2-8.6,14c-1.5,2.7-3,5.4-4.5,8.1-.5.9.5,1.9,1.4,1.4,8.1-4.8,16.8-8.8,25.8-11.6l-.9-1.5c-9.6,11.2-16.8,24.2-21.1,38.3-1.2,4-2.2,8-2.9,12.1-.2,1.2,1.3,1.9,2,.8,9.6-15.2,19.2-30.4,28.7-45.6,2.7-4.2,5.3-8.5,8-12.7.4-.6,0-1.6-.9-1.5-7.5.7-14.9,2.2-22.1,4.4l1.2,1.6c5.6-8.8,12.4-16.7,20.3-23.5.7-.6,0-1.9-.7-1.8-6.3.4-12.2,2.3-17.7,5.4-1,.6,0,2.1.9,1.6,5.1-2.9,11-4.5,16.8-4.9-.2-.6-.5-1.2-.7-1.8-8,6.9-15,15-20.6,23.9-.5.8.3,1.8,1.2,1.6,7-2.2,14.2-3.7,21.5-4.4l-.9-1.5c-9.5,15.2-19.2,30.3-28.8,45.5-2.7,4.2-5.3,8.5-8,12.7l2,.8c2.4-14.3,7.7-28,15.8-40,2.3-3.4,4.7-6.6,7.4-9.7.6-.6,0-1.7-.9-1.5-9.3,2.6-18.2,6.4-26.4,11.5.5.5.9.9,1.4,1.4,4.9-9.7,10.5-19,16.5-28,1.7-2.6,3.5-5.1,5.2-7.6.4-.6-.5-1.3-.9-.7h0Z"></path><path class="cls-2" d="M1069.6,38.6c-2.3,5.2-4.5,10.3-6.9,15.5l1.1.5c1.6-4.5,3.3-9,5.5-13.3.3-.6-.6-1.2-1-.6-3.6,5.9-7.2,11.9-10.9,17.7l1,.4c.7-4.3,2.6-8.1,5.6-11.3l-1.1-.8c-3.4,4.4-6.9,8.8-10.1,13.3-.4.6.6,1.4,1,.8,3.6-4.3,6.9-8.9,10.2-13.4.5-.6-.6-1.4-1.1-.8-3.1,3.3-5.2,7.6-5.7,12.1,0,.6.8.7,1,.3,3.5-6,7.2-11.8,10.9-17.7l-1-.6c-2.3,4.3-4.3,8.8-5.7,13.5-.2.8.9,1,1.2.3,2.1-5.2,4.4-10.3,6.6-15.5.2-.5-.6-1-.8-.5h.2Z"></path><path class="cls-2" d="M1070.5,57.5c-.9,6.2-1.9,12.3-3,18.4l1.4.2v-11.9c0-4-1.2-1-1.3-.2-1,4.9-2,9.8-3,14.8h1.5c-1-3.3-1.3-6.9-.8-10.3,0-.9-1.3-1.4-1.5-.4-.6,3.7-1.3,7.3-2,11h1.6c-.9-2.2-1-4.6-.2-6.9l-1.7-.2c-.6,5.4-1.7,10.8-3.3,16.1l1.7.2c.2-2.4,0-4.9-.9-7.2-.3-.8-1.4-.8-1.7,0-1.5,4.2-2.9,8.4-4.4,12.6l1.7.2c0-2.6.3-5.2.4-7.8,0-.9-1.5-1.2-1.7-.2-.9,4.6-1.8,9.2-2.8,13.7h1.6c-.4-2.4-.8-4.8-1.2-7.2,0-.9-1.4-.7-1.6,0-1.4,4.6-2.9,9.1-4.4,13.7l1.5-.2c-.7-1.4-1.4-2.8-2.1-4.3-.4-.8-1.4-.3-1.5.4-.2,4.3-.9,8.6-1.9,12.8h1.5c-.8-2.1-1.5-4.2-2.2-6.4-.2-.7-1.3-.8-1.5,0-.9,3.9-2.1,7.7-3.6,11.5l1.3-.3c-1-1.3-2.7-1.8-4.2-1.3l1,1c2.5-15,8.3-29.4,16.8-41.9,2.4-3.6,5.1-7,7.9-10.2.6-.8-.2-1.9-1.1-1.4-8.8,4.7-17.8,9.2-26.7,13.8.4.4.7.7,1.1,1.1,4.5-9.8,9.6-19.4,15.1-28.8,1.6-2.7,3.1-5.3,4.7-7.9.5-.8-.4-1.6-1.2-1.2-2.5,1.2-5.1,2.3-7.6,3.4-.8.3-.2,1.7.6,1.4,10.2-3.6,20.4-7.2,30.7-10.8.9-.3.5-1.7-.4-1.4-10.2,3.6-20.5,7.1-30.7,10.7l.6,1.4c2.5-1.1,5-2.1,7.5-3.1l-1-1.3c-5.8,9.1-10.9,18.8-15.6,28.5-1.3,2.8-2.7,5.5-4,8.3-.3.7.4,1.5,1.1,1.1,8.9-4.6,17.8-9.2,26.8-13.7-.4-.5-.7-.9-1.1-1.4-10.3,11.4-17.8,25.4-22.1,40.2-1.2,4.2-2.2,8.5-2.9,12.8,0,.6.3,1.2,1,1,1.1-.3,2,0,2.7.9.4.5,1.1,0,1.3-.3,1.5-3.7,2.7-7.6,3.6-11.4h-1.5c.8,2.1,1.5,4.2,2.2,6.4.2.7,1.3.8,1.5,0,1.1-4.3,1.7-8.7,2-13.2l-1.5.4c.7,1.4,1.4,2.8,2.1,4.3.3.7,1.3.4,1.5-.2,1.5-4.6,2.9-9.1,4.4-13.7h-1.6c.4,2.4.8,4.8,1.2,7.2,0,.8,1.5.8,1.6,0,.9-4.6,1.8-9.2,2.8-13.7l-1.7-.2c0,2.6-.3,5.2-.4,7.8,0,1,1.4,1.1,1.7.2,1.5-4.2,2.9-8.4,4.4-12.6h-1.7c.8,2.2,1.1,4.4.8,6.7,0,1,1.4,1.2,1.7.2,1.7-5.4,2.8-10.9,3.4-16.5,0-1-1.4-1.1-1.7-.2-.9,2.6-.7,5.4.4,8,.3.6,1.4.5,1.5-.2.6-3.7,1.2-7.4,1.8-11l-1.5-.4c-.5,3.7-.3,7.5.8,11.1.2.7,1.3.8,1.5,0,.9-4.9,1.9-9.9,2.8-14.8l-1.3-.2v11.9c0,.8,1.3,1,1.4.2,1.1-6.2,2-12.4,2.6-18.7,0-.5-.9-.7-1,0h0v-.3Z"></path></g><path class="cls-2" d="M1522,77.9c1.9-6.6-3.7-12.2-10.4-16.2-10.6-6.4-24.1-10.2-37-13.4-30.1-7.3-62.1-10.8-93.6-13-30.7-2.1-61.7-2.8-92.5-2.1-16.8,0-33.5.4-50.2,1.3-16.5.9-33,2.2-49.3,4.2-16.1,1.9-32.2,4.4-47.6,8.5-6.7,1.7-14.9,4.4-22.3,7.8-.4,0-.8.2-1.2.4,2.8-1.4,5.7-2.7,8.7-3.8.6-.2,0-.9-.6-.7-4.7,1.7-9.1,3.8-13.1,6.2-7.9,2.9-15.2,6.6-20,11.9-4.9,5.5-5.5,12-1.4,17.9,2.3,3.3,5.8,6.1,9.7,8.5,10.1,13.8,34.9,19.5,54.8,22.5,16.4,2.5,33.2,3.9,49.9,4.9,16.9,1.1,33.9,1.8,50.9,2.1,35.2.7,70.5,0,105.6-2.1,32.9-2,66.3-4.7,98.2-10.9,12.5-2.4,25.2-5.4,36.4-10.3,6.3-2.7,13-6.5,16.2-11.4,2.6-2.1,4.5-4.3,5.4-6.7,1.5-1.7,2.7-3.6,3.3-5.6h0ZM1378.8,36.7c30.8,2,61.8,5.5,91.3,12.2,13.2,3,26.7,6.7,37.9,12.7,7.3,3.9,14.4,9.8,11.6,16.9,0,.2-.2.3-.3.5-.3-2.6-1.8-5.3-4.7-8.2-2.6-2.6-5.8-4.8-9.4-6.8-.3-.3-.6-.6-1-.9-7.3-5.9-18.1-9.4-28.2-12.1-22.9-6-47.6-8.8-72-10.4-19.6-2.5-39.3-4.4-59.2-5.6,11.3.4,22.7.9,33.9,1.7h0ZM1474.8,104.2c10.3-2.7,20.3-6.1,29.2-10.5,2.6-1.3,5.2-2.7,7.7-4.3,0,0,0,.2-.2.3-8.5,6.6-24.6,11.4-36.8,14.6h.1ZM1204.2,118.7c-28.8-2.9-58.8-6.9-85.1-16.3-5.6-2-11.3-4.3-16.3-7.3-1.3-1.7-2.4-3.6-3.2-5.6-2.3-6-1.6-12.6,1.2-18.4-1,3.3-.7,6.8,1.6,10.6,4.2,7.2,13.6,12.1,22.7,15.8,2.2.9,4.4,1.7,6.7,2.5,2.3.9,4.6,1.8,6.8,2.5,28.8,9.6,61.6,12.9,92.8,15.4,35.3,2.8,70.9,4.2,106.4,3.5,19.6-.4,39.3-1.4,58.8-3.5-4.6.5-9.1,1-13.7,1.4-59.1,5.5-119.7,5.3-178.7-.7h0ZM1279.2,34.9h4.7c18.7,0,37.4.5,56.1,1.6,11.8.7,23.5,1.6,35.2,2.7-30.9-1.3-61.9-1.5-92.9-.5-11.4.4-22.9.9-34.3,1.7-21.5.3-43,1.3-64.3,3.4l1.1-.2c30.8-5.4,62.7-7.7,94.3-8.6h.1ZM1432.1,46.2c15.1,2.4,30.1,5.1,44.6,9,8.8,2.4,18.4,5.3,26.3,9.4,2.5,2.1,4.3,4.6,5.1,7.3-1.7-1.4-3.6-2.8-5.5-3.9-10.3-6.3-23.2-10.3-35.9-13.3-30.2-7.1-62.3-9.7-93.8-11.5-30.4-1.8-60.9-2.8-91.4-3,33.5-1.1,67.2-.8,100.6.9,7.6.4,15.2.8,22.8,1.3,9.1,1.2,18.2,2.4,27.2,3.9h0ZM1437.7,45.5c11.1,1.5,22,3.3,32.6,5.8,8.1,1.9,16.4,4.2,23.7,7.7-4.1-1.5-8.3-2.8-12.3-4-14.2-4.1-29-7-43.9-9.5h0ZM1513.3,85.1c0,.4,0,.8-.2,1.2-4.2,3.3-9.6,5.9-14.5,8.1-7.7,3.4-16,6.1-24.6,8.4,1.5-.5,3-1,4.5-1.6,11.2-4.2,23.2-9.8,29.2-18.1,1.5-2.1,2.4-4.2,2.7-6.4,2,2.6,3.2,5.4,2.8,8.4h0ZM1175.6,45.8c14.1-1.5,28.3-2.6,42.5-3.2-11.2,1-22.4,2.3-33.5,3.7-1.4.2-.8,1.8.6,1.6,22.1-2.9,44.5-4.9,66.9-6.3,6.7,0,13.4,0,20.1,0,32.5,0,65,1.2,97.4,3,30.7,1.7,61.8,4.2,91.4,10.5,13.2,2.8,26.3,6.5,37.4,12.5,3.6,1.9,7.2,4.3,10.1,7.1,0,3.2-1.6,6.3-3.8,9-6.9,8.2-19.3,13.5-31,17.5-9.3,3.2-19.1,5.7-29,7.8-26.4,4.5-53.7,6.5-80.7,7.7-33.4,1.4-67.1,1.6-100.6.6-32.4-1-65.1-3.3-96.5-9.3-11.1-2.1-22.1-4.7-32.4-8.2-16.2-6.2-34.1-16.8-20.9-30,6.7-6.8,17.4-11.4,27.5-15.1,9.1-3.3,18.6-5.9,28.2-8,2.1-.2,4.2-.5,6.3-.7h0v-.2ZM1404.8,115.5c-22.9,2.8-46.1,4.2-69.3,4.6-28.2.5-56.5-.3-84.6-2.1,3.8.2,7.6.3,11.3.4,34.9,1.2,70.1,1,104.9-.6,12.5-.6,25.1-1.3,37.6-2.4h0ZM1136.2,54.9c-9.6,3.8-19.7,8.6-25.5,15.5-7,8.3-2.8,15.5,5.1,21.3-4.7-2.7-8.8-5.8-11.3-9.6-5.1-7.7-1.1-15.6,6.9-21.3,2.6-1.8,5.4-3.5,8.4-4.9,3.2-1,6.4-1.8,9.5-2.5,8.9-2.1,18-3.8,27.2-5.1-7,1.9-13.8,4.1-20.4,6.7h.1ZM1438.3,111.8c2.4-.5,4.8-1,7.2-1.5,5.8-1,11.5-2.1,17.2-3.3-13.9,3.2-28.1,5.8-42.4,7.8,6-.9,12-1.9,18-3.1h0ZM1515.3,84.3c0-3.7-1.8-7.2-4.7-10.2,0-2.1-.7-4.2-1.9-6.2,1.1.8,2.2,1.6,3.2,2.5,4.9,4.3,6.3,8.3,5.3,11.8-.6.7-1.2,1.4-1.9,2h0ZM1148.2,46.8c24.7-5.7,50.8-8.5,76.7-10.1-15.6,1.5-31.1,3.6-46.2,6.5-3.8.7-7.5,1.5-11.2,2.4-13.4,1.7-26.9,3.8-39.8,7.1,6.6-2.4,13.7-4.3,20.6-5.8h0ZM1113.4,58c0,0-.2,0-.3.2,0,0,.2,0,.3-.2h0ZM1093.6,87.5c-4.9-6.1-4.3-13.1,1.3-18.8,3.7-3.7,8.6-6.6,14.1-8.9-3.6,2.7-6.6,5.8-8.7,9.4-3.6,6.2-4.6,13.4-2.4,19.9.5,1.4,1.2,2.8,1.9,4.1-2.4-1.7-4.6-3.6-6.3-5.7h0ZM1161.5,117.4c-19.5-2.7-45-7.4-56.8-20.2,3.5,1.8,7.3,3.5,11,4.9,11.9,4.5,24.8,7.7,37.7,10.2,15.9,3.1,32.1,5.3,48.3,7.1,19.1,2,38.4,3.4,57.7,4.1-32.6-.6-65.8-1.8-97.9-6.2h0ZM1492.9,101.6c-11.7,4.5-24.6,7.4-37.4,9.7-16,2.9-32.3,5-48.8,6.6,22.1-2.7,43.9-6.4,65-11.7,9.2-2.3,24.8-6.3,35.7-12.3-4.1,3.2-9.6,5.7-14.5,7.7h0Z"></path><g class="cls-3"><g class="cls-3"><path class="cls-2" d="M1910,82.2h-8.4v18.7h-10.5v-51h19c6,0,10.7,1.3,14,4s4.9,6.5,4.9,11.4-.8,6.4-2.3,8.7c-1.5,2.3-3.8,4.2-6.9,5.6l11,20.9v.5h-11.3l-9.6-18.7h.1ZM1901.6,73.7h8.5c2.6,0,4.7-.7,6.1-2s2.2-3.2,2.2-5.6-.7-4.3-2.1-5.7-3.5-2.1-6.3-2.1h-8.4v15.3h0Z"></path><path class="cls-2" d="M1953.7,101.6c-5.6,0-10.1-1.7-13.6-5.1s-5.2-8-5.2-13.6v-1c0-3.8.7-7.2,2.2-10.2s3.6-5.3,6.3-6.9c2.7-1.6,5.8-2.4,9.2-2.4,5.2,0,9.3,1.6,12.3,4.9s4.5,7.9,4.5,13.9v4.1h-24.2c.3,2.5,1.3,4.5,3,6,1.6,1.5,3.7,2.2,6.3,2.2,3.9,0,7-1.4,9.1-4.2l5,5.6c-1.5,2.2-3.6,3.8-6.2,5s-5.5,1.8-8.6,1.8h-.1ZM1952.6,70.5c-2,0-3.6.7-4.9,2-1.2,1.4-2.1,3.3-2.4,5.8h14.1v-.8c0-2.3-.7-4-1.8-5.2-1.2-1.2-2.8-1.8-5-1.8h0Z"></path></g><g class="cls-3"><path class="cls-2" d="M1979.2,100.9v-30.5h-5.6v-7.4h5.6v-3.2c0-4.3,1.2-7.6,3.7-9.9,2.4-2.3,5.9-3.5,10.3-3.5s3.1.2,5.2.7v7.9c-.9-.2-2-.3-3.2-.3-3.8,0-5.7,1.8-5.7,5.4v3h7.5v7.4h-7.5v30.5h-10.3Z"></path></g><g class="cls-3"><path class="cls-2" d="M2019,101.6c-5.6,0-10.1-1.7-13.6-5.1s-5.2-8-5.2-13.6v-1c0-3.8.7-7.2,2.2-10.2s3.6-5.3,6.3-6.9c2.7-1.6,5.8-2.4,9.2-2.4,5.2,0,9.3,1.6,12.3,4.9s4.5,7.9,4.5,13.9v4.1h-24.2c.3,2.5,1.3,4.5,3,6,1.6,1.5,3.7,2.2,6.3,2.2,3.9,0,7-1.4,9.1-4.2l5,5.6c-1.5,2.2-3.6,3.8-6.2,5s-5.5,1.8-8.6,1.8h-.1ZM2017.9,70.5c-2,0-3.6.7-4.9,2-1.3,1.4-2.1,3.3-2.4,5.8h14.1v-.8c0-2.3-.7-4-1.8-5.2-1.2-1.2-2.8-1.8-5-1.8h0Z"></path></g><g class="cls-3"><path class="cls-2" d="M2062,72.5c-1.4-.2-2.6-.3-3.6-.3-3.8,0-6.3,1.3-7.5,3.9v24.8h-10.1v-37.9h9.6l.3,4.5c2-3.5,4.8-5.2,8.4-5.2s2.2.2,3.2.5v9.7h-.3Z"></path></g><g class="cls-3"><path class="cls-2" d="M2084.6,101.6c-5.6,0-10.1-1.7-13.6-5.1s-5.2-8-5.2-13.6v-1c0-3.8.7-7.2,2.2-10.2s3.6-5.3,6.3-6.9,5.8-2.4,9.2-2.4c5.2,0,9.3,1.6,12.3,4.9s4.5,7.9,4.5,13.9v4.1h-24.2c.3,2.5,1.3,4.5,3,6,1.6,1.5,3.7,2.2,6.3,2.2,3.9,0,7-1.4,9.1-4.2l5,5.6c-1.5,2.2-3.6,3.8-6.2,5-2.6,1.2-5.5,1.8-8.6,1.8h-.1ZM2083.5,70.5c-2,0-3.6.7-4.9,2-1.3,1.4-2.1,3.3-2.4,5.8h14.1v-.8c0-2.3-.7-4-1.8-5.2-1.2-1.2-2.8-1.8-5-1.8h0Z"></path><path class="cls-2" d="M2115.3,63l.3,4.4c2.7-3.4,6.3-5.1,10.9-5.1s7,1.2,9,3.5c2,2.4,3,5.9,3,10.6v24.5h-10.1v-24.3c0-2.1-.5-3.7-1.4-4.7s-2.5-1.5-4.7-1.5-5,1.2-6.4,3.6v26.7h-10.1v-37.9h9.5v.2Z"></path><path class="cls-2" d="M2162,93.5c1.9,0,3.4-.5,4.6-1.5,1.2-1,1.8-2.4,1.8-4.1h9.5c0,2.6-.7,4.9-2.1,7.1-1.4,2.1-3.3,3.8-5.7,5s-5,1.8-7.9,1.8c-5.4,0-9.7-1.7-12.8-5.2-3.1-3.4-4.7-8.2-4.7-14.3v-.7c0-5.8,1.6-10.5,4.7-14,3.1-3.5,7.4-5.2,12.8-5.2s8.5,1.3,11.4,4c2.9,2.7,4.3,6.3,4.4,10.8h-9.5c0-2-.7-3.6-1.8-4.8-1.2-1.2-2.7-1.9-4.6-1.9s-4.1.9-5.3,2.6-1.8,4.5-1.8,8.4v1.1c0,3.9.6,6.7,1.8,8.4,1.2,1.7,3,2.6,5.4,2.6h-.2Z"></path><path class="cls-2" d="M2201.1,101.6c-5.6,0-10.1-1.7-13.6-5.1s-5.2-8-5.2-13.6v-1c0-3.8.7-7.2,2.2-10.2s3.6-5.3,6.3-6.9,5.8-2.4,9.2-2.4c5.2,0,9.3,1.6,12.3,4.9s4.5,7.9,4.5,13.9v4.1h-24.2c.3,2.5,1.3,4.5,3,6,1.6,1.5,3.7,2.2,6.3,2.2,3.9,0,7-1.4,9.1-4.2l5,5.6c-1.5,2.2-3.6,3.8-6.2,5-2.6,1.2-5.5,1.8-8.6,1.8h-.1ZM2199.9,70.5c-2,0-3.6.7-4.9,2-1.2,1.4-2.1,3.3-2.4,5.8h14.1v-.8c0-2.3-.7-4-1.8-5.2-1.2-1.2-2.8-1.8-5-1.8h0Z"></path><path class="cls-2" d="M2243,90.4c0-1.2-.6-2.2-1.8-2.9-1.2-.7-3.2-1.3-5.9-1.9-9-1.9-13.5-5.7-13.5-11.5s1.4-6.2,4.2-8.4c2.8-2.3,6.4-3.4,11-3.4s8.7,1.1,11.6,3.4c2.9,2.3,4.3,5.2,4.3,8.8h-10.1c0-1.4-.5-2.6-1.4-3.6-.9-.9-2.4-1.4-4.4-1.4s-3,.4-4,1.2c-.9.8-1.4,1.8-1.4,2.9s.5,2,1.6,2.7,2.9,1.3,5.4,1.8,4.7,1.1,6.4,1.7c5.4,2,8,5.4,8,10.2s-1.5,6.3-4.5,8.4-6.8,3.2-11.5,3.2-6-.6-8.5-1.7-4.4-2.7-5.8-4.7-2.1-4.1-2.1-6.4h9.6c0,1.8.8,3.2,2,4.1s2.9,1.4,5,1.4,3.4-.4,4.4-1.1,1.5-1.7,1.5-2.9h-.1Z"></path></g></g><g><polygon class="cls-2" points="1755.8 60.1 1746.8 87.4 1746.7 87.4 1737.2 60.1 1722.2 60.1 1739.7 104.8 1738.7 107.2 1732.2 122.8 1747.2 122.8 1753 107.2 1770.7 60.1 1755.8 60.1"></polygon><path class="cls-2" d="M1682.4,60.1v5h-.2c-1.4-2.2-3.5-3.9-5.9-5-2.3-1.1-5.1-1.6-7.9-1.6s-5.9.6-8.5,1.6c-9,3.6-15,12.7-15,23.5s5.8,20.1,14.9,23.6c2.6,1,5.5,1.6,8.7,1.6s5.7-.6,8-1.6c2.7-1.2,4.8-2.9,5.8-5.1h.2v5.1h14.1v-47h-14.2ZM1670.7,95.6c-6.5,0-11.7-5.3-11.7-11.9s5.1-12.1,11.5-12.1,11.9,5.3,11.9,11.9-5.2,12-11.8,12h0Z"></path><path class="cls-2" d="M1629.5,78.3c-6.5-1.7-8.8-3-8.8-5.5s1.7-3.2,4.1-3.2,4.2.8,4.3,3.6h13.8c-.4-6.2-3.8-10.7-9-13.1l8.8-9.4h-13.6l-3.9,4.9-3.9-4.9h-13.6l8.5,9.4c-5.5,2.4-9.6,7.3-9.6,13.6s3.1,10.2,15,13.9c7,2.2,8.6,3.6,8.6,6.2s-2.5,3.7-4.9,3.7-4.9-1.4-5.3-4.3h-14c.7,6.7,4.6,11.7,10.5,14.1,2.5,1,5.4,1.6,8.6,1.6s6.1-.6,8.8-1.6c6.2-2.4,10.4-7.6,10.4-14.5s-3.6-11.4-14.8-14.4h0Z"></path><path class="cls-2" d="M1723.5,44.4c-13.2,0-18.4,5-18.4,14.6v1.1h-5.2v10.7h5.2v36.4h14.1v-47.5c0-2.2.8-4.6,5-4.6h.9v-10.6h-1.6Z"></path></g><g><path class="cls-2" d="M1581.7,56.4c-3.9-6.9-7.6-14-10.9-21.3-.9-2-1.8-4.1-2.7-6.2l-.8.7c4.7,3.2,8.8,6.9,12.7,11,.5.6,1.3,0,1.1-.7-1.9-5.3-3.2-10.9-3.8-16.5l-1.1.5c3.1,4.5,6.1,9.1,9.2,13.6.4.6,1.4,0,1.2-.6-1.1-5.9-2.3-11.8-3.4-17.7l-1.2.4c3.3,6.3,6.7,12.6,10.1,18.8.4.7,1.6.4,1.4-.5-1.5-6.9-3-13.8-4.5-20.7l-.9.6c2.2,1.7,3.5,4.4,4.6,6.9,1.1,2.7,1.9,5.5,3.3,8,.8,1.4,1.7,2.8,2.9,3.9.5.5,1.4,0,1.2-.6-1.1-7-2.2-13.9-3.3-20.9l-1.2.4c.8,1.3,1.6,2.7,2.3,4.1s1.5,2.7,2.3,4.1c1.5,2.7,3.1,5.4,4.6,8.1.4.7,1.4.3,1.3-.5-.3-3.5-.6-7.1-.9-10.6-.3-3.1-.6-6.1-.4-9.2,0-1.7.3-3.4.9-5h-1.3c4.4,7.9,8.9,15.7,13.3,23.5,1.2,2.2,2.5,4.4,3.8,6.6l.2-.9c-9.7,6.6-20,12.4-30.6,17.3-3,1.4-6.1,2.7-9.2,4-.9.4-.2,1.7.7,1.3,11-4.5,21.6-9.9,31.7-16.1,2.8-1.8,5.7-3.6,8.4-5.5.2-.2.3-.6.2-.9-4.4-7.8-8.9-15.6-13.3-23.4-1.2-2.2-2.5-4.4-3.8-6.6-.3-.5-1.1-.5-1.3,0-.9,3-1.1,6.1-.9,9.2.2,3.4.5,6.8.8,10.2.2,2,.3,4.1.5,6.1l1.3-.5c-1.6-2.7-3.2-5.4-4.7-8.1-.8-1.4-1.6-2.7-2.4-4s-1.6-2.7-2.3-4c-.3-.6-1.2-.3-1.2.4,1,7,2.1,13.9,3.1,20.9l1.2-.6c-4.3-4.1-4.9-10.4-7.9-15.3-.9-1.4-1.9-2.6-3.2-3.6-.4-.3-1.1.1-.9.6,1.4,6.9,2.9,13.8,4.3,20.8l1.4-.5c-3.4-6.3-6.8-12.5-10.2-18.8-.3-.6-1.3-.3-1.2.4,1.1,5.9,2.1,11.9,3.3,17.8l1.2-.6c-3.1-4.5-6.3-9-9.4-13.5-.4-.6-1.1,0-1.1.5.6,5.8,1.8,11.4,3.8,16.9l1.1-.7c-3.9-4.2-8.4-7.8-13.1-11-.5-.3-.9.2-.8.7,3,7.4,6.5,14.6,10.4,21.5,1.1,2,2.2,3.9,3.4,5.8.3.4,1,0,.7-.3h0v.3Z"></path><path class="cls-2" d="M1565.7,30c3.4,8,7.3,15.8,11.7,23.3,1.2,2.2,2.5,4.3,3.9,6.4.2.3.7.2.6-.2-.3-1.6-.7-3.3-1-4.9l-.5.2c.6,1.4,2.1,2.2,3.6,2.4.7,0,1.5,0,2.2-.4.8-.4,1.3-1,1.8-1.7.5-.8,1-1.7,1.8-2.2.9-.7,2-.9,3.1-1,1.7-.2,3.5-.2,5.1-.9,1.3-.6,2.5-1.8,2.4-3.4l-.2.2c3.4-.5,6.8-1.4,9.9-2.9,1.2-.6,2.7-1.3,3.6-2.4.3-.4.7-1,.7-1.6s-.2-.7-.3-1c-.2-.5-.3-.9-.5-1.3l-.4.3c1.3,1.3,2.4,2.7,3.4,4.3,0,.2.5,0,.5-.2-.4-1.7-.7-3.3-1.1-5l-.4.2c.8.6,1.6,1.2,2.4,1.8.2,0,.4,0,.3-.2,0-.8,0-1.6.3-2.3h-.4c1.1,1.1,2.6,1.5,4,1.1.2,0,.2-.2.2-.3-2.3-4.4-4.5-8.8-6.7-13.2s-4.5-8.8-6.8-13.2c-1.3-2.5-2.6-5-3.9-7.5-.2-.3-.6-.2-.6.2,1.2,6.9,2,13.9,2.4,21,0,2,.2,4,.2,6h.8c-3.8-6.6-7.6-13-11.4-19.4-.2-.3-.7-.2-.7.2.9,6.6,1.7,13.1,2.6,19.7l.8-.3c-3-6.2-6.4-12.3-9.9-18.2-.2-.3-.7-.2-.7.1,0,4.1.3,8.2,1.2,12.1,0,.5.9.4.8-.1-.8-3.9-1.3-7.9-1.3-11.9h-.7c3.4,6.1,6.6,12.3,9.7,18.5.2.5.9.2.8-.3-.9-6.6-1.9-13.1-2.7-19.6l-.7.2c3.8,6.4,7.6,12.9,11.4,19.3.2.3.8.3.8-.1-.2-7.1-.8-14.1-1.9-21.1-.3-2-.6-4-1-6l-.6.2c4.5,8.8,9,17.6,13.6,26.4,1.3,2.5,2.6,5,3.9,7.5l.2-.3c-1.3.3-2.6,0-3.6-.9,0,0-.3,0-.3,0-.3.8-.4,1.7-.3,2.5l.3-.2c-.8-.6-1.6-1.2-2.4-1.8-.2,0-.4,0-.4.2.4,1.7.7,3.3,1.1,5l.5-.2c-1-1.6-2.1-3.1-3.5-4.4-.2-.2-.5,0-.4.3,0,.4.3.8.4,1.2,0,.3.3.8.3,1.1,0,.6-.5,1.1-.9,1.5-1,.9-2.4,1.6-3.7,2.2-2.9,1.4-5.9,2.3-9.1,2.6,0,0-.2,0-.2.2,0,1.4-1,2.4-2.2,3-1.5.7-3.1.7-4.7.9-1.7.2-3.4.5-4.6,1.9-1,1.2-1.7,2.9-3.4,3.3s-3.5-.4-4.2-2c0-.3-.6,0-.5.2.3,1.6.6,3.3.9,4.9l.6-.2c-4.6-7.4-8.9-14.9-12.7-22.7-1.1-2.2-2.1-4.5-3.1-6.8,0-.2-.3,0-.3.1h0v-.5Z"></path></g><g><polygon class="cls-2" points="2516.5 60.1 2507.5 87.4 2507.3 87.4 2497.9 60.1 2482.9 60.1 2500.4 104.8 2499.4 107.2 2492.9 122.8 2507.8 122.8 2513.7 107.2 2531.4 60.1 2516.5 60.1"></polygon><path class="cls-2" d="M2443.1,60.1v5h-.2c-1.4-2.2-3.5-3.9-5.9-5s-5.1-1.6-7.9-1.6-5.9.6-8.5,1.6c-9,3.6-15,12.7-15,23.5s5.8,20.1,14.9,23.6c2.6,1,5.5,1.6,8.7,1.6s5.6-.6,8-1.6c2.6-1.2,4.8-2.9,5.8-5.1h.2v5.1h14.1v-47h-14.2ZM2431.4,95.6c-6.5,0-11.7-5.3-11.7-11.9s5.1-12.1,11.5-12.1,11.9,5.3,11.9,11.9-5.2,12-11.8,12h.1Z"></path><path class="cls-2" d="M2390.2,78.3c-6.5-1.7-8.8-3-8.8-5.5s1.7-3.2,4.1-3.2,4.2.8,4.3,3.6h13.8c-.4-6.2-3.8-10.7-9-13.1l8.8-9.4h-13.6l-3.9,4.9-3.9-4.9h-13.6l8.5,9.4c-5.5,2.4-9.6,7.3-9.6,13.6s3.1,10.2,15,13.9c7,2.2,8.6,3.6,8.6,6.2s-2.5,3.7-4.9,3.7-4.9-1.4-5.3-4.3h-14c.7,6.7,4.6,11.7,10.5,14.1,2.5,1,5.4,1.6,8.6,1.6s6.1-.6,8.8-1.6c6.2-2.4,10.4-7.6,10.4-14.5s-3.6-11.4-14.8-14.4h0Z"></path><path class="cls-2" d="M2484.2,44.4c-13.2,0-18.4,5-18.4,14.6v1.1h-5.2v10.7h5.2v36.4h14.1v-47.5c0-2.2.9-4.6,5-4.6h.9v-10.6h-1.6Z"></path></g><g><path class="cls-2" d="M2342.4,56.4c-3.9-6.9-7.6-14-10.9-21.3-.9-2-1.8-4.1-2.7-6.2l-.8.7c4.7,3.2,8.8,6.9,12.7,11,.5.6,1.4,0,1.1-.7-1.9-5.3-3.2-10.9-3.8-16.5l-1.1.5c3.1,4.5,6.1,9.1,9.2,13.6.4.6,1.4,0,1.2-.6-1.1-5.9-2.4-11.8-3.4-17.7l-1.2.4c3.4,6.3,6.6,12.6,10.1,18.8.4.7,1.6.4,1.4-.5-1.5-6.9-3-13.8-4.5-20.7l-.9.6c2.2,1.7,3.5,4.4,4.6,6.9,1.1,2.7,1.9,5.5,3.3,8,.8,1.4,1.7,2.8,2.9,3.9.5.5,1.4,0,1.2-.6-1.1-7-2.1-13.9-3.3-20.9l-1.2.4c.8,1.3,1.6,2.7,2.3,4.1s1.5,2.7,2.3,4.1c1.5,2.7,3.1,5.4,4.6,8.1.4.7,1.4.3,1.4-.5-.3-3.5-.6-7.1-.9-10.6-.3-3.1-.6-6.1-.4-9.2,0-1.7.4-3.4.9-5h-1.3c4.4,7.9,8.9,15.7,13.3,23.5,1.2,2.2,2.5,4.4,3.8,6.6l.2-.9c-9.7,6.6-20,12.4-30.6,17.3-3,1.4-6.1,2.7-9.2,4-.9.4-.2,1.7.7,1.3,11-4.5,21.6-9.9,31.7-16.1,2.9-1.8,5.6-3.6,8.4-5.5.2-.2.3-.6.2-.9-4.4-7.8-8.9-15.6-13.3-23.4-1.2-2.2-2.5-4.4-3.8-6.6-.3-.5-1.1-.5-1.3,0-.9,3-1.1,6.1-.9,9.2.2,3.4.5,6.8.8,10.2.2,2,.4,4.1.5,6.1l1.4-.5c-1.6-2.7-3.1-5.4-4.7-8.1-.8-1.4-1.6-2.7-2.4-4s-1.6-2.7-2.4-4c-.3-.6-1.2-.3-1.2.4,1,7,2.1,13.9,3.1,20.9l1.2-.6c-4.3-4.1-4.9-10.4-7.9-15.3-.9-1.4-1.9-2.6-3.2-3.6-.4-.3-1.1.1-.9.6,1.4,6.9,2.9,13.8,4.3,20.8l1.4-.5c-3.4-6.3-6.8-12.5-10.2-18.8-.3-.6-1.3-.3-1.2.4,1.1,5.9,2.1,11.9,3.3,17.8l1.2-.6c-3.1-4.5-6.3-9-9.4-13.5-.4-.6-1.1,0-1.1.5.6,5.8,1.8,11.4,3.8,16.9l1.1-.7c-3.9-4.2-8.4-7.8-13.1-11-.5-.3-.9.2-.8.7,3,7.4,6.5,14.6,10.4,21.5,1.1,2,2.2,3.9,3.4,5.8.3.4,1,0,.7-.3h0v.3Z"></path><path class="cls-2" d="M2326.4,30c3.4,8,7.3,15.8,11.7,23.3,1.2,2.2,2.5,4.3,3.9,6.4.2.3.7.2.6-.2-.3-1.6-.6-3.3-1-4.9l-.5.2c.6,1.4,2.1,2.2,3.6,2.4.7,0,1.5,0,2.1-.4.8-.4,1.3-1,1.8-1.7.5-.8,1-1.7,1.8-2.2.9-.7,2-.9,3.1-1,1.7-.2,3.5-.2,5.1-.9,1.3-.6,2.5-1.8,2.4-3.4l-.2.2c3.4-.5,6.8-1.4,9.9-2.9,1.2-.6,2.7-1.3,3.6-2.4.3-.4.7-1,.6-1.6,0-.3-.2-.7-.3-1-.2-.5-.3-.9-.5-1.3l-.4.3c1.3,1.3,2.4,2.7,3.4,4.3.1.2.5,0,.5-.2-.4-1.7-.7-3.3-1.1-5l-.4.2c.8.6,1.6,1.2,2.4,1.8.2,0,.4,0,.4-.2-.1-.8,0-1.6.3-2.3h-.4c1.1,1.1,2.6,1.5,4,1.1.1,0,.2-.2.2-.3-2.3-4.4-4.5-8.8-6.7-13.2s-4.5-8.8-6.8-13.2c-1.3-2.5-2.6-5-3.9-7.5-.2-.3-.6-.2-.6.2,1.2,6.9,2,13.9,2.4,21,.1,2,.2,4,.2,6h.8c-3.8-6.6-7.6-13-11.4-19.4-.2-.3-.7-.2-.7.2.9,6.6,1.7,13.1,2.6,19.7l.8-.3c-3-6.2-6.4-12.3-9.9-18.2-.2-.3-.6-.2-.6.1,0,4.1.3,8.2,1.2,12.1.1.5.9.4.8-.1-.8-3.9-1.3-7.9-1.3-11.9h-.6c3.4,6.1,6.6,12.3,9.7,18.5.2.5.9.2.8-.3-.9-6.6-1.9-13.1-2.7-19.6l-.7.2c3.8,6.4,7.6,12.9,11.4,19.3.2.3.8.3.8-.1-.2-7.1-.9-14.1-1.9-21.1-.3-2-.6-4-1-6l-.6.2c4.5,8.8,9,17.6,13.6,26.4,1.3,2.5,2.6,5,3.9,7.5l.2-.3c-1.3.3-2.6,0-3.6-.9-.1,0-.3,0-.4,0-.3.8-.4,1.7-.3,2.5l.4-.2c-.8-.6-1.6-1.2-2.4-1.8-.2,0-.4,0-.4.2.4,1.7.7,3.3,1.1,5l.5-.2c-1-1.6-2.1-3.1-3.5-4.4-.2-.2-.5,0-.4.3.1.4.3.8.4,1.2.1.3.4.8.3,1.1,0,.6-.5,1.1-.9,1.5-1,.9-2.4,1.6-3.7,2.2-2.9,1.4-5.9,2.3-9.1,2.6,0,0-.2,0-.2.2,0,1.4-1,2.4-2.2,3-1.5.7-3.1.7-4.7.9-1.7.2-3.4.5-4.6,1.9-1,1.2-1.7,2.9-3.4,3.3s-3.5-.4-4.2-2c-.1-.3-.6,0-.5.2.3,1.6.6,3.3.9,4.9l.6-.2c-4.6-7.4-8.9-14.9-12.7-22.7-1.1-2.2-2.1-4.5-3.1-6.8,0-.2-.3,0-.3.1h0v-.5Z"></path></g><g><path class="cls-2" d="M1820.6,41.7c-3.4,4.2-6.5,8.7-9.5,13.3s-5.9,9.2-8.6,14c-1.5,2.7-3,5.4-4.5,8.1-.5.9.5,1.9,1.4,1.4,8.1-4.8,16.8-8.8,25.8-11.6l-.9-1.5c-9.6,11.2-16.8,24.2-21.1,38.3-1.2,4-2.2,8-2.9,12.1-.2,1.2,1.3,1.9,2,.8,9.6-15.2,19.2-30.4,28.7-45.6,2.7-4.2,5.3-8.5,8-12.7.4-.6,0-1.6-.9-1.5-7.5.7-14.9,2.2-22.1,4.4l1.2,1.6c5.6-8.8,12.4-16.7,20.3-23.5.7-.6,0-1.9-.7-1.8-6.3.4-12.2,2.3-17.7,5.4-1,.6,0,2.1.9,1.6,5.1-2.9,11-4.5,16.8-4.9-.2-.6-.5-1.2-.7-1.8-8,6.9-15,15-20.6,23.9-.5.8.3,1.8,1.2,1.6,7-2.2,14.2-3.7,21.5-4.4l-.9-1.5c-9.5,15.2-19.2,30.3-28.8,45.5-2.7,4.2-5.3,8.5-8,12.7l2,.8c2.4-14.3,7.7-28,15.8-40,2.3-3.4,4.7-6.6,7.4-9.7.6-.6,0-1.7-.9-1.5-9.3,2.6-18.2,6.4-26.4,11.5.5.5.9.9,1.4,1.4,4.9-9.7,10.5-19,16.5-28,1.7-2.6,3.5-5.1,5.2-7.6.4-.6-.5-1.3-.9-.7h0Z"></path><path class="cls-2" d="M1836.7,38.6c-2.3,5.2-4.5,10.3-6.9,15.5l1.1.5c1.6-4.5,3.3-9,5.5-13.3.3-.6-.6-1.2-1-.6-3.6,5.9-7.2,11.9-10.9,17.7l1,.4c.7-4.3,2.6-8.1,5.6-11.3l-1.1-.8c-3.4,4.4-6.9,8.8-10.1,13.3-.4.6.6,1.4,1,.8,3.6-4.3,6.9-8.9,10.2-13.4.5-.6-.6-1.4-1.1-.8-3.1,3.3-5.2,7.6-5.7,12.1,0,.6.8.7,1,.3,3.5-6,7.2-11.8,10.9-17.7l-1-.6c-2.3,4.3-4.3,8.8-5.7,13.5-.2.8.9,1,1.2.3,2.1-5.2,4.4-10.3,6.6-15.5.2-.5-.6-1-.8-.5h.2Z"></path><path class="cls-2" d="M1837.6,57.5c-.9,6.2-1.9,12.3-3,18.4l1.4.2v-11.9c0-4-1.2-1-1.3-.2-1,4.9-2,9.8-3,14.8h1.5c-1-3.3-1.3-6.9-.8-10.3,0-.9-1.3-1.4-1.5-.4-.6,3.7-1.3,7.3-2,11h1.6c-.9-2.2-1-4.6-.2-6.9l-1.7-.2c-.6,5.4-1.7,10.8-3.3,16.1l1.7.2c.2-2.4,0-4.9-.9-7.2-.3-.8-1.4-.8-1.7,0-1.5,4.2-2.9,8.4-4.4,12.6l1.7.2c0-2.6.3-5.2.4-7.8,0-.9-1.5-1.2-1.7-.2-.9,4.6-1.8,9.2-2.8,13.7h1.6c-.4-2.4-.8-4.8-1.2-7.2,0-.9-1.4-.7-1.6,0-1.4,4.6-2.9,9.1-4.4,13.7l1.5-.2c-.7-1.4-1.4-2.8-2.1-4.3-.4-.8-1.4-.3-1.5.4-.2,4.3-.9,8.6-1.9,12.8h1.5c-.8-2.1-1.5-4.2-2.2-6.4-.2-.7-1.3-.8-1.5,0-.9,3.9-2.1,7.7-3.6,11.5l1.3-.3c-1-1.3-2.7-1.8-4.2-1.3l1,1c2.5-15,8.3-29.4,16.8-41.9,2.4-3.6,5.1-7,7.9-10.2.6-.8-.2-1.9-1.1-1.4-8.8,4.7-17.8,9.2-26.7,13.8.4.4.7.7,1.1,1.1,4.5-9.8,9.6-19.4,15.1-28.8,1.6-2.7,3.1-5.3,4.7-7.9.5-.8-.4-1.6-1.2-1.2-2.5,1.2-5.1,2.3-7.6,3.4-.8.3-.2,1.7.6,1.4,10.2-3.6,20.4-7.2,30.7-10.8.9-.3.5-1.7-.4-1.4-10.2,3.6-20.5,7.1-30.7,10.7l.6,1.4c2.5-1.1,5-2.1,7.5-3.1l-1-1.3c-5.8,9.1-10.9,18.8-15.6,28.5-1.3,2.8-2.7,5.5-4,8.3-.3.7.4,1.5,1.1,1.1,8.9-4.6,17.8-9.2,26.8-13.7l-1.1-1.4c-10.3,11.4-17.8,25.4-22.1,40.2-1.2,4.2-2.2,8.5-2.9,12.8,0,.6.3,1.2,1,1,1.1-.3,2,0,2.7.9.4.5,1.1,0,1.3-.3,1.5-3.7,2.7-7.6,3.6-11.4h-1.5c.8,2.1,1.5,4.2,2.2,6.4.2.7,1.3.8,1.5,0,1.1-4.3,1.7-8.7,2-13.2l-1.5.4c.7,1.4,1.4,2.8,2.1,4.3.3.7,1.3.4,1.5-.2,1.5-4.6,2.9-9.1,4.4-13.7h-1.6c.4,2.4.8,4.8,1.2,7.2,0,.8,1.5.8,1.6,0,.9-4.6,1.8-9.2,2.8-13.7l-1.7-.2c0,2.6-.3,5.2-.4,7.8,0,1,1.4,1.1,1.7.2,1.5-4.2,2.9-8.4,4.4-12.6h-1.7c.8,2.2,1.1,4.4.8,6.7,0,1,1.4,1.2,1.7.2,1.7-5.4,2.8-10.9,3.4-16.5,0-1-1.4-1.1-1.7-.2-.9,2.6-.7,5.4.4,8,.3.6,1.4.5,1.5-.2.6-3.7,1.2-7.4,1.8-11l-1.5-.4c-.5,3.7-.3,7.5.8,11.1.2.7,1.3.8,1.5,0,.9-4.9,1.9-9.9,2.8-14.8l-1.3-.2v11.9c0,.8,1.3,1,1.4.2,1.1-6.2,2-12.4,2.6-18.7,0-.5-.9-.7-1,0h0v-.3Z"></path></g><path class="cls-2" d="M2289.1,77.9c1.9-6.6-3.7-12.2-10.4-16.2-10.6-6.4-24.1-10.2-37-13.4-30.1-7.3-62.1-10.8-93.6-13-30.7-2.1-61.7-2.8-92.5-2.1-16.8,0-33.5.4-50.2,1.3-16.5.9-33,2.2-49.3,4.2-16.1,1.9-32.2,4.4-47.6,8.5-6.7,1.7-14.9,4.4-22.3,7.8-.4,0-.8.2-1.2.4,2.8-1.4,5.7-2.7,8.7-3.8.6-.2,0-.9-.6-.7-4.7,1.7-9.1,3.8-13.1,6.2-7.9,2.9-15.2,6.6-20,11.9-4.9,5.5-5.5,12-1.4,17.9,2.3,3.3,5.8,6.1,9.7,8.5,10.1,13.8,34.9,19.5,54.8,22.5,16.4,2.5,33.2,3.9,49.9,4.9,16.9,1.1,33.9,1.8,50.9,2.1,35.2.7,70.5,0,105.5-2.1,32.9-2,66.3-4.7,98.2-10.9,12.5-2.4,25.2-5.4,36.4-10.3,6.3-2.7,13-6.5,16.2-11.4,2.6-2.1,4.5-4.3,5.4-6.7,1.5-1.7,2.7-3.6,3.3-5.6h.2ZM2146,36.7c30.8,2,61.8,5.5,91.3,12.2,13.1,3,26.7,6.7,37.9,12.7,7.3,3.9,14.4,9.8,11.6,16.9,0,.2-.2.3-.3.5-.4-2.6-1.8-5.3-4.7-8.2-2.6-2.6-5.8-4.8-9.4-6.8-.3-.3-.6-.6-1-.9-7.3-5.9-18.1-9.4-28.2-12.1-22.9-6-47.6-8.8-72-10.4-19.6-2.5-39.3-4.4-59.2-5.6,11.3.4,22.6.9,33.9,1.7h0ZM2241.9,104.2c10.3-2.7,20.3-6.1,29.2-10.5,2.6-1.3,5.2-2.7,7.7-4.3,0,0-.1.2-.2.3-8.5,6.6-24.6,11.4-36.8,14.6h.1ZM1971.3,118.7c-28.8-2.9-58.8-6.9-85.1-16.3-5.6-2-11.3-4.3-16.3-7.3-1.3-1.7-2.4-3.6-3.2-5.6-2.3-6-1.6-12.6,1.2-18.4-1,3.3-.7,6.8,1.6,10.6,4.2,7.2,13.6,12.1,22.7,15.8,2.2.9,4.4,1.7,6.7,2.5,2.3.9,4.6,1.8,6.8,2.5,28.8,9.6,61.6,12.9,92.8,15.4,35.3,2.8,70.9,4.2,106.4,3.5,19.6-.4,39.3-1.4,58.8-3.5-4.6.5-9.1,1-13.7,1.4-59.1,5.5-119.7,5.3-178.7-.7h0ZM2046.3,34.9h4.7c18.7,0,37.4.5,56.1,1.6,11.8.7,23.5,1.6,35.2,2.7-30.9-1.3-61.9-1.5-92.9-.5-11.4.4-22.9.9-34.3,1.7-21.5.3-43,1.3-64.3,3.4l1.1-.2c30.8-5.4,62.7-7.7,94.3-8.6h0ZM2199.2,46.2c15.1,2.4,30.1,5.1,44.6,9,8.9,2.4,18.4,5.3,26.3,9.4,2.5,2.1,4.4,4.6,5.1,7.3-1.7-1.4-3.6-2.8-5.5-3.9-10.3-6.3-23.2-10.3-35.9-13.3-30.2-7.1-62.3-9.7-93.8-11.5-30.4-1.8-60.9-2.8-91.4-3,33.5-1.1,67.2-.8,100.6.9,7.6.4,15.2.8,22.8,1.3,9.1,1.2,18.2,2.4,27.2,3.9h0ZM2204.8,45.5c11.1,1.5,22,3.3,32.6,5.8,8.1,1.9,16.4,4.2,23.6,7.7-4.1-1.5-8.3-2.8-12.3-4-14.2-4.1-29-7-43.9-9.5h0ZM2280.4,85.1c0,.4-.1.8-.2,1.2-4.2,3.3-9.6,5.9-14.5,8.1-7.7,3.4-16,6.1-24.6,8.4,1.5-.5,3-1,4.5-1.6,11.2-4.2,23.2-9.8,29.2-18.1,1.5-2.1,2.4-4.2,2.7-6.4,2,2.6,3.2,5.4,2.9,8.4h0ZM1942.7,45.8c14.1-1.5,28.3-2.6,42.5-3.2-11.2,1-22.4,2.3-33.5,3.7-1.4.2-.8,1.8.6,1.6,22.1-2.9,44.5-4.9,66.9-6.3,6.7,0,13.4,0,20.1,0,32.5,0,65,1.2,97.4,3,30.7,1.7,61.8,4.2,91.4,10.5,13.2,2.8,26.3,6.5,37.4,12.5,3.6,1.9,7.2,4.3,10.1,7.1,0,3.2-1.6,6.3-3.8,9-6.9,8.2-19.3,13.5-31,17.5-9.3,3.2-19.1,5.7-29,7.8-26.4,4.5-53.7,6.5-80.7,7.7-33.4,1.4-67.1,1.6-100.6.6-32.4-1-65.1-3.3-96.5-9.3-11.1-2.1-22.1-4.7-32.4-8.2-16.2-6.2-34.1-16.8-20.9-30,6.7-6.8,17.4-11.4,27.5-15.1,9.1-3.3,18.6-5.9,28.2-8,2.1-.2,4.2-.5,6.3-.7h0v-.2ZM2172,115.5c-22.9,2.8-46.1,4.2-69.3,4.6-28.2.5-56.5-.3-84.6-2.1,3.8.2,7.6.3,11.3.4,34.9,1.2,70.1,1,104.9-.6,12.5-.6,25.1-1.3,37.6-2.4h0ZM1903.3,54.9c-9.6,3.8-19.7,8.6-25.5,15.5-7,8.3-2.8,15.5,5.1,21.3-4.7-2.7-8.8-5.8-11.3-9.6-5.1-7.7-1.1-15.6,6.9-21.3,2.6-1.8,5.4-3.5,8.4-4.9,3.2-1,6.4-1.8,9.5-2.5,8.9-2.1,18-3.8,27.2-5.1-7,1.9-13.8,4.1-20.4,6.7h.1ZM2205.4,111.8c2.4-.5,4.8-1,7.2-1.5,5.8-1,11.5-2.1,17.2-3.3-13.9,3.2-28.1,5.8-42.4,7.8,6-.9,12-1.9,18-3ZM2282.4,84.3c.1-3.7-1.8-7.2-4.7-10.2-.1-2.1-.7-4.2-1.9-6.2,1.1.8,2.2,1.6,3.2,2.5,4.9,4.3,6.3,8.3,5.3,11.8-.6.7-1.2,1.4-1.9,2h0ZM1915.3,46.8c24.7-5.7,50.8-8.5,76.7-10.1-15.6,1.5-31.1,3.6-46.2,6.5-3.8.7-7.5,1.5-11.2,2.4-13.4,1.7-26.9,3.8-39.8,7.1,6.6-2.4,13.7-4.3,20.6-5.8h0ZM1880.5,58c0,0-.2,0-.3.2,0,0,.2,0,.3-.2h0ZM1860.7,87.5c-4.9-6.1-4.3-13.1,1.3-18.8,3.7-3.7,8.6-6.6,14.1-8.9-3.6,2.7-6.6,5.8-8.7,9.4-3.6,6.2-4.6,13.4-2.4,19.9.5,1.4,1.2,2.8,1.9,4.1-2.4-1.7-4.6-3.6-6.3-5.7h0ZM1928.6,117.4c-19.5-2.7-45-7.4-56.8-20.2,3.5,1.8,7.3,3.5,11,4.9,11.9,4.5,24.8,7.7,37.7,10.2,15.9,3.1,32.1,5.3,48.3,7.1,19.1,2,38.4,3.4,57.7,4.1-32.6-.6-65.8-1.8-97.9-6.2h0ZM2260.1,101.6c-11.7,4.5-24.6,7.4-37.4,9.7-16,2.9-32.3,5-48.8,6.6,22.1-2.7,43.9-6.4,65-11.7,9.2-2.3,24.8-6.3,35.7-12.3-4.1,3.2-9.6,5.7-14.5,7.7Z"></path></g></g></svg> 