<?xml version="1.0" encoding="UTF-8"?> <svg xmlns="http://www.w3.org/2000/svg" id="Vrstva_2" data-name="Vrstva 2" viewBox="0 0 2534.11 159.59"><defs><style> .cls-1 { fill: #fff; } .cls-2 { fill: #373736; } </style></defs><g id="Vrstva_1-2" data-name="Vrstva 1"><g><path class="cls-2" d="M2532.81,32.84l1.3-7.22-.78-4.16.52-11.6s-1.56-9.19-1.56-9.85H11.15s1.04,5.25,1.3,5.91c.26.66-3.63,13.35-3.63,13.35l.78,6.79-.26,7.44.52,7.66-.78,9.63-.26,7.01-2.33,3.94-1.04,5.25-3.11,3.06,1.04,4.16-2.33,3.28,1.82,8.98-1.82,2.41,1.56,7.88-1.04,5.91.52,8.32,1.56,8.54-2.59,3.28.26,3.94-1.3,7.22.78,4.16-.52,11.6s1.56,9.19,1.56,9.85h2521.14s-1.04-5.25-1.3-5.91,3.63-13.35,3.63-13.35l-.78-6.79.26-7.44-.52-7.66.78-9.63.26-7.01,2.33-3.94,1.04-5.25,3.11-3.06-1.04-4.16,2.33-3.28-1.82-8.98,1.82-2.41-1.56-7.88,1.04-5.91-.52-8.32-1.56-8.54,2.59-3.28-.26-3.94Z"></path><g><path class="cls-1" d="M78.41,88.61l4.59-25.1h9.57l-8.5,40.03h-10.01l-5.36-22.82-5.25,22.82h-9.98l-8.52-40.03h9.6l4.59,25.1,5.5-25.1h8.19l5.58,25.1Z"></path><path class="cls-1" d="M121.17,86.55h-15.18v9.57h17.93v7.42h-27.58v-40.03h27.63v7.45h-17.98v8.44h15.18v7.15Z"></path><path class="cls-1" d="M164.61,96.07h-13.23l-2.31,7.48h-10.31l14.68-40.03h9.07l14.79,40.03h-10.37l-2.34-7.48ZM153.7,88.61h8.61l-4.32-13.88-4.29,13.88Z"></path><path class="cls-1" d="M195.1,89.38h-5.22v14.16h-9.65v-40.03h15.75c4.75,0,8.46,1.05,11.14,3.16,2.68,2.11,4.01,5.08,4.01,8.93,0,2.78-.56,5.09-1.69,6.92-1.13,1.83-2.89,3.31-5.29,4.45l8.36,16.16v.41h-10.34l-7.07-14.16ZM189.88,81.96h6.1c1.83,0,3.21-.48,4.14-1.45s1.39-2.31,1.39-4.04-.47-3.08-1.4-4.07c-.93-.98-2.31-1.47-4.12-1.47h-6.1v11.03Z"></path><path class="cls-1" d="M241.79,86.55h-15.18v9.57h17.93v7.42h-27.58v-40.03h27.63v7.45h-17.98v8.44h15.18v7.15Z"></path></g><g><polygon class="cls-1" points="399.52 63.46 391.87 86.71 391.73 86.71 383.71 63.46 370.93 63.46 385.81 101.51 384.96 103.56 379.45 116.89 392.16 116.89 397.17 103.56 412.23 63.46 399.52 63.46"></polygon><path class="cls-1" d="M337,63.46v4.26h-.14c-1.18-1.88-2.95-3.31-5.06-4.26-2.01-.9-4.31-1.37-6.71-1.37-2.59,0-5.02.49-7.25,1.37-7.66,3.04-12.82,10.83-12.82,20s4.95,17.11,12.68,20.1c2.25.87,4.72,1.34,7.39,1.34,2.46,0,4.81-.48,6.8-1.34,2.26-.99,4.05-2.48,4.97-4.36h.14v4.36h11.99v-40.1h-11.99ZM326.96,93.72c-5.56,0-9.96-4.55-9.96-10.11s4.33-10.32,9.82-10.32,10.18,4.55,10.18,10.18-4.4,10.25-10.03,10.25Z"></path><path class="cls-1" d="M291.88,78.97c-5.56-1.45-7.51-2.54-7.51-4.71,0-1.52,1.44-2.68,3.47-2.68s3.61.73,3.68,3.04h11.77c-.39-5.27-3.25-9.16-7.68-11.16l7.46-8h-11.59l-3.31,4.19-3.31-4.19h-11.59l7.26,8c-4.72,2.08-8.14,6.19-8.14,11.59,0,4.71,2.67,8.69,12.78,11.81,5.99,1.88,7.36,3.04,7.36,5.29,0,1.88-2.09,3.12-4.19,3.12-2.38,0-4.19-1.16-4.55-3.7h-11.91c.61,5.72,3.93,9.96,8.96,11.99,2.16.87,4.64,1.34,7.36,1.34s5.23-.47,7.46-1.34c5.28-2.07,8.86-6.44,8.86-12.35s-3.11-9.71-12.64-12.25Z"></path><path class="cls-1" d="M372.02,50.11c-11.26,0-15.67,4.26-15.67,12.42v.94h-4.48v9.1h4.48v31h11.99v-40.53c0-1.88.72-3.9,4.26-3.9h.79v-9.02h-1.37Z"></path></g><path class="cls-1" d="M285.41,37.65c-9.66-.17-19.45.61-28.9,2.65-.63.14-.5,1.19.15,1.14,9.14-.72,18.27-1.43,27.41-2.15.79-.06.81-1.24,0-1.24-4.8-.03-9.59-.06-14.39-.08l-7.19-.03c-2.12,0-4.44.18-6.43-.71-.4-.18-1,.02-.96.55.81,11.44,1.61,22.88,2.58,34.3s2.07,22.83,3.25,34.24c.67,6.42,1.35,12.84,2.12,19.25.06.5.39.97.95.95,7.43-.27,14.87.39,22.14,1.99l.26-1.89c-4.02-.37-8.03-.75-12.05-1.12-1.91-.18-3.84-.29-5.74-.54-.97-.13-2.49-.37-2.84-1.46l-1.2,1.2c7.79,1.23,15.69,1.62,23.56,1.17,1.25-.07,1.2-1.77,0-1.91-9.4-1.04-18.86-1.51-28.32-1.39-1.06.01-1.29,1.57-.25,1.86s2.03.82,2.86,1.57c.54.49,1.71.21,1.61-.67-1.19-11.09-2.07-22.22-2.7-33.36s-1-22.3-1.1-33.46c-.06-6.28-.04-12.57.07-18.85.02-1.26-1.93-1.26-1.95,0-.19,11.16-.12,22.32.23,33.47s.96,22.3,1.84,33.42c.5,6.26,1.09,12.52,1.73,18.77l1.61-.67c-1.06-.97-2.3-1.67-3.69-2.06l-.25,1.86c9.46-.12,18.92.35,28.32,1.4v-1.91c-7.7.44-15.43.05-23.05-1.15-.68-.11-1.45.42-1.2,1.2.5,1.55,1.89,2.34,3.4,2.68,1.89.42,3.89.45,5.81.63,4.43.41,8.86.81,13.29,1.22,1.08.1,1.31-1.66.26-1.89-7.43-1.63-15.05-2.32-22.65-2.04l.95.95c-1.39-11.39-2.78-22.78-3.97-34.19s-2.25-22.83-3.19-34.27c-.53-6.44-1.02-12.88-1.43-19.32l-.96.55c2,.92,4.17.88,6.33.89l7.44.03c4.96.02,9.92.03,14.88.04v-1.24c-9.14.75-18.27,1.49-27.41,2.24l.15,1.14c9.43-2.06,18.94-3.29,28.6-3.37.25,0,.25-.39,0-.39h0Z"></path><path class="cls-1" d="M398.6,36.16c8.47-.21,16.96-.12,25.43.33,2.44.13,4.87.29,7.3.48v-.85c-9.69-.48-19.38-.97-29.07-1.46-2.73-.14-5.47-.28-8.2-.41v1c10.59-.86,21.23-1.15,31.85-.86,3.02.08,6.03.21,9.05.39v-1.12c-9.06.85-18.16,1.08-27.26,1.13-2.56.01-5.13.01-7.7.02-.76,0-.76,1.18,0,1.18,8.36.03,16.71.06,25.07.08,2.4,0,4.8.02,7.2.02.73,0,.79-.98.16-1.21l-2.68-1.01c-.4-.15-.77.23-.79.6-.28,5.61-.57,11.23-.86,16.84s-.62,11.11-.58,16.67.65,11.07,1.29,16.6,1.09,11.06,1.05,16.63c-.04,6.19-.59,12.38-1.65,18.48l1.67.23c.99-11.61,1.97-23.22,1.93-34.89-.02-5.76-.28-11.53-.9-17.27s-1.68-11.06-2.38-16.61c-.77-6.13-1.02-12.42.78-18.4l-1.76-.24c1.08,12.65.86,25.36.39,38.03s-1.24,25.24-1.28,37.88c-.02,6.18.35,12.64,3.31,18.2.18.33.69.58,1.06.43,1.91-.76.29-3.38-1.32-2.57-.83.41-1,1.39-.88,2.22.06.39.23.77.27,1.16.02.13,0,.27,0,.4,0,.06.17.05-.02,0-.23-.06-.62.06-.86.08-.29.03-.58.05-.86.08-.62.06-1.23.11-1.85.17-1.19.11-2.38.21-3.58.3-2.34.18-4.69.35-7.04.49-9.47.56-18.97.76-28.46.59-5.36-.1-10.72-.31-16.08-.64-.49-.03-.89.43-.9.9,0,.53.42.84.9.9,4.08.46,8.2.47,12.3.37s8.1-.27,12.15-.41c8.12-.28,16.24-.57,24.36-.85,4.64-.16,9.28-.32,13.92-.49v-1.8c-12.01,1.23-24.09,1.45-36.15,1.43-3.39,0-6.78-.03-10.17-.05-1.16,0-1.16,1.78,0,1.8,8.79.14,17.58-.1,26.35-.73,2.51-.18,5.02-.39,7.53-.64,1.14-.11,1.15-1.91,0-1.8-8.75.85-17.53,1.32-26.33,1.4-2.52.02-5.03.01-7.55-.03v1.8c12.07.08,24.15.15,36.2-.57,3.38-.2,6.76-.47,10.13-.82,1.13-.12,1.18-1.84,0-1.8-16.32.57-32.63,1.19-48.95,1.7-4.59.14-9.2.19-13.78-.32v1.8c8.77.54,17.56.77,26.35.68,8.79-.09,17.57-.49,26.33-1.21,1.23-.1,2.47-.21,3.7-.32.58-.05,1.15-.11,1.73-.16.54-.05,1.15-.02,1.62-.32.79-.5.9-1.5.76-2.35-.07-.39-.23-.78-.24-1.17,0-.02.02-.2.01-.21.04.04-.46.08-.53.06,0,0,.12.08.08.05-.24-.2-1.37-.3.35-.95l1.06.43c-2.51-4.93-2.99-10.5-3.04-15.95-.06-6.15.16-12.32.39-18.47.45-12.53,1.14-25.05,1.15-37.59,0-7.06-.2-14.13-.74-21.17-.07-.99-1.46-1.25-1.76-.24-3.28,10.88-.19,22.14,1.2,33.05,1.48,11.58,1.39,23.3.76,34.94-.36,6.55-.85,13.1-1.37,19.65-.07.95,1.52,1.18,1.67.23,1.83-10.97,2.02-22.07.75-33.11-.64-5.56-1.44-11.11-1.63-16.71s.07-11.19.33-16.78c.29-6.36.59-12.71.9-19.07l-.79.6,2.68,1,.16-1.21c-8.36-.01-16.71-.03-25.07-.04-2.4,0-4.8,0-7.2-.01v1.18c9.1-.02,18.2-.04,27.29-.6,2.56-.16,5.12-.35,7.67-.61.71-.07.73-1.08,0-1.12-10.61-.59-21.25-.6-31.86-.03-3.01.16-6.03.37-9.03.63-.64.05-.65.97,0,1,9.69.45,19.38.89,29.07,1.34,2.73.13,5.47.26,8.2.39.55.03.54-.81,0-.85-8.46-.65-16.93-.91-25.41-.75-2.44.05-4.88.16-7.32.29-.32.02-.32.51,0,.5h0Z"></path><g><path class="cls-1" d="M528.14,88.61l4.59-25.1h9.57l-8.5,40.03h-10.01l-5.36-22.82-5.25,22.82h-9.98l-8.52-40.03h9.6l4.59,25.1,5.5-25.1h8.19l5.58,25.1Z"></path><path class="cls-1" d="M570.89,86.55h-15.18v9.57h17.93v7.42h-27.58v-40.03h27.63v7.45h-17.98v8.44h15.18v7.15Z"></path><path class="cls-1" d="M614.33,96.07h-13.23l-2.31,7.48h-10.31l14.68-40.03h9.07l14.79,40.03h-10.37l-2.34-7.48ZM603.42,88.61h8.61l-4.32-13.88-4.29,13.88Z"></path><path class="cls-1" d="M644.83,89.38h-5.22v14.16h-9.65v-40.03h15.75c4.75,0,8.46,1.05,11.14,3.16,2.68,2.11,4.01,5.08,4.01,8.93,0,2.78-.56,5.09-1.69,6.92-1.13,1.83-2.89,3.31-5.29,4.45l8.36,16.16v.41h-10.34l-7.07-14.16ZM639.6,81.96h6.1c1.83,0,3.21-.48,4.14-1.45s1.39-2.31,1.39-4.04-.47-3.08-1.4-4.07c-.93-.98-2.31-1.47-4.12-1.47h-6.1v11.03Z"></path><path class="cls-1" d="M691.51,86.55h-15.18v9.57h17.93v7.42h-27.58v-40.03h27.63v7.45h-17.98v8.44h15.18v7.15Z"></path></g><g><polygon class="cls-1" points="849.24 63.46 841.59 86.71 841.45 86.71 833.43 63.46 820.65 63.46 835.53 101.51 834.68 103.56 829.17 116.89 841.88 116.89 846.89 103.56 861.95 63.46 849.24 63.46"></polygon><path class="cls-1" d="M786.72,63.46v4.26h-.14c-1.18-1.88-2.95-3.31-5.06-4.26-2.01-.9-4.31-1.37-6.71-1.37-2.59,0-5.02.49-7.25,1.37-7.66,3.04-12.82,10.83-12.82,20s4.95,17.11,12.68,20.1c2.25.87,4.72,1.34,7.39,1.34,2.46,0,4.81-.48,6.8-1.34,2.26-.99,4.05-2.48,4.97-4.36h.14v4.36h11.99v-40.1h-11.99ZM776.69,93.72c-5.56,0-9.96-4.55-9.96-10.11s4.33-10.32,9.82-10.32,10.18,4.55,10.18,10.18-4.4,10.25-10.03,10.25Z"></path><path class="cls-1" d="M741.6,78.97c-5.56-1.45-7.51-2.54-7.51-4.71,0-1.52,1.44-2.68,3.47-2.68s3.61.73,3.68,3.04h11.77c-.39-5.27-3.25-9.16-7.68-11.16l7.46-8h-11.59l-3.31,4.19-3.31-4.19h-11.59l7.26,8c-4.72,2.08-8.14,6.19-8.14,11.59,0,4.71,2.67,8.69,12.78,11.81,5.99,1.88,7.36,3.04,7.36,5.29,0,1.88-2.09,3.12-4.19,3.12-2.38,0-4.19-1.16-4.55-3.7h-11.91c.61,5.72,3.93,9.96,8.96,11.99,2.16.87,4.64,1.34,7.36,1.34s5.23-.47,7.46-1.34c5.28-2.07,8.86-6.44,8.86-12.35s-3.11-9.71-12.64-12.25Z"></path><path class="cls-1" d="M821.74,50.11c-11.26,0-15.67,4.26-15.67,12.42v.94h-4.48v9.1h4.48v31h11.99v-40.53c0-1.88.72-3.9,4.26-3.9h.79v-9.02h-1.37Z"></path></g><path class="cls-1" d="M735.13,37.65c-9.66-.17-19.45.61-28.9,2.65-.63.14-.5,1.19.15,1.14,9.14-.72,18.27-1.43,27.41-2.15.79-.06.81-1.24,0-1.24-4.8-.03-9.59-.06-14.39-.08l-7.19-.03c-2.12,0-4.44.18-6.43-.71-.4-.18-1,.02-.96.55.81,11.44,1.61,22.88,2.58,34.3s2.07,22.83,3.25,34.24c.67,6.42,1.35,12.84,2.12,19.25.06.5.39.97.95.95,7.43-.27,14.87.39,22.14,1.99l.26-1.89c-4.02-.37-8.03-.75-12.05-1.12-1.91-.18-3.84-.29-5.74-.54-.97-.13-2.49-.37-2.84-1.46l-1.2,1.2c7.79,1.23,15.69,1.62,23.56,1.17,1.25-.07,1.2-1.77,0-1.91-9.4-1.04-18.86-1.51-28.32-1.39-1.06.01-1.29,1.57-.25,1.86s2.03.82,2.86,1.57c.54.49,1.71.21,1.61-.67-1.19-11.09-2.07-22.22-2.7-33.36s-1-22.3-1.1-33.46c-.06-6.28-.04-12.57.07-18.85.02-1.26-1.93-1.26-1.95,0-.19,11.16-.12,22.32.23,33.47s.96,22.3,1.84,33.42c.5,6.26,1.09,12.52,1.73,18.77l1.61-.67c-1.06-.97-2.3-1.67-3.69-2.06l-.25,1.86c9.46-.12,18.92.35,28.32,1.4v-1.91c-7.7.44-15.43.05-23.05-1.15-.68-.11-1.45.42-1.2,1.2.5,1.55,1.89,2.34,3.4,2.68,1.89.42,3.89.45,5.81.63,4.43.41,8.86.81,13.29,1.22,1.08.1,1.31-1.66.26-1.89-7.43-1.63-15.05-2.32-22.65-2.04l.95.95c-1.39-11.39-2.78-22.78-3.97-34.19s-2.25-22.83-3.19-34.27c-.53-6.44-1.02-12.88-1.43-19.32l-.96.55c2,.92,4.17.88,6.33.89l7.44.03c4.96.02,9.92.03,14.88.04v-1.24c-9.14.75-18.27,1.49-27.41,2.24l.15,1.14c9.43-2.06,18.94-3.29,28.6-3.37.25,0,.25-.39,0-.39h0Z"></path><path class="cls-1" d="M848.32,36.16c8.47-.21,16.96-.12,25.43.33,2.44.13,4.87.29,7.3.48v-.85c-9.69-.48-19.38-.97-29.07-1.46-2.73-.14-5.47-.28-8.2-.41v1c10.59-.86,21.23-1.15,31.85-.86,3.02.08,6.03.21,9.05.39v-1.12c-9.06.85-18.16,1.08-27.26,1.13-2.56.01-5.13.01-7.7.02-.76,0-.76,1.18,0,1.18,8.36.03,16.71.06,25.07.08,2.4,0,4.8.02,7.2.02.73,0,.79-.98.16-1.21l-2.68-1.01c-.4-.15-.77.23-.79.6-.28,5.61-.57,11.23-.86,16.84s-.62,11.11-.58,16.67.65,11.07,1.29,16.6,1.09,11.06,1.05,16.63c-.04,6.19-.59,12.38-1.65,18.48l1.67.23c.99-11.61,1.97-23.22,1.93-34.89-.02-5.76-.28-11.53-.9-17.27s-1.68-11.06-2.38-16.61c-.77-6.13-1.02-12.42.78-18.4l-1.76-.24c1.08,12.65.86,25.36.39,38.03s-1.24,25.24-1.28,37.88c-.02,6.18.35,12.64,3.31,18.2.18.33.69.58,1.06.43,1.91-.76.29-3.38-1.32-2.57-.83.41-1,1.39-.88,2.22.06.39.23.77.27,1.16.02.13,0,.27,0,.4,0,.06.17.05-.02,0-.23-.06-.62.06-.86.08-.29.03-.58.05-.86.08-.62.06-1.23.11-1.85.17-1.19.11-2.38.21-3.58.3-2.34.18-4.69.35-7.04.49-9.47.56-18.97.76-28.46.59-5.36-.1-10.72-.31-16.08-.64-.49-.03-.89.43-.9.9,0,.53.42.84.9.9,4.08.46,8.2.47,12.3.37s8.1-.27,12.15-.41c8.12-.28,16.24-.57,24.36-.85,4.64-.16,9.28-.32,13.92-.49v-1.8c-12.01,1.23-24.09,1.45-36.15,1.43-3.39,0-6.78-.03-10.17-.05-1.16,0-1.16,1.78,0,1.8,8.79.14,17.58-.1,26.35-.73,2.51-.18,5.02-.39,7.53-.64,1.14-.11,1.15-1.91,0-1.8-8.75.85-17.53,1.32-26.33,1.4-2.52.02-5.03.01-7.55-.03v1.8c12.07.08,24.15.15,36.2-.57,3.38-.2,6.76-.47,10.13-.82,1.13-.12,1.18-1.84,0-1.8-16.32.57-32.63,1.19-48.95,1.7-4.59.14-9.2.19-13.78-.32v1.8c8.77.54,17.56.77,26.35.68,8.79-.09,17.57-.49,26.33-1.21,1.23-.1,2.47-.21,3.7-.32.58-.05,1.15-.11,1.73-.16.54-.05,1.15-.02,1.62-.32.79-.5.9-1.5.76-2.35-.07-.39-.23-.78-.24-1.17,0-.02.02-.2.01-.21.04.04-.46.08-.53.06,0,0,.12.08.08.05-.24-.2-1.37-.3.35-.95l1.06.43c-2.51-4.93-2.99-10.5-3.04-15.95-.06-6.15.16-12.32.39-18.47.45-12.53,1.14-25.05,1.15-37.59,0-7.06-.2-14.13-.74-21.17-.07-.99-1.46-1.25-1.76-.24-3.28,10.88-.19,22.14,1.2,33.05,1.48,11.58,1.39,23.3.76,34.94-.36,6.55-.85,13.1-1.37,19.65-.07.95,1.52,1.18,1.67.23,1.83-10.97,2.02-22.07.75-33.11-.64-5.56-1.44-11.11-1.63-16.71s.07-11.19.33-16.78c.29-6.36.59-12.71.9-19.07l-.79.6,2.68,1,.16-1.21c-8.36-.01-16.71-.03-25.07-.04-2.4,0-4.8,0-7.2-.01v1.18c9.1-.02,18.2-.04,27.29-.6,2.56-.16,5.12-.35,7.67-.61.71-.07.73-1.08,0-1.12-10.61-.59-21.25-.6-31.86-.03-3.01.16-6.03.37-9.03.63-.64.05-.65.97,0,1,9.69.45,19.38.89,29.07,1.34,2.73.13,5.47.26,8.2.39.55.03.54-.81,0-.85-8.46-.65-16.93-.91-25.41-.75-2.44.05-4.88.16-7.32.29-.32.02-.32.51,0,.5h0Z"></path><g><path class="cls-1" d="M977.86,88.61l4.59-25.1h9.57l-8.5,40.03h-10.01l-5.36-22.82-5.25,22.82h-9.98l-8.52-40.03h9.6l4.59,25.1,5.5-25.1h8.19l5.58,25.1Z"></path><path class="cls-1" d="M1020.61,86.55h-15.18v9.57h17.93v7.42h-27.58v-40.03h27.63v7.45h-17.98v8.44h15.18v7.15Z"></path><path class="cls-1" d="M1064.06,96.07h-13.23l-2.31,7.48h-10.31l14.68-40.03h9.07l14.79,40.03h-10.37l-2.34-7.48ZM1053.14,88.61h8.61l-4.32-13.88-4.29,13.88Z"></path><path class="cls-1" d="M1094.55,89.38h-5.22v14.16h-9.65v-40.03h15.75c4.75,0,8.46,1.05,11.14,3.16,2.68,2.11,4.01,5.08,4.01,8.93,0,2.78-.56,5.09-1.69,6.92-1.13,1.83-2.89,3.31-5.29,4.45l8.36,16.16v.41h-10.34l-7.07-14.16ZM1089.32,81.96h6.1c1.83,0,3.21-.48,4.14-1.45s1.39-2.31,1.39-4.04-.47-3.08-1.4-4.07c-.93-.98-2.31-1.47-4.12-1.47h-6.1v11.03Z"></path><path class="cls-1" d="M1141.23,86.55h-15.18v9.57h17.93v7.42h-27.58v-40.03h27.63v7.45h-17.98v8.44h15.18v7.15Z"></path></g><g><polygon class="cls-1" points="1298.97 63.46 1291.31 86.71 1291.17 86.71 1283.16 63.46 1270.38 63.46 1285.25 101.51 1284.4 103.56 1278.9 116.89 1291.6 116.89 1296.61 103.56 1311.67 63.46 1298.97 63.46"></polygon><path class="cls-1" d="M1236.44,63.46v4.26h-.14c-1.18-1.88-2.95-3.31-5.06-4.26-2.01-.9-4.31-1.37-6.71-1.37-2.59,0-5.02.49-7.25,1.37-7.66,3.04-12.82,10.83-12.82,20s4.95,17.11,12.68,20.1c2.25.87,4.72,1.34,7.39,1.34,2.46,0,4.81-.48,6.8-1.34,2.26-.99,4.05-2.48,4.97-4.36h.14v4.36h11.99v-40.1h-11.99ZM1226.41,93.72c-5.56,0-9.96-4.55-9.96-10.11s4.33-10.32,9.82-10.32,10.18,4.55,10.18,10.18-4.4,10.25-10.03,10.25Z"></path><path class="cls-1" d="M1191.32,78.97c-5.56-1.45-7.51-2.54-7.51-4.71,0-1.52,1.44-2.68,3.47-2.68s3.61.73,3.68,3.04h11.77c-.39-5.27-3.25-9.16-7.68-11.16l7.46-8h-11.59l-3.31,4.19-3.31-4.19h-11.59l7.26,8c-4.72,2.08-8.14,6.19-8.14,11.59,0,4.71,2.67,8.69,12.78,11.81,5.99,1.88,7.36,3.04,7.36,5.29,0,1.88-2.09,3.12-4.19,3.12-2.38,0-4.19-1.16-4.55-3.7h-11.91c.61,5.72,3.93,9.96,8.96,11.99,2.16.87,4.64,1.34,7.36,1.34s5.23-.47,7.46-1.34c5.28-2.07,8.86-6.44,8.86-12.35s-3.11-9.71-12.64-12.25Z"></path><path class="cls-1" d="M1271.46,50.11c-11.26,0-15.67,4.26-15.67,12.42v.94h-4.48v9.1h4.48v31h11.99v-40.53c0-1.88.72-3.9,4.26-3.9h.79v-9.02h-1.37Z"></path></g><path class="cls-1" d="M1184.86,37.65c-9.66-.17-19.45.61-28.9,2.65-.63.14-.5,1.19.15,1.14,9.14-.72,18.27-1.43,27.41-2.15.79-.06.81-1.24,0-1.24-4.8-.03-9.59-.06-14.39-.08l-7.19-.03c-2.12,0-4.44.18-6.43-.71-.4-.18-1,.02-.96.55.81,11.44,1.61,22.88,2.58,34.3s2.07,22.83,3.25,34.24c.67,6.42,1.35,12.84,2.12,19.25.06.5.39.97.95.95,7.43-.27,14.87.39,22.14,1.99l.26-1.89c-4.02-.37-8.03-.75-12.05-1.12-1.91-.18-3.84-.29-5.74-.54-.97-.13-2.49-.37-2.84-1.46l-1.2,1.2c7.79,1.23,15.69,1.62,23.56,1.17,1.25-.07,1.2-1.77,0-1.91-9.4-1.04-18.86-1.51-28.32-1.39-1.06.01-1.29,1.57-.25,1.86s2.03.82,2.86,1.57c.54.49,1.71.21,1.61-.67-1.19-11.09-2.07-22.22-2.7-33.36-.63-11.14-1-22.3-1.1-33.46-.06-6.28-.04-12.57.07-18.85.02-1.26-1.93-1.26-1.95,0-.19,11.16-.12,22.32.23,33.47s.96,22.3,1.84,33.42c.5,6.26,1.09,12.52,1.73,18.77l1.61-.67c-1.06-.97-2.3-1.67-3.69-2.06l-.25,1.86c9.46-.12,18.92.35,28.32,1.4v-1.91c-7.7.44-15.43.05-23.05-1.15-.68-.11-1.45.42-1.2,1.2.5,1.55,1.89,2.34,3.4,2.68,1.89.42,3.89.45,5.81.63,4.43.41,8.86.81,13.29,1.22,1.08.1,1.31-1.66.26-1.89-7.43-1.63-15.05-2.32-22.65-2.04l.95.95c-1.39-11.39-2.78-22.78-3.97-34.19s-2.25-22.83-3.19-34.27c-.53-6.44-1.02-12.88-1.43-19.32l-.96.55c2,.92,4.17.88,6.33.89l7.44.03c4.96.02,9.92.03,14.88.04v-1.24c-9.14.75-18.27,1.49-27.41,2.24l.15,1.14c9.43-2.06,18.94-3.29,28.6-3.37.25,0,.25-.39,0-.39h0Z"></path><path class="cls-1" d="M1298.04,36.16c8.47-.21,16.96-.12,25.43.33,2.44.13,4.87.29,7.3.48v-.85c-9.69-.48-19.38-.97-29.07-1.46-2.73-.14-5.47-.28-8.2-.41v1c10.59-.86,21.23-1.15,31.85-.86,3.02.08,6.03.21,9.05.39v-1.12c-9.06.85-18.16,1.08-27.26,1.13-2.56.01-5.13.01-7.7.02-.76,0-.76,1.18,0,1.18,8.36.03,16.71.06,25.07.08,2.4,0,4.8.02,7.2.02.73,0,.79-.98.16-1.21l-2.68-1.01c-.4-.15-.77.23-.79.6-.28,5.61-.57,11.23-.86,16.84s-.62,11.11-.58,16.67.65,11.07,1.29,16.6,1.09,11.06,1.05,16.63c-.04,6.19-.59,12.38-1.65,18.48l1.67.23c.99-11.61,1.97-23.22,1.93-34.89-.02-5.76-.28-11.53-.9-17.27s-1.68-11.06-2.38-16.61c-.77-6.13-1.02-12.42.78-18.4l-1.76-.24c1.08,12.65.86,25.36.39,38.03s-1.24,25.24-1.28,37.88c-.02,6.18.35,12.64,3.31,18.2.18.33.69.58,1.06.43,1.91-.76.29-3.38-1.32-2.57-.83.41-1,1.39-.88,2.22.06.39.23.77.27,1.16.02.13,0,.27,0,.4,0,.06.17.05-.02,0-.23-.06-.62.06-.86.08-.29.03-.58.05-.86.08-.62.06-1.23.11-1.85.17-1.19.11-2.38.21-3.58.3-2.34.18-4.69.35-7.04.49-9.47.56-18.97.76-28.46.59-5.36-.1-10.72-.31-16.08-.64-.49-.03-.89.43-.9.9,0,.53.42.84.9.9,4.08.46,8.2.47,12.3.37s8.1-.27,12.15-.41c8.12-.28,16.24-.57,24.36-.85,4.64-.16,9.28-.32,13.92-.49v-1.8c-12.01,1.23-24.09,1.45-36.15,1.43-3.39,0-6.78-.03-10.17-.05-1.16,0-1.16,1.78,0,1.8,8.79.14,17.58-.1,26.35-.73,2.51-.18,5.02-.39,7.53-.64,1.14-.11,1.15-1.91,0-1.8-8.75.85-17.53,1.32-26.33,1.4-2.52.02-5.03.01-7.55-.03v1.8c12.07.08,24.15.15,36.2-.57,3.38-.2,6.76-.47,10.13-.82,1.13-.12,1.18-1.84,0-1.8-16.32.57-32.63,1.19-48.95,1.7-4.59.14-9.2.19-13.78-.32v1.8c8.77.54,17.56.77,26.35.68,8.79-.09,17.57-.49,26.33-1.21,1.23-.1,2.47-.21,3.7-.32.58-.05,1.15-.11,1.73-.16.54-.05,1.15-.02,1.62-.32.79-.5.9-1.5.76-2.35-.07-.39-.23-.78-.24-1.17,0-.02.02-.2.01-.21.04.04-.46.08-.53.06,0,0,.12.08.08.05-.24-.2-1.37-.3.35-.95l1.06.43c-2.51-4.93-2.99-10.5-3.04-15.95-.06-6.15.16-12.32.39-18.47.45-12.53,1.14-25.05,1.15-37.59,0-7.06-.2-14.13-.74-21.17-.07-.99-1.46-1.25-1.76-.24-3.28,10.88-.19,22.14,1.2,33.05,1.48,11.58,1.39,23.3.76,34.94-.36,6.55-.85,13.1-1.37,19.65-.07.95,1.52,1.18,1.67.23,1.83-10.97,2.02-22.07.75-33.11-.64-5.56-1.44-11.11-1.63-16.71-.19-5.6.07-11.19.33-16.78.29-6.36.59-12.71.9-19.07l-.79.6,2.68,1,.16-1.21c-8.36-.01-16.71-.03-25.07-.04-2.4,0-4.8,0-7.2-.01v1.18c9.1-.02,18.2-.04,27.29-.6,2.56-.16,5.12-.35,7.67-.61.71-.07.73-1.08,0-1.12-10.61-.59-21.25-.6-31.86-.03-3.01.16-6.03.37-9.03.63-.64.05-.65.97,0,1,9.69.45,19.38.89,29.07,1.34,2.73.13,5.47.26,8.2.39.55.03.54-.81,0-.85-8.46-.65-16.93-.91-25.41-.75-2.44.05-4.88.16-7.32.29-.32.02-.32.51,0,.5h0Z"></path><g><path class="cls-1" d="M1427.58,88.61l4.59-25.1h9.57l-8.5,40.03h-10.01l-5.36-22.82-5.25,22.82h-9.98l-8.52-40.03h9.6l4.59,25.1,5.5-25.1h8.19l5.58,25.1Z"></path><path class="cls-1" d="M1470.33,86.55h-15.18v9.57h17.93v7.42h-27.58v-40.03h27.63v7.45h-17.98v8.44h15.18v7.15Z"></path><path class="cls-1" d="M1513.78,96.07h-13.22l-2.31,7.48h-10.31l14.68-40.03h9.07l14.79,40.03h-10.37l-2.34-7.48ZM1502.86,88.61h8.61l-4.32-13.88-4.29,13.88Z"></path><path class="cls-1" d="M1544.27,89.38h-5.22v14.16h-9.65v-40.03h15.75c4.75,0,8.46,1.05,11.14,3.16,2.68,2.11,4.01,5.08,4.01,8.93,0,2.78-.56,5.09-1.69,6.92-1.13,1.83-2.89,3.31-5.29,4.45l8.36,16.16v.41h-10.34l-7.07-14.16ZM1539.04,81.96h6.1c1.83,0,3.21-.48,4.14-1.45s1.39-2.31,1.39-4.04-.47-3.08-1.4-4.07c-.93-.98-2.31-1.47-4.12-1.47h-6.1v11.03Z"></path><path class="cls-1" d="M1590.95,86.55h-15.18v9.57h17.93v7.42h-27.58v-40.03h27.63v7.45h-17.98v8.44h15.18v7.15Z"></path></g><g><polygon class="cls-1" points="1748.69 63.46 1741.04 86.71 1740.89 86.71 1732.88 63.46 1720.1 63.46 1734.97 101.51 1734.12 103.56 1728.62 116.89 1741.32 116.89 1746.33 103.56 1761.4 63.46 1748.69 63.46"></polygon><path class="cls-1" d="M1686.16,63.46v4.26h-.14c-1.18-1.88-2.95-3.31-5.06-4.26-2.01-.9-4.31-1.37-6.71-1.37-2.59,0-5.02.49-7.25,1.37-7.66,3.04-12.82,10.83-12.82,20s4.95,17.11,12.68,20.1c2.25.87,4.72,1.34,7.39,1.34,2.46,0,4.81-.48,6.8-1.34,2.26-.99,4.05-2.48,4.97-4.36h.14v4.36h11.99v-40.1h-11.99ZM1676.13,93.72c-5.56,0-9.96-4.55-9.96-10.11s4.33-10.32,9.82-10.32,10.18,4.55,10.18,10.18-4.4,10.25-10.03,10.25Z"></path><path class="cls-1" d="M1641.04,78.97c-5.56-1.45-7.51-2.54-7.51-4.71,0-1.52,1.44-2.68,3.47-2.68s3.61.73,3.68,3.04h11.77c-.39-5.27-3.25-9.16-7.68-11.16l7.46-8h-11.59l-3.31,4.19-3.31-4.19h-11.59l7.26,8c-4.72,2.08-8.14,6.19-8.14,11.59,0,4.71,2.67,8.69,12.78,11.81,5.99,1.88,7.36,3.04,7.36,5.29,0,1.88-2.09,3.12-4.19,3.12-2.38,0-4.19-1.16-4.55-3.7h-11.91c.61,5.72,3.93,9.96,8.96,11.99,2.16.87,4.64,1.34,7.36,1.34s5.23-.47,7.46-1.34c5.28-2.07,8.86-6.44,8.86-12.35s-3.11-9.71-12.64-12.25Z"></path><path class="cls-1" d="M1721.18,50.11c-11.26,0-15.67,4.26-15.67,12.42v.94h-4.48v9.1h4.48v31h11.99v-40.53c0-1.88.72-3.9,4.26-3.9h.79v-9.02h-1.37Z"></path></g><path class="cls-1" d="M1634.58,37.65c-9.66-.17-19.45.61-28.9,2.65-.63.14-.5,1.19.15,1.14,9.14-.72,18.27-1.43,27.41-2.15.79-.06.81-1.24,0-1.24-4.8-.03-9.59-.06-14.39-.08l-7.19-.03c-2.12,0-4.44.18-6.43-.71-.4-.18-1,.02-.96.55.81,11.44,1.61,22.88,2.58,34.3.97,11.42,2.07,22.83,3.25,34.24.67,6.42,1.35,12.84,2.12,19.25.06.5.39.97.95.95,7.43-.27,14.87.39,22.14,1.99l.26-1.89c-4.02-.37-8.03-.75-12.05-1.12-1.91-.18-3.84-.29-5.74-.54-.97-.13-2.49-.37-2.84-1.46l-1.2,1.2c7.79,1.23,15.69,1.62,23.56,1.17,1.25-.07,1.2-1.77,0-1.91-9.4-1.04-18.86-1.51-28.32-1.39-1.06.01-1.29,1.57-.25,1.86s2.03.82,2.86,1.57c.54.49,1.71.21,1.61-.67-1.19-11.09-2.07-22.22-2.7-33.36s-1-22.3-1.1-33.46c-.06-6.28-.04-12.57.07-18.85.02-1.26-1.93-1.26-1.95,0-.19,11.16-.12,22.32.23,33.47.35,11.15.96,22.3,1.84,33.42.5,6.26,1.09,12.52,1.73,18.77l1.61-.67c-1.06-.97-2.3-1.67-3.69-2.06l-.25,1.86c9.46-.12,18.92.35,28.32,1.4v-1.91c-7.7.44-15.43.05-23.05-1.15-.68-.11-1.45.42-1.2,1.2.5,1.55,1.89,2.34,3.4,2.68,1.89.42,3.89.45,5.81.63,4.43.41,8.86.81,13.29,1.22,1.08.1,1.31-1.66.26-1.89-7.43-1.63-15.05-2.32-22.65-2.04l.95.95c-1.39-11.39-2.78-22.78-3.97-34.19-1.18-11.41-2.25-22.83-3.19-34.27-.53-6.44-1.02-12.88-1.43-19.32l-.96.55c2,.92,4.17.88,6.33.89l7.44.03c4.96.02,9.92.03,14.88.04v-1.24c-9.14.75-18.27,1.49-27.41,2.24l.15,1.14c9.43-2.06,18.94-3.29,28.6-3.37.25,0,.25-.39,0-.39h0Z"></path><path class="cls-1" d="M1747.76,36.16c8.47-.21,16.96-.12,25.43.33,2.44.13,4.87.29,7.3.48v-.85c-9.69-.48-19.38-.97-29.07-1.46-2.73-.14-5.47-.28-8.2-.41v1c10.59-.86,21.23-1.15,31.85-.86,3.02.08,6.03.21,9.05.39v-1.12c-9.06.85-18.16,1.08-27.26,1.13-2.56.01-5.13.01-7.7.02-.76,0-.76,1.18,0,1.18,8.36.03,16.71.06,25.07.08,2.4,0,4.8.02,7.2.02.73,0,.79-.98.16-1.21l-2.68-1.01c-.4-.15-.77.23-.79.6-.28,5.61-.57,11.23-.86,16.84s-.62,11.11-.58,16.67.65,11.07,1.29,16.6,1.09,11.06,1.05,16.63c-.04,6.19-.59,12.38-1.65,18.48l1.67.23c.99-11.61,1.97-23.22,1.93-34.89-.02-5.76-.28-11.53-.9-17.27s-1.68-11.06-2.38-16.61c-.77-6.13-1.02-12.42.78-18.4l-1.76-.24c1.08,12.65.86,25.36.39,38.03s-1.24,25.24-1.28,37.88c-.02,6.18.35,12.64,3.31,18.2.18.33.69.58,1.06.43,1.91-.76.29-3.38-1.32-2.57-.83.41-1,1.39-.88,2.22.06.39.23.77.27,1.16.02.13,0,.27,0,.4,0,.06.17.05-.02,0-.23-.06-.62.06-.86.08-.29.03-.58.05-.86.08-.62.06-1.23.11-1.85.17-1.19.11-2.38.21-3.58.3-2.34.18-4.69.35-7.04.49-9.47.56-18.97.76-28.46.59-5.36-.1-10.72-.31-16.08-.64-.49-.03-.89.43-.9.9,0,.53.42.84.9.9,4.08.46,8.2.47,12.3.37s8.1-.27,12.15-.41c8.12-.28,16.24-.57,24.36-.85,4.64-.16,9.28-.32,13.92-.49v-1.8c-12.01,1.23-24.09,1.45-36.15,1.43-3.39,0-6.78-.03-10.17-.05-1.16,0-1.16,1.78,0,1.8,8.79.14,17.58-.1,26.35-.73,2.51-.18,5.02-.39,7.53-.64,1.14-.11,1.15-1.91,0-1.8-8.75.85-17.53,1.32-26.33,1.4-2.52.02-5.03.01-7.55-.03v1.8c12.07.08,24.15.15,36.2-.57,3.38-.2,6.76-.47,10.13-.82,1.13-.12,1.18-1.84,0-1.8-16.32.57-32.63,1.19-48.95,1.7-4.59.14-9.2.19-13.78-.32v1.8c8.77.54,17.56.77,26.35.68,8.79-.09,17.57-.49,26.33-1.21,1.23-.1,2.47-.21,3.7-.32.58-.05,1.15-.11,1.73-.16.54-.05,1.15-.02,1.62-.32.79-.5.9-1.5.76-2.35-.07-.39-.23-.78-.24-1.17,0-.02.02-.2.01-.21.04.04-.46.08-.53.06,0,0,.12.08.08.05-.24-.2-1.37-.3.35-.95l1.06.43c-2.51-4.93-2.99-10.5-3.04-15.95-.06-6.15.16-12.32.39-18.47.45-12.53,1.14-25.05,1.15-37.59,0-7.06-.2-14.13-.74-21.17-.07-.99-1.46-1.25-1.76-.24-3.28,10.88-.19,22.14,1.2,33.05,1.48,11.58,1.39,23.3.76,34.94-.36,6.55-.85,13.1-1.37,19.65-.07.95,1.52,1.18,1.67.23,1.83-10.97,2.02-22.07.75-33.11-.64-5.56-1.44-11.11-1.63-16.71s.07-11.19.33-16.78c.29-6.36.59-12.71.9-19.07l-.79.6,2.68,1,.16-1.21c-8.36-.01-16.71-.03-25.07-.04-2.4,0-4.8,0-7.2-.01v1.18c9.1-.02,18.2-.04,27.29-.6,2.56-.16,5.12-.35,7.67-.61.71-.07.73-1.08,0-1.12-10.61-.59-21.25-.6-31.86-.03-3.01.16-6.03.37-9.03.63-.64.05-.65.97,0,1,9.69.45,19.38.89,29.07,1.34,2.73.13,5.47.26,8.2.39.55.03.54-.81,0-.85-8.46-.65-16.93-.91-25.41-.75-2.44.05-4.88.16-7.32.29-.32.02-.32.51,0,.5h0Z"></path><g><path class="cls-1" d="M1877.3,88.61l4.59-25.1h9.57l-8.5,40.03h-10.01l-5.36-22.82-5.25,22.82h-9.98l-8.52-40.03h9.6l4.59,25.1,5.5-25.1h8.19l5.58,25.1Z"></path><path class="cls-1" d="M1920.06,86.55h-15.18v9.57h17.93v7.42h-27.58v-40.03h27.63v7.45h-17.98v8.44h15.18v7.15Z"></path><path class="cls-1" d="M1963.5,96.07h-13.22l-2.31,7.48h-10.31l14.68-40.03h9.07l14.79,40.03h-10.37l-2.34-7.48ZM1952.58,88.61h8.61l-4.32-13.88-4.29,13.88Z"></path><path class="cls-1" d="M1993.99,89.38h-5.22v14.16h-9.65v-40.03h15.75c4.75,0,8.46,1.05,11.14,3.16,2.68,2.11,4.01,5.08,4.01,8.93,0,2.78-.56,5.09-1.69,6.92-1.13,1.83-2.89,3.31-5.29,4.45l8.36,16.16v.41h-10.34l-7.07-14.16ZM1988.77,81.96h6.1c1.83,0,3.21-.48,4.14-1.45s1.39-2.31,1.39-4.04-.47-3.08-1.4-4.07c-.93-.98-2.31-1.47-4.12-1.47h-6.1v11.03Z"></path><path class="cls-1" d="M2040.68,86.55h-15.18v9.57h17.93v7.42h-27.58v-40.03h27.63v7.45h-17.98v8.44h15.18v7.15Z"></path></g><g><polygon class="cls-1" points="2198.41 63.46 2190.76 86.71 2190.61 86.71 2182.6 63.46 2169.82 63.46 2184.69 101.51 2183.84 103.56 2178.34 116.89 2191.05 116.89 2196.05 103.56 2211.12 63.46 2198.41 63.46"></polygon><path class="cls-1" d="M2135.89,63.46v4.26h-.14c-1.18-1.88-2.95-3.31-5.06-4.26-2.01-.9-4.31-1.37-6.71-1.37-2.59,0-5.02.49-7.25,1.37-7.66,3.04-12.82,10.83-12.82,20s4.95,17.11,12.68,20.1c2.25.87,4.72,1.34,7.39,1.34,2.46,0,4.81-.48,6.8-1.34,2.26-.99,4.05-2.48,4.97-4.36h.14v4.36h11.99v-40.1h-11.99ZM2125.85,93.72c-5.56,0-9.96-4.55-9.96-10.11s4.33-10.32,9.82-10.32,10.18,4.55,10.18,10.18-4.4,10.25-10.03,10.25Z"></path><path class="cls-1" d="M2090.76,78.97c-5.56-1.45-7.51-2.54-7.51-4.71,0-1.52,1.44-2.68,3.47-2.68s3.61.73,3.68,3.04h11.77c-.39-5.27-3.25-9.16-7.68-11.16l7.46-8h-11.59l-3.31,4.19-3.31-4.19h-11.59l7.26,8c-4.72,2.08-8.14,6.19-8.14,11.59,0,4.71,2.67,8.69,12.78,11.81,5.99,1.88,7.36,3.04,7.36,5.29,0,1.88-2.09,3.12-4.19,3.12-2.38,0-4.19-1.16-4.55-3.7h-11.91c.61,5.72,3.93,9.96,8.96,11.99,2.16.87,4.64,1.34,7.36,1.34s5.23-.47,7.46-1.34c5.28-2.07,8.86-6.44,8.86-12.35s-3.11-9.71-12.64-12.25Z"></path><path class="cls-1" d="M2170.9,50.11c-11.26,0-15.67,4.26-15.67,12.42v.94h-4.48v9.1h4.48v31h11.99v-40.53c0-1.88.72-3.9,4.26-3.9h.79v-9.02h-1.37Z"></path></g><path class="cls-1" d="M2084.3,37.65c-9.66-.17-19.45.61-28.9,2.65-.63.14-.5,1.19.15,1.14,9.14-.72,18.27-1.43,27.41-2.15.79-.06.81-1.24,0-1.24-4.8-.03-9.59-.06-14.39-.08l-7.19-.03c-2.12,0-4.44.18-6.43-.71-.4-.18-1,.02-.96.55.81,11.44,1.61,22.88,2.58,34.3s2.07,22.83,3.25,34.24c.67,6.42,1.35,12.84,2.12,19.25.06.5.39.97.95.95,7.43-.27,14.87.39,22.14,1.99l.26-1.89c-4.02-.37-8.03-.75-12.05-1.12-1.91-.18-3.84-.29-5.74-.54-.97-.13-2.49-.37-2.84-1.46l-1.2,1.2c7.79,1.23,15.69,1.62,23.56,1.17,1.25-.07,1.2-1.77,0-1.91-9.4-1.04-18.86-1.51-28.32-1.39-1.06.01-1.29,1.57-.25,1.86s2.03.82,2.86,1.57c.54.49,1.71.21,1.61-.67-1.19-11.09-2.07-22.22-2.7-33.36-.63-11.14-1-22.3-1.1-33.46-.06-6.28-.04-12.57.07-18.85.02-1.26-1.93-1.26-1.95,0-.19,11.16-.12,22.32.23,33.47.35,11.15.96,22.3,1.84,33.42.5,6.26,1.09,12.52,1.73,18.77l1.61-.67c-1.06-.97-2.3-1.67-3.69-2.06l-.25,1.86c9.46-.12,18.92.35,28.32,1.4v-1.91c-7.7.44-15.43.05-23.05-1.15-.68-.11-1.45.42-1.2,1.2.5,1.55,1.89,2.34,3.4,2.68,1.89.42,3.89.45,5.81.63,4.43.41,8.86.81,13.29,1.22,1.08.1,1.31-1.66.26-1.89-7.43-1.63-15.05-2.32-22.65-2.04l.95.95c-1.39-11.39-2.78-22.78-3.97-34.19-1.18-11.41-2.25-22.83-3.19-34.27-.53-6.44-1.02-12.88-1.43-19.32l-.96.55c2,.92,4.17.88,6.33.89l7.44.03c4.96.02,9.92.03,14.88.04v-1.24c-9.14.75-18.27,1.49-27.41,2.24l.15,1.14c9.43-2.06,18.94-3.29,28.6-3.37.25,0,.25-.39,0-.39h0Z"></path><path class="cls-1" d="M2197.48,36.16c8.47-.21,16.96-.12,25.43.33,2.44.13,4.87.29,7.3.48v-.85c-9.69-.48-19.38-.97-29.07-1.46-2.73-.14-5.47-.28-8.2-.41v1c10.59-.86,21.23-1.15,31.85-.86,3.02.08,6.03.21,9.05.39v-1.12c-9.06.85-18.16,1.08-27.26,1.13-2.56.01-5.13.01-7.7.02-.76,0-.76,1.18,0,1.18,8.36.03,16.71.06,25.07.08,2.4,0,4.8.02,7.2.02.73,0,.79-.98.16-1.21-.89-.34-1.79-.67-2.68-1.01-.4-.15-.77.23-.79.6-.28,5.61-.57,11.23-.86,16.84s-.62,11.11-.58,16.67.65,11.07,1.29,16.6,1.09,11.06,1.05,16.63c-.04,6.19-.59,12.38-1.65,18.48l1.67.23c.99-11.61,1.97-23.22,1.93-34.89-.02-5.76-.28-11.53-.9-17.27s-1.68-11.06-2.38-16.61c-.77-6.13-1.02-12.42.78-18.4l-1.76-.24c1.08,12.65.86,25.36.39,38.03s-1.24,25.24-1.28,37.88c-.02,6.18.35,12.64,3.31,18.2.18.33.69.58,1.06.43,1.91-.76.29-3.38-1.32-2.57-.83.41-1,1.39-.88,2.22.06.39.23.77.27,1.16.02.13,0,.27,0,.4,0,.06.17.05-.02,0-.23-.06-.62.06-.86.08-.29.03-.58.05-.86.08-.62.06-1.23.11-1.85.17-1.19.11-2.38.21-3.58.3-2.34.18-4.69.35-7.04.49-9.47.56-18.97.76-28.46.59-5.36-.1-10.72-.31-16.08-.64-.49-.03-.89.43-.9.9,0,.53.42.84.9.9,4.08.46,8.2.47,12.3.37s8.1-.27,12.15-.41c8.12-.28,16.24-.57,24.36-.85,4.64-.16,9.28-.32,13.92-.49v-1.8c-12.01,1.23-24.09,1.45-36.15,1.43-3.39,0-6.78-.03-10.17-.05-1.16,0-1.16,1.78,0,1.8,8.79.14,17.58-.1,26.35-.73,2.51-.18,5.02-.39,7.53-.64,1.14-.11,1.15-1.91,0-1.8-8.75.85-17.53,1.32-26.33,1.4-2.52.02-5.03.01-7.55-.03v1.8c12.07.08,24.15.15,36.2-.57,3.38-.2,6.76-.47,10.13-.82,1.13-.12,1.18-1.84,0-1.8-16.32.57-32.63,1.19-48.95,1.7-4.59.14-9.2.19-13.78-.32v1.8c8.77.54,17.56.77,26.35.68,8.79-.09,17.57-.49,26.33-1.21,1.23-.1,2.47-.21,3.7-.32.58-.05,1.15-.11,1.73-.16.54-.05,1.15-.02,1.62-.32.79-.5.9-1.5.76-2.35-.07-.39-.23-.78-.24-1.17,0-.02.02-.2.01-.21.04.04-.46.08-.53.06,0,0,.12.08.08.05-.24-.2-1.37-.3.35-.95l1.06.43c-2.51-4.93-2.99-10.5-3.04-15.95-.06-6.15.16-12.32.39-18.47.45-12.53,1.14-25.05,1.15-37.59,0-7.06-.2-14.13-.74-21.17-.07-.99-1.46-1.25-1.76-.24-3.28,10.88-.19,22.14,1.2,33.05,1.48,11.58,1.39,23.3.76,34.94-.36,6.55-.85,13.1-1.37,19.65-.07.95,1.52,1.18,1.67.23,1.83-10.97,2.02-22.07.75-33.11-.64-5.56-1.44-11.11-1.63-16.71s.07-11.19.33-16.78c.29-6.36.59-12.71.9-19.07l-.79.6,2.68,1,.16-1.21c-8.36-.01-16.71-.03-25.07-.04-2.4,0-4.8,0-7.2-.01v1.18c9.1-.02,18.2-.04,27.29-.6,2.56-.16,5.12-.35,7.67-.61.71-.07.73-1.08,0-1.12-10.61-.59-21.25-.6-31.86-.03-3.01.16-6.03.37-9.03.63-.64.05-.65.97,0,1,9.69.45,19.38.89,29.07,1.34,2.73.13,5.47.26,8.2.39.55.03.54-.81,0-.85-8.46-.65-16.93-.91-25.41-.75-2.44.05-4.88.16-7.32.29-.32.02-.32.51,0,.5h0Z"></path><g><path class="cls-1" d="M2354.58,88.61l4.59-25.1h9.57l-8.5,40.03h-10.01l-5.36-22.82-5.25,22.82h-9.98l-8.52-40.03h9.6l4.59,25.1,5.5-25.1h8.19l5.58,25.1Z"></path><path class="cls-1" d="M2397.33,86.55h-15.18v9.57h17.93v7.42h-27.58v-40.03h27.63v7.45h-17.98v8.44h15.18v7.15Z"></path><path class="cls-1" d="M2440.78,96.07h-13.23l-2.31,7.48h-10.31l14.68-40.03h9.07l14.79,40.03h-10.37l-2.34-7.48ZM2429.86,88.61h8.61l-4.32-13.88-4.29,13.88Z"></path><path class="cls-1" d="M2471.27,89.38h-5.22v14.16h-9.65v-40.03h15.75c4.75,0,8.46,1.05,11.13,3.16,2.68,2.11,4.02,5.08,4.02,8.93,0,2.78-.56,5.09-1.69,6.92s-2.89,3.31-5.29,4.45l8.36,16.16v.41h-10.34l-7.07-14.16ZM2466.04,81.96h6.1c1.83,0,3.21-.48,4.14-1.45s1.39-2.31,1.39-4.04-.47-3.08-1.4-4.07c-.93-.98-2.31-1.47-4.12-1.47h-6.1v11.03Z"></path><path class="cls-1" d="M2517.95,86.55h-15.18v9.57h17.93v7.42h-27.58v-40.03h27.63v7.45h-17.98v8.44h15.18v7.15Z"></path></g></g></g></svg> 