<?xml version="1.0" encoding="UTF-8"?> <svg xmlns="http://www.w3.org/2000/svg" id="Vrstva_2" data-name="Vrstva 2" version="1.1" viewBox="0 0 2534.1 159.6"><defs><style> .cls-1 { fill: #373736; } .cls-1, .cls-2 { stroke-width: 0px; } .cls-3 { isolation: isolate; } .cls-2 { fill: #fff; } </style></defs><g id="Vrstva_1-2" data-name="Vrstva 1-2"><g><path class="cls-1" d="M2532.8,32.8l1.3-7.2-.8-4.2.5-11.6s-1.6-9.2-1.6-9.9H11.1s1,5.2,1.3,5.9-3.6,13.4-3.6,13.4l.8,6.8-.3,7.4.5,7.7-.8,9.6-.3,7-2.3,3.9-1,5.3-3.1,3.1,1,4.2-2.3,3.3,1.8,9-1.8,2.4,1.6,7.9-1,5.9.5,8.3,1.6,8.5-2.6,3.3.3,3.9L0,134l.8,4.2-.5,11.6s1.6,9.2,1.6,9.9h2521.1s-1-5.2-1.3-5.9,3.6-13.4,3.6-13.4l-.8-6.8.3-7.4-.5-7.7.8-9.6.3-7,2.3-3.9,1-5.2,3.1-3.1-1-4.2,2.3-3.3-1.8-9,1.8-2.4-1.6-7.9,1-5.9-.5-8.3-1.6-8.5,2.6-3.3s-.3-3.9-.3-3.9Z"></path><g><g><path class="cls-2" d="M512.1,59c-.2-.1-.4-.3-.5-.6l-2.1,1.2c4.9,6.1,10.4,11.8,15.7,17.5s10.3,11.8,15.9,17.3l1.8-2.4c-3-1.8-4.9-4.7-6.7-7.7-1.8-3.1-3.7-6.2-5.9-9.1-4.7-6.1-10.3-11.5-14.4-18.1l-1.1,1.9c1.8,0,3.1,2.2,4.2,3.5,1.5,1.8,3,3.5,4.5,5.3,3,3.6,6.1,7.2,9.1,10.8,6,7.1,12,14.3,18.3,21.2,1.3,1.4,3.2-.6,2.1-2.1-6.2-7.6-12.7-15-19.2-22.4-3.2-3.7-6.4-7.3-9.6-11-1.6-1.8-3.2-3.7-4.8-5.5-1.2-1.3-2.7-2.3-4.5-2.4-1,0-1.6,1.1-1.1,1.9,4.3,6.8,10.1,12.4,14.9,18.8,4.3,5.8,6.7,12.9,12.7,17.4,1.5,1.1,2.8-1.2,1.8-2.4-5-6-10.6-11.6-15.9-17.3s-10.5-11.7-16.1-17.1c-.8-.8-2.5,0-2.1,1.2.4.9.8,1.5,1.6,2,1.3.8,2.5-1.2,1.2-2h0Z"></path><path class="cls-2" d="M517.4,94.6c11-10.7,22.8-20.6,35.2-29.6,3.6-2.6,7.2-5.1,10.9-7.5l-1.8-2.4c-12.5,13.5-25,27-38.8,39.3-3.9,3.5-7.9,6.9-11.9,10.3l2,1.6c.5-1,.9-1.8.9-2.9,0-1,.6-1.9,1.2-2.7,1.5-1.8,3.5-3.3,5.2-4.8,3.7-3.3,7.2-6.7,10.7-10.1,7-6.7,13.9-13.6,20.7-20.5,3.9-3.9,7.8-7.8,11.4-12l-1.8-1.8c-2.9,3.5-6.2,6.7-9.4,10s-6.3,6.4-9.6,9.6c-6.5,6.4-13.2,12.6-20,18.8-3.9,3.6-7.8,7.1-11.8,10.6-1.7,1.5.8,3.9,2.4,2.4,13.7-12.2,26.7-24.9,39.4-38.2,3.6-3.8,7-7.7,10.8-11.3,1.2-1.2-.6-3-1.8-1.8-3.6,3.4-7,7.1-10.4,10.6-3.5,3.5-7.1,7.2-10.7,10.8-7.1,7-14.4,13.8-21.5,20.8-1.9,1.8-4,3.6-5.6,5.7-.7.9-1.3,1.8-1.6,2.9-.1.5,0,1-.1,1.4,0,.6-.4,1.2-.6,1.8-.5,1.3,1.3,2.1,2.2,1.3,13.6-12.5,27.2-25.1,40.2-38.2,3.7-3.7,7.3-7.3,10.8-11.1,1.1-1.2-.3-3.4-1.8-2.4-13,8.7-25.4,18.2-37,28.7-3.3,2.9-6.5,5.9-9.6,9-1.4,1.3.7,3.5,2.1,2.1h0Z"></path></g><path class="cls-2" d="M528.8,76.3c5.7,7.2,11.4,14.5,17.1,21.7,1.6,2.1,3.2,4.2,4.9,6.2.8,1,2.7,0,2.2-1.3-3-7.4-7.5-14-12.4-20.3s-10.2-12.1-14.8-18.5c-2.6-3.6-5-7.4-7-11.3l-1.5,1.1c5.6,6.4,11.1,12.9,16.6,19.4,5.5,6.5,10.9,13,16.3,19.4,3.1,3.7,6.2,7.3,9.4,10.9l2.2-2.2c-5.8-4.8-11.2-10.1-16.3-15.6s-9.9-11.1-14.3-17c-2.6-3.4-5-6.9-7.4-10.4-.4-.6-1.2-.9-1.8-.5-.6.3-.9,1.2-.5,1.8,4.1,6.4,8.7,12.5,13.5,18.3s9.9,11.5,15.3,16.8c3,3,6.2,5.9,9.3,8.7.6.6,1.6.6,2.2,0s.5-1.6,0-2.2c-2.7-3.3-5.6-6.4-8.4-9.6s-5.6-6.4-8.5-9.5c-5.7-6.3-11.3-12.6-16.9-18.9-3.2-3.6-6.3-7.2-9.5-10.8-.7-.8-1.9.2-1.5,1.1,3.5,7.1,8.4,13.4,13.2,19.6s9.8,12.2,14,18.9c2.3,3.7,4.5,7.5,6.1,11.5l2.2-1.3c-2.9-3.6-6-7.1-8.9-10.6s-5.9-7-8.9-10.5c-1.7-2-3.4-4-5.1-6-.6-.7-1.5.3-1,1h0Z"></path><path class="cls-2" d="M512.4,95.1c6.1-6,12.3-11.8,18.7-17.5,6.4-5.7,13-11.2,19.7-16.5,3.8-3,7.6-5.9,11.3-8.9l-2.6-1.1c-.1,3.2,0,6.3,0,9.5l.4-.9c-6.5,6.1-13,12.2-19.5,18.1s-13.1,11.9-19.7,17.9c-3.7,3.4-7.4,6.8-11.1,10.2l2.5,1.9c2.3-3.6,4.7-7.1,7.2-10.6,1.2-1.7,2.5-3.3,3.8-4.9s2.7-3.4,4.1-5c1-1.1-.2-2.7-1.5-2-6.6,3.4-12.8,7.8-18.2,12.8-1.3,1.2.7,3.1,1.9,1.9,5.2-5.1,11.1-9.3,17.6-12.5l-1.5-2c-1.4,1.6-2.9,3.1-4.3,4.8s-2.8,3.5-4.2,5.2c-2.7,3.4-5.2,7-7.5,10.7-.4.7-.2,1.6.4,2,.6.5,1.5.4,2.1-.1,7.6-6.9,15-14,22.4-21.1,7.4-7,14.9-14,22.4-20.9,1.1-1,2.1-2,3.2-3,.5-.5,1-1,1.6-1.4.4-.3.6-.7.7-1.2,0-.3,0-.7,0-1,0-2.8.1-5.7.4-8.5.1-1.1-1.4-2-2.3-1.3-3.5,2.5-6.9,5.3-10.3,8.1s-6.5,5.5-9.8,8.3c-6.5,5.6-12.7,11.4-18.9,17.4-3.5,3.4-6.9,6.8-10.3,10.3-.8.8.5,2.1,1.3,1.3h0Z"></path><path class="cls-2" d="M538,88.8c1.9,2.8,3.8,5.5,5.8,8.3.9,1.4,1.9,2.7,2.8,4.1.5.7,1,1.4,1.4,2.2s.8,1.5,1.3,2.2c.3.5.9.8,1.5.6.5-.2,1-.7,1-1.3-.2-3.3-.6-6.7-1.1-10l-2.2,1.3c1.1,1.1,2.3,2.1,3.4,3.2s2.2,2.3,3.5,3.2c.5.4,1.3.1,1.7-.3.4-.5.3-1.2,0-1.7-1-1.1-2.2-2.1-3.3-3.1s-2.2-2.1-3.3-3.1c-1-.9-2.4,0-2.2,1.3.5,3.1.8,6.2,1,9.3l2.4-.7c-.5-.7-1.1-1.3-1.6-2s-1-1.3-1.6-2c-1-1.3-2-2.7-3-4.1-2-2.7-4-5.4-6-8.2-.6-.8-1.8,0-1.3.8h0Z"></path></g><g class="cls-3"><g class="cls-3"><path class="cls-2" d="M101.9,88l5.9-31.1h9l-9.7,43.7h-9.1l-7.1-29.2-7.1,29.2h-9.1l-9.7-43.7h9l5.9,31,7.2-31h7.6l7.2,31.1Z"></path><path class="cls-2" d="M147.9,81.7h-17.3v11.7h20.3v7.2h-29.3v-43.7h29.2v7.3h-20.2v10.4h17.3v7.1Z"></path><path class="cls-2" d="M196.2,91.6h-15.8l-3,9h-9.6l16.3-43.7h8.3l16.4,43.7h-9.6l-3-9ZM182.8,84.4h10.9l-5.5-16.4-5.4,16.4Z"></path><path class="cls-2" d="M229,84.7h-7.2v16h-9v-43.7h16.2c5.2,0,9.1,1.2,11.9,3.5s4.2,5.6,4.2,9.8-.6,5.5-1.9,7.5c-1.3,2-3.2,3.6-5.9,4.8l9.5,17.9v.4h-9.7l-8.2-16ZM221.9,77.4h7.3c2.3,0,4-.6,5.3-1.7,1.2-1.1,1.9-2.7,1.9-4.8s-.6-3.7-1.8-4.9c-1.2-1.2-3-1.8-5.4-1.8h-7.2v13.1Z"></path><path class="cls-2" d="M278.4,81.7h-17.3v11.7h20.3v7.2h-29.3v-43.7h29.2v7.3h-20.2v10.4h17.3v7.1Z"></path></g><g class="cls-3"><path class="cls-2" d="M641.7,86.8c-.5,4.6-2.2,8.2-5.1,10.7-2.9,2.5-6.7,3.8-11.4,3.8s-9.3-1.8-12.4-5.6c-3.1-3.7-4.7-8.7-4.7-14.9v-4.2c0-4.1.7-7.6,2.2-10.7,1.4-3.1,3.5-5.4,6.2-7.1,2.7-1.6,5.7-2.5,9.2-2.5s8.4,1.3,11.2,3.9c2.8,2.6,4.4,6.2,4.9,10.8h-5.8c-.5-3.5-1.6-6-3.3-7.6s-4-2.3-7-2.3-6.6,1.4-8.7,4.1c-2.1,2.7-3.1,6.6-3.1,11.6v4.2c0,4.7,1,8.5,3,11.3s4.8,4.2,8.3,4.2,5.7-.7,7.4-2.2c1.7-1.5,2.8-4,3.4-7.6h5.8Z"></path></g><g class="cls-3"><path class="cls-2" d="M664.3,73.2c-.8-.1-1.8-.2-2.7-.2-3.6,0-6.1,1.6-7.4,4.7v23h-5.6v-32.5h5.4v3.8c1.9-2.9,4.5-4.4,7.8-4.4s1.9.1,2.5.4v5.2Z"></path></g><g class="cls-3"><path class="cls-2" d="M682.3,101.2c-4.4,0-8-1.4-10.7-4.3s-4.1-6.8-4.1-11.6v-1c0-3.2.6-6.1,1.8-8.6,1.2-2.5,3-4.5,5.2-5.9s4.6-2.1,7.2-2.1c4.2,0,7.5,1.4,9.8,4.2,2.3,2.8,3.5,6.8,3.5,11.9v2.3h-22c0,3.2,1,5.8,2.8,7.8,1.8,2,4.1,3,6.8,3s3.6-.4,5-1.2c1.4-.8,2.5-1.9,3.6-3.2l3.4,2.6c-2.7,4.2-6.8,6.3-12.2,6.3ZM681.7,72.1c-2.2,0-4.1.8-5.6,2.4-1.5,1.6-2.5,3.9-2.8,6.9h16.3v-.4c-.2-2.8-.9-5-2.3-6.6-1.4-1.5-3.2-2.3-5.5-2.3Z"></path><path class="cls-2" d="M721.5,100.7c-.3-.6-.6-1.8-.8-3.4-2.6,2.7-5.7,4-9.2,4s-5.8-.9-7.9-2.7-3.1-4.1-3.1-6.9,1.3-6,3.9-7.9c2.6-1.9,6.2-2.8,10.8-2.8h5.4v-2.6c0-1.9-.6-3.5-1.7-4.6-1.2-1.2-2.9-1.7-5.1-1.7s-3.6.5-5,1.5c-1.3,1-2,2.2-2,3.6h-5.6c0-1.6.6-3.2,1.7-4.7,1.1-1.5,2.7-2.7,4.7-3.6,2-.9,4.1-1.3,6.5-1.3,3.7,0,6.7.9,8.8,2.8,2.1,1.9,3.2,4.4,3.3,7.7v14.9c0,3,.4,5.4,1.1,7.1v.5h-5.8ZM712.3,96.4c1.7,0,3.4-.5,5-1.4s2.7-2.1,3.4-3.5v-6.7h-4.4c-6.8,0-10.2,2-10.2,6s.6,3.1,1.7,4.1c1.2,1,2.7,1.5,4.5,1.5Z"></path><path class="cls-2" d="M742.4,60.3v7.9h6.1v4.3h-6.1v20.2c0,1.3.3,2.3.8,2.9.5.7,1.5,1,2.8,1s1.5-.1,2.6-.4v4.5c-1.5.4-2.9.6-4.3.6-2.5,0-4.4-.8-5.6-2.2s-1.9-3.6-1.9-6.4v-20.1h-5.9v-4.3h5.9v-7.9h5.6Z"></path><path class="cls-2" d="M755,59.6c0-.9.3-1.7.8-2.3s1.4-.9,2.4-.9,1.9.3,2.5.9c.6.6.8,1.4.8,2.3s-.3,1.7-.8,2.3c-.6.6-1.4.9-2.5.9s-1.9-.3-2.4-.9-.8-1.4-.8-2.3ZM761,100.7h-5.6v-32.5h5.6v32.5Z"></path></g><g class="cls-3"><path class="cls-2" d="M780.6,93.1l8-24.9h5.7l-11.6,32.5h-4.2l-11.8-32.5h5.7l8.3,24.9Z"></path></g><g class="cls-3"><path class="cls-2" d="M812.7,101.2c-4.4,0-8-1.4-10.7-4.3s-4.1-6.8-4.1-11.6v-1c0-3.2.6-6.1,1.8-8.6,1.2-2.5,3-4.5,5.2-5.9s4.6-2.1,7.2-2.1c4.2,0,7.5,1.4,9.8,4.2,2.3,2.8,3.5,6.8,3.5,11.9v2.3h-22c0,3.2,1,5.8,2.8,7.8,1.8,2,4.1,3,6.8,3s3.6-.4,5-1.2c1.4-.8,2.5-1.9,3.6-3.2l3.4,2.6c-2.7,4.2-6.8,6.3-12.2,6.3ZM812,72.1c-2.2,0-4.1.8-5.6,2.4-1.5,1.6-2.5,3.9-2.8,6.9h16.3v-.4c-.2-2.8-.9-5-2.3-6.6-1.4-1.5-3.2-2.3-5.5-2.3Z"></path></g><g class="cls-3"><path class="cls-2" d="M861.2,101.2c-4.8,0-8.6-1.5-11.6-4.4-3-2.9-4.5-6.8-4.5-11.7v-.8c0-3.3.6-6.2,1.9-8.7,1.3-2.6,3-4.6,5.4-5.9,2.3-1.4,4.9-2.1,7.9-2.1,4.4,0,7.9,1.4,10.5,4.2,2.5,2.8,3.8,6.8,3.8,11.9v3.5h-20.7c.3,2.1,1.1,3.8,2.5,5.1,1.4,1.3,3.2,1.9,5.4,1.9,3.3,0,6-1.2,7.8-3.6l4.3,4.8c-1.3,1.8-3.1,3.3-5.3,4.3s-4.7,1.5-7.4,1.5ZM860.2,74.6c-1.7,0-3.1.6-4.2,1.7-1.1,1.2-1.8,2.8-2.1,5h12.1v-.7c0-1.9-.6-3.4-1.6-4.5-1-1.1-2.4-1.6-4.3-1.6Z"></path><path class="cls-2" d="M891.2,90.1l6-21.9h9.1l-11,32.5h-8.3l-11-32.5h9.1l6,21.9Z"></path></g><g class="cls-3"><path class="cls-2" d="M925.6,101.2c-4.8,0-8.6-1.5-11.6-4.4-3-2.9-4.5-6.8-4.5-11.7v-.8c0-3.3.6-6.2,1.9-8.7,1.3-2.6,3-4.6,5.4-5.9,2.3-1.4,4.9-2.1,7.9-2.1,4.4,0,7.9,1.4,10.5,4.2,2.5,2.8,3.8,6.8,3.8,11.9v3.5h-20.7c.3,2.1,1.1,3.8,2.5,5.1,1.4,1.3,3.2,1.9,5.4,1.9,3.3,0,6-1.2,7.8-3.6l4.3,4.8c-1.3,1.8-3.1,3.3-5.3,4.3s-4.7,1.5-7.4,1.5ZM924.6,74.6c-1.7,0-3.1.6-4.2,1.7-1.1,1.2-1.8,2.8-2.1,5h12.1v-.7c0-1.9-.6-3.4-1.6-4.5-1-1.1-2.4-1.6-4.3-1.6Z"></path><path class="cls-2" d="M951.8,68.2l.3,3.8c2.3-2.9,5.4-4.4,9.3-4.4s6,1,7.7,3,2.5,5,2.6,9.1v21h-8.7v-20.8c0-1.8-.4-3.2-1.2-4-.8-.8-2.1-1.2-4-1.2s-4.3,1-5.5,3.1v22.9h-8.7v-32.5h8.2Z"></path><path class="cls-2" d="M988.7,60.2v8h5.6v6.4h-5.6v16.2c0,1.2.2,2.1.7,2.6.5.5,1.3.8,2.6.8s1.8,0,2.5-.2v6.6c-1.7.5-3.5.8-5.2.8-6.1,0-9.2-3.1-9.3-9.2v-17.5h-4.7v-6.4h4.7v-8h8.7Z"></path><path class="cls-2" d="M1033.2,100.7c-.4-.8-.7-1.8-.9-2.9-2.1,2.3-4.8,3.5-8.2,3.5s-5.8-.9-7.9-2.8c-2.1-1.8-3.1-4.2-3.1-7s1.3-6.1,3.8-7.9c2.5-1.8,6.2-2.8,11.1-2.8h4v-1.9c0-1.5-.4-2.7-1.2-3.6-.8-.9-2-1.4-3.6-1.4s-2.6.4-3.4,1.1c-.8.7-1.2,1.7-1.2,2.9h-8.7c0-1.9.6-3.6,1.7-5.2,1.2-1.6,2.8-2.9,4.9-3.8,2.1-.9,4.5-1.4,7.1-1.4,4,0,7.2,1,9.5,3s3.5,4.8,3.5,8.5v14.1c0,3.1.4,5.4,1.3,7v.5h-8.8ZM1026,94.6c1.3,0,2.5-.3,3.5-.9,1.1-.6,1.9-1.3,2.4-2.3v-5.6h-3.2c-4.3,0-6.7,1.5-6.9,4.5v.5c0,1.1.3,2,1.1,2.7.8.7,1.8,1,3.1,1Z"></path><path class="cls-2" d="M1046,84.2c0-5,1.2-9,3.6-12,2.4-3,5.6-4.6,9.6-4.6s6.3,1.2,8.3,3.7l.4-3.1h7.9v31.4c0,2.8-.6,5.3-1.9,7.4s-3.1,3.7-5.4,4.8c-2.3,1.1-5.1,1.7-8.2,1.7s-4.7-.5-7-1.4c-2.3-1-4-2.2-5.1-3.7l3.8-5.3c2.2,2.4,4.8,3.6,7.9,3.6s4.1-.6,5.4-1.8,1.9-3,1.9-5.2v-1.7c-2,2.3-4.6,3.4-7.9,3.4s-7.1-1.5-9.5-4.6c-2.4-3-3.6-7.1-3.6-12.1v-.4ZM1054.7,84.8c0,2.9.6,5.3,1.8,6.9s2.8,2.5,4.9,2.5,4.5-1,5.7-3v-13.7c-1.2-2-3-3-5.6-3s-3.7.9-4.9,2.6c-1.2,1.7-1.8,4.2-1.8,7.6Z"></path><path class="cls-2" d="M1097.3,101.2c-4.8,0-8.6-1.5-11.6-4.4-3-2.9-4.5-6.8-4.5-11.7v-.8c0-3.3.6-6.2,1.9-8.7,1.3-2.6,3-4.6,5.4-5.9,2.3-1.4,4.9-2.1,7.9-2.1,4.4,0,7.9,1.4,10.5,4.2,2.5,2.8,3.8,6.8,3.8,11.9v3.5h-20.7c.3,2.1,1.1,3.8,2.5,5.1,1.4,1.3,3.2,1.9,5.4,1.9,3.3,0,6-1.2,7.8-3.6l4.3,4.8c-1.3,1.8-3.1,3.3-5.3,4.3s-4.7,1.5-7.4,1.5ZM1096.3,74.6c-1.7,0-3.1.6-4.2,1.7s-1.8,2.8-2.1,5h12.1v-.7c0-1.9-.6-3.4-1.6-4.5-1-1.1-2.4-1.6-4.3-1.6Z"></path><path class="cls-2" d="M1123.6,68.2l.3,3.8c2.3-2.9,5.4-4.4,9.3-4.4s6,1,7.7,3,2.5,5,2.6,9.1v21h-8.7v-20.8c0-1.8-.4-3.2-1.2-4-.8-.8-2.1-1.2-4-1.2s-4.3,1-5.5,3.1v22.9h-8.7v-32.5h8.2Z"></path><path class="cls-2" d="M1163.5,94.3c1.6,0,2.9-.4,3.9-1.3,1-.9,1.5-2.1,1.6-3.5h8.1c0,2.2-.6,4.2-1.8,6-1.2,1.8-2.8,3.3-4.8,4.3-2.1,1-4.3,1.5-6.8,1.5-4.6,0-8.3-1.5-11-4.4-2.7-3-4-7-4-12.2v-.6c0-5,1.3-9,4-12,2.7-3,6.3-4.5,11-4.5s7.3,1.2,9.8,3.5c2.5,2.3,3.7,5.4,3.7,9.2h-8.1c0-1.7-.6-3.1-1.6-4.1-1-1.1-2.3-1.6-4-1.6s-3.5.7-4.6,2.2c-1,1.5-1.5,3.9-1.5,7.2v.9c0,3.3.5,5.8,1.5,7.2,1,1.5,2.6,2.2,4.7,2.2Z"></path><path class="cls-2" d="M1194.2,88.4l6-20.2h9.3l-13.1,37.5-.7,1.7c-1.9,4.2-5.1,6.4-9.6,6.4s-2.5-.2-3.8-.6v-6.6h1.3c1.6,0,2.9-.2,3.7-.7.8-.5,1.4-1.3,1.9-2.5l1-2.7-11.4-32.6h9.3l6,20.2Z"></path></g></g><g><polygon class="cls-2" points="451.6 56.9 443.2 82.3 443.1 82.3 434.3 56.9 420.4 56.9 436.6 98.4 435.7 100.7 429.7 115.2 443.5 115.2 449 100.7 465.5 56.9 451.6 56.9"></polygon><path class="cls-2" d="M383.4,56.9v4.7h-.2c-1.3-2.1-3.2-3.6-5.5-4.7-2.2-1-4.7-1.5-7.3-1.5s-5.5.5-7.9,1.5c-8.4,3.3-14,11.8-14,21.8s5.4,18.7,13.8,21.9c2.5.9,5.2,1.5,8.1,1.5s5.2-.5,7.4-1.5c2.5-1.1,4.4-2.7,5.4-4.8h.2v4.8h13.1v-43.8h-13.1ZM372.4,89.9c-6.1,0-10.9-5-10.9-11s4.7-11.3,10.7-11.3,11.1,5,11.1,11.1-4.8,11.2-11,11.2h0Z"></path><path class="cls-2" d="M334.1,73.8c-6.1-1.6-8.2-2.8-8.2-5.1s1.6-2.9,3.8-2.9,3.9.8,4,3.3h12.8c-.4-5.8-3.5-10-8.4-12.2l8.1-8.7h-12.6l-3.6,4.6-3.6-4.6h-12.6l7.9,8.7c-5.1,2.3-8.9,6.8-8.9,12.7s2.9,9.5,14,12.9c6.5,2.1,8,3.3,8,5.8s-2.3,3.4-4.6,3.4-4.6-1.3-5-4h-13c.7,6.2,4.3,10.9,9.8,13.1,2.4.9,5.1,1.5,8,1.5s5.7-.5,8.1-1.5c5.8-2.3,9.7-7,9.7-13.5s-3.4-10.6-13.8-13.4h0Z"></path><path class="cls-2" d="M421.6,42.3c-12.3,0-17.1,4.7-17.1,13.5v1h-4.9v9.9h4.9v33.8h13.1v-44.2c0-2,.8-4.3,4.6-4.3h.9v-9.8h-1.5,0Z"></path></g><path class="cls-2" d="M331.2,114.3c17.8,0,35.5.5,53.3,1.3s35.5,1.9,53.2,3.4c5,.4,10,.9,14.9,1.3,2.3.2,4.6.6,6.9.7,1.2,0,2.8-.3,3-1.7,0-.2,0-.4-.3-.5-10.3-2-20.7-3.4-31.1-4.3s-21-1.6-31.6-1.8c-21.2-.5-42.4.3-63.5,1.8-11.8.8-23.6,1.8-35.4,2.8-.7,0-.7,1.1,0,1.1,21.2-.8,42.4-1.3,63.6-1.6,21.1-.3,42.2-.3,63.3,0,11.9.1,23.8.3,35.6.6.6,0,.8-1,.1-1.1-22.4-4-45.1-5.4-67.8-5.8-22.9-.4-45.9,0-68.8.7-12.9.4-25.8.8-38.8,1.3v1.1c14.5-1.4,28.9-2.6,43.4-3.6,14.5-1,29.1-1.7,43.7-2.2,8.2-.3,16.4-.5,24.5-.6.6,0,.6-.9,0-.9-14.5.2-29,.7-43.5,1.3s-29.1,1.6-43.6,2.7c-8.2.6-16.3,1.3-24.5,2.1-.7,0-.7,1.1,0,1.1,23-.8,46.1-1.5,69.1-1.8,22.6-.3,45.3-.4,67.9,1.2,12.7.9,25.4,2.3,38,4.5v-1.1c-21.1-.5-42.3-.8-63.5-.8s-42.2.2-63.3.7c-11.9.3-23.8.6-35.6,1.1v1.1c21-1.9,42-3.6,63.1-4.4,21-.8,42.1-.7,63,1,11.9,1,23.6,2.6,35.3,4.6l-.3-.4c-.2,1.8-3.6,1.1-4.6,1-2.1-.2-4.3-.4-6.4-.6-4.3-.4-8.6-.8-12.8-1.1-8.6-.7-17.2-1.3-25.9-1.8-17.1-1-34.3-1.8-51.5-2.1-9.8-.2-19.5-.3-29.3-.3,0,0,0,0,0,0h0Z"></path><g><g><path class="cls-2" d="M1803.7,59c-.2-.1-.4-.3-.5-.6l-2.1,1.2c4.9,6.1,10.4,11.8,15.7,17.5s10.3,11.8,15.9,17.3l1.8-2.4c-3-1.8-4.9-4.7-6.7-7.7-1.8-3.1-3.7-6.2-5.9-9.1-4.7-6.1-10.3-11.5-14.4-18.1l-1.1,1.9c1.8,0,3.1,2.2,4.2,3.5,1.5,1.8,3,3.5,4.5,5.3,3,3.6,6.1,7.2,9.1,10.8,6,7.1,12,14.3,18.3,21.2,1.3,1.4,3.2-.6,2.1-2.1-6.2-7.6-12.7-15-19.2-22.4-3.2-3.7-6.4-7.3-9.6-11-1.6-1.8-3.2-3.7-4.8-5.5-1.2-1.3-2.7-2.3-4.5-2.4-.9,0-1.6,1.1-1.1,1.9,4.3,6.8,10.1,12.4,14.9,18.8,4.3,5.8,6.7,12.9,12.7,17.4,1.5,1.1,2.8-1.2,1.8-2.4-5-6-10.6-11.6-15.9-17.3-5.3-5.7-10.5-11.7-16.1-17.1-.8-.8-2.6,0-2.1,1.2.3.9.8,1.5,1.6,2,1.3.8,2.5-1.2,1.2-2h0Z"></path><path class="cls-2" d="M1808.9,94.6c11-10.7,22.8-20.6,35.2-29.6,3.6-2.6,7.2-5.1,10.9-7.5l-1.8-2.4c-12.5,13.5-25,27-38.8,39.3-3.9,3.5-7.9,6.9-11.9,10.3l2,1.6c.4-1,.9-1.8.9-2.9,0-1,.6-1.9,1.2-2.7,1.5-1.8,3.5-3.3,5.2-4.8,3.7-3.3,7.2-6.7,10.7-10.1,7-6.7,13.9-13.6,20.7-20.5,3.9-3.9,7.8-7.8,11.4-12l-1.8-1.8c-2.9,3.5-6.2,6.7-9.4,10s-6.3,6.4-9.6,9.6c-6.6,6.4-13.2,12.6-20,18.8-3.9,3.6-7.8,7.1-11.8,10.6-1.7,1.5.8,3.9,2.4,2.4,13.7-12.2,26.7-24.9,39.4-38.2,3.6-3.8,7-7.7,10.8-11.3,1.2-1.2-.6-3-1.8-1.8-3.6,3.4-7,7.1-10.4,10.6-3.5,3.5-7.1,7.2-10.7,10.8-7.1,7-14.4,13.8-21.5,20.8-1.9,1.8-4,3.6-5.6,5.7-.7.9-1.3,1.8-1.6,2.9-.1.5,0,1-.1,1.4,0,.6-.4,1.2-.6,1.8-.5,1.3,1.3,2.1,2.2,1.3,13.6-12.5,27.2-25.1,40.2-38.2,3.7-3.7,7.3-7.3,10.8-11.1,1.1-1.2-.3-3.4-1.8-2.4-13,8.7-25.4,18.2-37.1,28.7-3.3,2.9-6.5,5.9-9.6,9-1.4,1.3.7,3.5,2.1,2.1h0Z"></path></g><path class="cls-2" d="M1820.4,76.3c5.7,7.2,11.4,14.5,17.1,21.7,1.6,2.1,3.2,4.2,4.9,6.2.8,1,2.7,0,2.2-1.3-3-7.4-7.5-14-12.4-20.3s-10.2-12.1-14.8-18.5c-2.6-3.6-5-7.4-7-11.3l-1.5,1.1c5.6,6.4,11.1,12.9,16.6,19.4s10.9,13,16.3,19.4c3.1,3.7,6.2,7.3,9.4,10.9l2.2-2.2c-5.8-4.8-11.2-10.1-16.3-15.6s-9.9-11.1-14.3-17c-2.6-3.4-5-6.9-7.4-10.4-.4-.6-1.2-.9-1.8-.5-.6.3-.9,1.2-.5,1.8,4.1,6.4,8.7,12.5,13.5,18.3,4.8,5.9,9.9,11.5,15.3,16.8,3,3,6.2,5.9,9.3,8.7.6.6,1.6.6,2.2,0s.5-1.6,0-2.2c-2.7-3.3-5.6-6.4-8.4-9.6s-5.6-6.4-8.5-9.5c-5.7-6.3-11.3-12.6-16.9-18.9-3.2-3.6-6.3-7.2-9.5-10.8-.7-.8-1.9.2-1.5,1.1,3.6,7.1,8.4,13.4,13.2,19.6s9.8,12.2,14.1,18.9c2.3,3.7,4.4,7.5,6.1,11.5l2.2-1.3c-2.9-3.6-6-7.1-8.9-10.6s-5.9-7-8.9-10.5c-1.7-2-3.4-4-5.1-6-.6-.7-1.5.3-1,1h0Z"></path><path class="cls-2" d="M1803.9,95.1c6.1-6,12.3-11.8,18.7-17.5s13-11.2,19.7-16.5c3.8-3,7.6-5.9,11.3-8.9l-2.6-1.1c-.1,3.2,0,6.3,0,9.5l.4-.9c-6.5,6.1-13,12.2-19.6,18.1s-13.1,11.9-19.7,17.9c-3.7,3.4-7.4,6.8-11.1,10.2l2.5,1.9c2.3-3.6,4.7-7.1,7.2-10.6,1.2-1.7,2.5-3.3,3.8-4.9s2.7-3.4,4.1-5c1-1.1-.2-2.7-1.5-2-6.6,3.4-12.8,7.8-18.2,12.8-1.3,1.2.7,3.1,1.9,1.9,5.2-5.1,11.1-9.3,17.6-12.5l-1.5-2c-1.4,1.6-2.9,3.1-4.3,4.8s-2.8,3.5-4.2,5.2c-2.7,3.4-5.2,7-7.5,10.7-.4.7-.2,1.6.4,2,.7.5,1.5.4,2.1-.1,7.6-6.9,15-14,22.4-21.1s14.9-14,22.4-20.9c1.1-1,2.1-2,3.2-3l1.6-1.4c.4-.3.6-.7.7-1.2,0-.3,0-.7,0-1,0-2.8.1-5.7.4-8.5.1-1.1-1.4-2-2.3-1.3-3.5,2.5-6.9,5.3-10.3,8.1s-6.6,5.5-9.8,8.3c-6.5,5.6-12.7,11.4-18.9,17.4-3.5,3.4-6.9,6.8-10.3,10.3-.8.8.5,2.1,1.3,1.3h0Z"></path><path class="cls-2" d="M1829.5,88.8c1.9,2.8,3.8,5.5,5.8,8.3.9,1.4,1.9,2.7,2.8,4.1.5.7.9,1.4,1.4,2.2s.8,1.5,1.3,2.2c.3.5.9.8,1.5.6.5-.2,1-.7,1-1.3-.2-3.3-.6-6.7-1.1-10l-2.2,1.3c1.1,1.1,2.3,2.1,3.4,3.2s2.2,2.3,3.4,3.2c.5.4,1.3.1,1.7-.3.4-.5.3-1.2,0-1.7-1-1.1-2.2-2.1-3.3-3.1s-2.2-2.1-3.3-3.1c-1-.9-2.4,0-2.2,1.3.5,3.1.8,6.2,1,9.3l2.4-.7c-.5-.7-1.1-1.3-1.6-2s-1.1-1.3-1.6-2c-1-1.3-2-2.7-3.1-4.1-2-2.7-4-5.4-6-8.2-.6-.8-1.8,0-1.3.8h0Z"></path></g><g class="cls-3"><g class="cls-3"><path class="cls-2" d="M1393.5,88l5.9-31.1h9l-9.7,43.7h-9.1l-7.1-29.2-7.1,29.2h-9.1l-9.7-43.7h9l5.9,31,7.2-31h7.6l7.2,31.1Z"></path><path class="cls-2" d="M1439.5,81.7h-17.3v11.7h20.3v7.2h-29.3v-43.7h29.2v7.3h-20.2v10.4h17.3v7.1Z"></path><path class="cls-2" d="M1487.7,91.6h-15.8l-3,9h-9.6l16.3-43.7h8.3l16.4,43.7h-9.6l-3-9ZM1474.4,84.4h10.9l-5.5-16.4-5.4,16.4Z"></path><path class="cls-2" d="M1520.6,84.7h-7.2v16h-9v-43.7h16.2c5.2,0,9.1,1.2,11.9,3.5s4.2,5.6,4.2,9.8-.6,5.5-1.9,7.5c-1.3,2-3.2,3.6-5.9,4.8l9.5,17.9v.4h-9.7l-8.2-16ZM1513.4,77.4h7.3c2.3,0,4-.6,5.3-1.7,1.2-1.1,1.9-2.7,1.9-4.8s-.6-3.7-1.8-4.9c-1.2-1.2-3-1.8-5.4-1.8h-7.2v13.1Z"></path><path class="cls-2" d="M1569.9,81.7h-17.3v11.7h20.3v7.2h-29.3v-43.7h29.2v7.3h-20.2v10.4h17.3v7.1Z"></path></g><g class="cls-3"><path class="cls-2" d="M1933.2,86.8c-.5,4.6-2.2,8.2-5.1,10.7-2.9,2.5-6.7,3.8-11.4,3.8s-9.3-1.8-12.4-5.6c-3.1-3.7-4.7-8.7-4.7-14.9v-4.2c0-4.1.7-7.6,2.2-10.7,1.4-3.1,3.5-5.4,6.2-7.1,2.7-1.6,5.7-2.5,9.2-2.5s8.4,1.3,11.2,3.9c2.8,2.6,4.4,6.2,4.9,10.8h-5.8c-.5-3.5-1.6-6-3.3-7.6s-4-2.3-7-2.3-6.6,1.4-8.7,4.1c-2.1,2.7-3.1,6.6-3.1,11.6v4.2c0,4.7,1,8.5,3,11.3s4.8,4.2,8.3,4.2,5.7-.7,7.4-2.2c1.7-1.5,2.8-4,3.4-7.6h5.8Z"></path></g><g class="cls-3"><path class="cls-2" d="M1955.9,73.2c-.8-.1-1.8-.2-2.7-.2-3.6,0-6.1,1.6-7.4,4.7v23h-5.6v-32.5h5.4v3.8c1.9-2.9,4.5-4.4,7.8-4.4s1.9.1,2.5.4v5.2Z"></path></g><g class="cls-3"><path class="cls-2" d="M1973.9,101.2c-4.4,0-8-1.4-10.7-4.3-2.8-2.9-4.1-6.8-4.1-11.6v-1c0-3.2.6-6.1,1.8-8.6,1.2-2.5,3-4.5,5.2-5.9,2.2-1.4,4.6-2.1,7.2-2.1,4.2,0,7.5,1.4,9.8,4.2,2.3,2.8,3.5,6.8,3.5,11.9v2.3h-22c0,3.2,1,5.8,2.8,7.8,1.8,2,4.1,3,6.8,3s3.6-.4,5-1.2c1.4-.8,2.5-1.9,3.6-3.2l3.4,2.6c-2.7,4.2-6.8,6.3-12.2,6.3ZM1973.2,72.1c-2.2,0-4.1.8-5.6,2.4s-2.5,3.9-2.8,6.9h16.3v-.4c-.2-2.8-.9-5-2.3-6.6-1.4-1.5-3.2-2.3-5.5-2.3Z"></path><path class="cls-2" d="M2013,100.7c-.3-.6-.6-1.8-.8-3.4-2.6,2.7-5.7,4-9.2,4s-5.8-.9-7.9-2.7-3.1-4.1-3.1-6.9,1.3-6,3.9-7.9c2.6-1.9,6.2-2.8,10.8-2.8h5.4v-2.6c0-1.9-.6-3.5-1.7-4.6-1.2-1.2-2.9-1.7-5.1-1.7s-3.6.5-5,1.5c-1.3,1-2,2.2-2,3.6h-5.6c0-1.6.6-3.2,1.7-4.7,1.1-1.5,2.7-2.7,4.7-3.6,2-.9,4.1-1.3,6.5-1.3,3.7,0,6.7.9,8.8,2.8,2.1,1.9,3.2,4.4,3.3,7.7v14.9c0,3,.4,5.4,1.1,7.1v.5h-5.8ZM2003.8,96.4c1.7,0,3.4-.5,5-1.4s2.7-2.1,3.4-3.5v-6.7h-4.4c-6.8,0-10.2,2-10.2,6s.6,3.1,1.7,4.1c1.2,1,2.7,1.5,4.5,1.5Z"></path><path class="cls-2" d="M2033.9,60.3v7.9h6.1v4.3h-6.1v20.2c0,1.3.3,2.3.8,2.9.5.7,1.5,1,2.8,1s1.5-.1,2.6-.4v4.5c-1.5.4-2.9.6-4.3.6-2.5,0-4.4-.8-5.6-2.2s-1.9-3.6-1.9-6.4v-20.1h-5.9v-4.3h5.9v-7.9h5.6Z"></path><path class="cls-2" d="M2046.5,59.6c0-.9.3-1.7.8-2.3s1.4-.9,2.4-.9,1.9.3,2.5.9c.6.6.8,1.4.8,2.3s-.3,1.7-.8,2.3c-.6.6-1.4.9-2.5.9s-1.9-.3-2.4-.9-.8-1.4-.8-2.3ZM2052.5,100.7h-5.6v-32.5h5.6v32.5Z"></path></g><g class="cls-3"><path class="cls-2" d="M2072.1,93.1l8-24.9h5.7l-11.6,32.5h-4.2l-11.8-32.5h5.7l8.3,24.9Z"></path></g><g class="cls-3"><path class="cls-2" d="M2104.2,101.2c-4.4,0-8-1.4-10.7-4.3s-4.1-6.8-4.1-11.6v-1c0-3.2.6-6.1,1.8-8.6,1.2-2.5,3-4.5,5.2-5.9s4.6-2.1,7.2-2.1c4.2,0,7.5,1.4,9.8,4.2s3.5,6.8,3.5,11.9v2.3h-22c0,3.2,1,5.8,2.8,7.8,1.8,2,4.1,3,6.8,3s3.6-.4,5-1.2c1.4-.8,2.6-1.9,3.6-3.2l3.4,2.6c-2.7,4.2-6.8,6.3-12.2,6.3ZM2103.5,72.1c-2.2,0-4.1.8-5.6,2.4-1.5,1.6-2.5,3.9-2.8,6.9h16.3v-.4c-.2-2.8-.9-5-2.3-6.6-1.4-1.5-3.2-2.3-5.5-2.3Z"></path></g><g class="cls-3"><path class="cls-2" d="M2152.7,101.2c-4.8,0-8.6-1.5-11.6-4.4-3-2.9-4.5-6.8-4.5-11.7v-.8c0-3.3.6-6.2,1.9-8.7,1.3-2.6,3-4.6,5.4-5.9,2.3-1.4,4.9-2.1,7.9-2.1,4.4,0,7.9,1.4,10.5,4.2,2.5,2.8,3.8,6.8,3.8,11.9v3.5h-20.7c.3,2.1,1.1,3.8,2.5,5.1,1.4,1.3,3.2,1.9,5.4,1.9,3.3,0,6-1.2,7.8-3.6l4.3,4.8c-1.3,1.8-3.1,3.3-5.3,4.3s-4.7,1.5-7.4,1.5ZM2151.7,74.6c-1.7,0-3.1.6-4.2,1.7-1.1,1.2-1.8,2.8-2.1,5h12.1v-.7c0-1.9-.6-3.4-1.6-4.5-1-1.1-2.4-1.6-4.3-1.6Z"></path><path class="cls-2" d="M2182.7,90.1l6-21.9h9.1l-11,32.5h-8.3l-11-32.5h9.1l6,21.9Z"></path></g><g class="cls-3"><path class="cls-2" d="M2217.1,101.2c-4.8,0-8.6-1.5-11.6-4.4s-4.5-6.8-4.5-11.7v-.8c0-3.3.6-6.2,1.9-8.7,1.3-2.6,3-4.6,5.4-5.9,2.3-1.4,4.9-2.1,7.9-2.1,4.4,0,7.9,1.4,10.5,4.2,2.5,2.8,3.8,6.8,3.8,11.9v3.5h-20.7c.3,2.1,1.1,3.8,2.5,5.1,1.4,1.3,3.2,1.9,5.4,1.9,3.3,0,6-1.2,7.8-3.6l4.3,4.8c-1.3,1.8-3.1,3.3-5.3,4.3s-4.7,1.5-7.4,1.5ZM2216.1,74.6c-1.7,0-3.1.6-4.2,1.7s-1.8,2.8-2.1,5h12.1v-.7c0-1.9-.6-3.4-1.6-4.5-1-1.1-2.4-1.6-4.3-1.6Z"></path><path class="cls-2" d="M2243.4,68.2l.3,3.8c2.3-2.9,5.4-4.4,9.3-4.4s6,1,7.7,3c1.7,2,2.5,5,2.6,9.1v21h-8.7v-20.8c0-1.8-.4-3.2-1.2-4-.8-.8-2.1-1.2-4-1.2s-4.3,1-5.5,3.1v22.9h-8.7v-32.5h8.2Z"></path><path class="cls-2" d="M2280.2,60.2v8h5.6v6.4h-5.6v16.2c0,1.2.2,2.1.7,2.6.5.5,1.3.8,2.6.8s1.8,0,2.6-.2v6.6c-1.7.5-3.5.8-5.2.8-6.1,0-9.2-3.1-9.3-9.2v-17.5h-4.7v-6.4h4.7v-8h8.7Z"></path><path class="cls-2" d="M2324.7,100.7c-.4-.8-.7-1.8-.9-2.9-2.1,2.3-4.8,3.5-8.2,3.5s-5.8-.9-7.9-2.8-3.1-4.2-3.1-7,1.3-6.1,3.8-7.9c2.5-1.8,6.2-2.8,11.1-2.8h4v-1.9c0-1.5-.4-2.7-1.2-3.6-.8-.9-2-1.4-3.6-1.4s-2.6.4-3.4,1.1c-.8.7-1.2,1.7-1.2,2.9h-8.7c0-1.9.6-3.6,1.7-5.2,1.2-1.6,2.8-2.9,4.9-3.8,2.1-.9,4.5-1.4,7.1-1.4,4,0,7.2,1,9.5,3,2.3,2,3.5,4.8,3.5,8.5v14.1c0,3.1.4,5.4,1.3,7v.5h-8.8ZM2317.5,94.6c1.3,0,2.5-.3,3.5-.9,1.1-.6,1.9-1.3,2.4-2.3v-5.6h-3.2c-4.3,0-6.7,1.5-6.9,4.5v.5c0,1.1.3,2,1.1,2.7.8.7,1.8,1,3.1,1Z"></path><path class="cls-2" d="M2337.6,84.2c0-5,1.2-9,3.6-12,2.4-3,5.6-4.6,9.6-4.6s6.3,1.2,8.3,3.7l.4-3.1h7.9v31.4c0,2.8-.6,5.3-1.9,7.4-1.3,2.1-3.1,3.7-5.4,4.8-2.3,1.1-5.1,1.7-8.2,1.7s-4.7-.5-7-1.4-4-2.2-5.1-3.7l3.8-5.3c2.2,2.4,4.8,3.6,7.9,3.6s4.1-.6,5.4-1.8c1.3-1.2,1.9-3,1.9-5.2v-1.7c-2,2.3-4.6,3.4-7.9,3.4s-7.1-1.5-9.5-4.6c-2.4-3-3.6-7.1-3.6-12.1v-.4ZM2346.2,84.8c0,2.9.6,5.3,1.8,6.9,1.2,1.7,2.8,2.5,4.9,2.5s4.5-1,5.7-3v-13.7c-1.2-2-3-3-5.6-3s-3.7.9-4.9,2.6c-1.2,1.7-1.8,4.2-1.8,7.6Z"></path><path class="cls-2" d="M2388.8,101.2c-4.8,0-8.6-1.5-11.6-4.4-3-2.9-4.5-6.8-4.5-11.7v-.8c0-3.3.6-6.2,1.9-8.7,1.3-2.6,3-4.6,5.4-5.9,2.3-1.4,4.9-2.1,7.9-2.1,4.4,0,7.9,1.4,10.5,4.2,2.6,2.8,3.8,6.8,3.8,11.9v3.5h-20.7c.3,2.1,1.1,3.8,2.5,5.1,1.4,1.3,3.2,1.9,5.4,1.9,3.3,0,6-1.2,7.8-3.6l4.3,4.8c-1.3,1.8-3.1,3.3-5.3,4.3s-4.7,1.5-7.4,1.5ZM2387.9,74.6c-1.7,0-3.1.6-4.2,1.7s-1.8,2.8-2.1,5h12.1v-.7c0-1.9-.6-3.4-1.6-4.5-1-1.1-2.4-1.6-4.3-1.6Z"></path><path class="cls-2" d="M2415.1,68.2l.3,3.8c2.3-2.9,5.4-4.4,9.3-4.4s6,1,7.7,3c1.7,2,2.5,5,2.6,9.1v21h-8.7v-20.8c0-1.8-.4-3.2-1.2-4-.8-.8-2.1-1.2-4-1.2s-4.3,1-5.5,3.1v22.9h-8.7v-32.5h8.2Z"></path><path class="cls-2" d="M2455,94.3c1.6,0,2.9-.4,3.9-1.3s1.5-2.1,1.6-3.5h8.1c0,2.2-.6,4.2-1.8,6-1.2,1.8-2.8,3.3-4.8,4.3-2.1,1-4.3,1.5-6.8,1.5-4.6,0-8.3-1.5-11-4.4-2.7-3-4-7-4-12.2v-.6c0-5,1.3-9,4-12,2.7-3,6.3-4.5,11-4.5s7.3,1.2,9.8,3.5c2.4,2.3,3.7,5.4,3.7,9.2h-8.1c0-1.7-.6-3.1-1.6-4.1-1-1.1-2.3-1.6-4-1.6s-3.5.7-4.6,2.2c-1,1.5-1.5,3.9-1.5,7.2v.9c0,3.3.5,5.8,1.5,7.2,1,1.5,2.6,2.2,4.7,2.2Z"></path><path class="cls-2" d="M2485.7,88.4l6-20.2h9.3l-13.1,37.5-.7,1.7c-1.9,4.2-5.1,6.4-9.6,6.4s-2.5-.2-3.8-.6v-6.6h1.3c1.6,0,2.9-.2,3.7-.7s1.4-1.3,1.9-2.5l1-2.7-11.4-32.6h9.3l6,20.2Z"></path></g></g><g><polygon class="cls-2" points="1743.1 56.9 1734.8 82.3 1734.6 82.3 1725.9 56.9 1711.9 56.9 1728.2 98.4 1727.2 100.7 1721.2 115.2 1735.1 115.2 1740.6 100.7 1757 56.9 1743.1 56.9"></polygon><path class="cls-2" d="M1674.9,56.9v4.7h-.2c-1.3-2.1-3.2-3.6-5.5-4.7-2.2-1-4.7-1.5-7.3-1.5s-5.5.5-7.9,1.5c-8.4,3.3-14,11.8-14,21.8s5.4,18.7,13.8,21.9c2.4.9,5.2,1.5,8.1,1.5s5.2-.5,7.4-1.5c2.5-1.1,4.4-2.7,5.4-4.8h.2v4.8h13.1v-43.8h-13.1ZM1663.9,89.9c-6.1,0-10.9-5-10.9-11s4.7-11.3,10.7-11.3,11.1,5,11.1,11.1-4.8,11.2-10.9,11.2Z"></path><path class="cls-2" d="M1625.7,73.8c-6.1-1.6-8.2-2.8-8.2-5.1s1.6-2.9,3.8-2.9,3.9.8,4,3.3h12.8c-.4-5.8-3.5-10-8.4-12.2l8.1-8.7h-12.7l-3.6,4.6-3.6-4.6h-12.7l7.9,8.7c-5.2,2.3-8.9,6.8-8.9,12.7s2.9,9.5,13.9,12.9c6.5,2.1,8,3.3,8,5.8s-2.3,3.4-4.6,3.4-4.6-1.3-5-4h-13c.7,6.2,4.3,10.9,9.8,13.1,2.4.9,5.1,1.5,8,1.5s5.7-.5,8.1-1.5c5.8-2.3,9.7-7,9.7-13.5s-3.4-10.6-13.8-13.4h0Z"></path><path class="cls-2" d="M1713.1,42.3c-12.3,0-17.1,4.7-17.1,13.5v1h-4.9v9.9h4.9v33.8h13.1v-44.2c0-2,.8-4.3,4.7-4.3h.9v-9.8h-1.5Z"></path></g><path class="cls-2" d="M1622.8,114.3c17.8,0,35.5.5,53.3,1.3s35.5,1.9,53.2,3.4c5,.4,9.9.9,14.9,1.3,2.3.2,4.6.6,6.9.7,1.2,0,2.8-.3,3-1.7,0-.2,0-.4-.3-.5-10.3-2-20.7-3.4-31.1-4.3s-21.1-1.6-31.6-1.8c-21.2-.5-42.4.3-63.5,1.8-11.8.8-23.6,1.8-35.4,2.8-.7,0-.7,1.1,0,1.1,21.2-.8,42.4-1.3,63.6-1.6,21.1-.3,42.2-.3,63.3,0,11.9.1,23.8.3,35.7.6.6,0,.8-1,.2-1.1-22.4-4-45.1-5.4-67.8-5.8-22.9-.4-45.9,0-68.8.7-12.9.4-25.8.8-38.8,1.3v1.1c14.4-1.4,28.9-2.6,43.4-3.6,14.5-1,29.1-1.7,43.7-2.2,8.2-.3,16.4-.5,24.6-.6.6,0,.6-.9,0-.9-14.5.2-29,.7-43.5,1.3s-29.1,1.6-43.6,2.7c-8.2.6-16.3,1.3-24.5,2.1-.7,0-.7,1.1,0,1.1,23-.8,46.1-1.5,69.2-1.8,22.7-.3,45.3-.4,67.9,1.2,12.7.9,25.4,2.3,38,4.5l.2-1.1c-21.2-.5-42.4-.8-63.6-.8s-42.2.2-63.3.7c-11.9.3-23.8.6-35.6,1.1v1.1c21-1.9,42-3.6,63.1-4.4,21-.8,42.1-.7,63,1,11.9,1,23.6,2.6,35.3,4.6l-.3-.4c-.2,1.8-3.6,1.1-4.7,1-2.1-.2-4.3-.4-6.4-.6-4.3-.4-8.6-.8-12.8-1.1-8.6-.7-17.2-1.3-25.9-1.8-17.2-1-34.3-1.8-51.5-2.1-9.8-.2-19.5-.3-29.3-.3,0,0,0,0,0,0h0Z"></path><path class="cls-2" d="M1231.4,79.8c9.8-1.4,19.6-2.8,29.4-4.2,2.8-.4,5.6-.8,8.4-1.2l-.2-.5c-6.8,3.4-13.9,6.2-21.2,8.3-.4.1-.2.7.2.6,11.2-3.1,22.5-5.8,33.9-8.2,3.2-.7,6.5-1.3,9.7-2l-.3-.7c-6.8,3.3-13.9,6.1-21.2,8.3-.5.2-.3.9.2.8,10.4-2.8,20.7-5.6,31.1-8.4,2.9-.8,5.8-1.6,8.8-2.4l-.3-.8c-7.9,3.5-16,6.9-24.1,10-2.3.9-4.6,1.8-6.9,2.6-.6.2-.3,1.1.2.9,10.9-3,21.9-5.6,33-7.9,3.1-.6,6.2-1.2,9.3-1.8l-.5-.9c-1.8,1.8-3.9,3.1-6.3,3.9-.9.3-2.2.7-3.2.4-.2,0-.3-.2-.5-.3,0,0,0-.2,0,0,0,0,0,0,0,0s.2,0,.3,0c0,0,0,0,0,0,0,0,0-.5,0-.4-.5.5.3,1.2.8.8,1-1-.6-1.7-1.4-1.4-.6.2-.8.8-.6,1.3.2.7.9,1.1,1.6,1.2.8.1,1.7,0,2.5-.2,1-.2,1.9-.6,2.8-1,1.8-.8,3.5-2,4.9-3.4.4-.4,0-1-.5-.9-11.1,2.1-22.2,4.5-33.2,7.3-3.1.8-6.1,1.6-9.2,2.5l.2.9c8.2-3,16.3-6.3,24.3-9.7,2.3-1,4.6-2,6.9-3,.5-.2.1-.9-.3-.8-10.3,2.8-20.7,5.7-31.1,8.5-2.9.8-5.8,1.6-8.8,2.4l.2.8c7.3-2.3,14.5-5.1,21.3-8.4.4-.2,0-.8-.3-.7-11.4,2.2-22.8,4.8-34,7.7-3.2.8-6.4,1.7-9.6,2.6l.2.6c7.3-2.2,14.5-5.1,21.3-8.5.3-.1,0-.5-.2-.5-9.8,1.5-19.6,3-29.3,4.5l-8.4,1.3s0,0,0,0h0Z"></path></g></g></svg> 